G04 #@! TF.GenerationSoftware,KiCad,Pcbnew,5.0.2-bee76a0~70~ubuntu18.04.1*
G04 #@! TF.CreationDate,2019-05-17T00:05:31+09:00*
G04 #@! TF.ProjectId,meishi2,6d656973-6869-4322-9e6b-696361645f70,rev?*
G04 #@! TF.SameCoordinates,Original*
G04 #@! TF.FileFunction,Soldermask,Bot*
G04 #@! TF.FilePolarity,Negative*
%FSLAX46Y46*%
G04 Gerber Fmt 4.6, Leading zero omitted, Abs format (unit mm)*
G04 Created by KiCad (PCBNEW 5.0.2-bee76a0~70~ubuntu18.04.1) date 2019年05月17日 00時05分31秒*
%MOMM*%
%LPD*%
G01*
G04 APERTURE LIST*
%ADD10C,0.100000*%
G04 APERTURE END LIST*
D10*
G36*
X132415734Y-90333232D02*
X132625202Y-90419996D01*
X132813723Y-90545962D01*
X132974038Y-90706277D01*
X133100004Y-90894798D01*
X133186768Y-91104266D01*
X133231000Y-91326635D01*
X133231000Y-91553365D01*
X133186768Y-91775734D01*
X133100004Y-91985202D01*
X132974038Y-92173723D01*
X132813723Y-92334038D01*
X132625202Y-92460004D01*
X132415734Y-92546768D01*
X132193365Y-92591000D01*
X131966635Y-92591000D01*
X131744266Y-92546768D01*
X131534798Y-92460004D01*
X131346277Y-92334038D01*
X131185962Y-92173723D01*
X131059996Y-91985202D01*
X130973232Y-91775734D01*
X130929000Y-91553365D01*
X130929000Y-91326635D01*
X130973232Y-91104266D01*
X131059996Y-90894798D01*
X131185962Y-90706277D01*
X131346277Y-90545962D01*
X131534798Y-90419996D01*
X131744266Y-90333232D01*
X131966635Y-90289000D01*
X132193365Y-90289000D01*
X132415734Y-90333232D01*
X132415734Y-90333232D01*
G37*
G36*
X48595734Y-90333232D02*
X48805202Y-90419996D01*
X48993723Y-90545962D01*
X49154038Y-90706277D01*
X49280004Y-90894798D01*
X49366768Y-91104266D01*
X49411000Y-91326635D01*
X49411000Y-91553365D01*
X49366768Y-91775734D01*
X49280004Y-91985202D01*
X49154038Y-92173723D01*
X48993723Y-92334038D01*
X48805202Y-92460004D01*
X48595734Y-92546768D01*
X48373365Y-92591000D01*
X48146635Y-92591000D01*
X47924266Y-92546768D01*
X47714798Y-92460004D01*
X47526277Y-92334038D01*
X47365962Y-92173723D01*
X47239996Y-91985202D01*
X47153232Y-91775734D01*
X47109000Y-91553365D01*
X47109000Y-91326635D01*
X47153232Y-91104266D01*
X47239996Y-90894798D01*
X47365962Y-90706277D01*
X47526277Y-90545962D01*
X47714798Y-90419996D01*
X47924266Y-90333232D01*
X48146635Y-90289000D01*
X48373365Y-90289000D01*
X48595734Y-90333232D01*
X48595734Y-90333232D01*
G37*
G36*
X100030734Y-84803232D02*
X100240202Y-84889996D01*
X100428723Y-85015962D01*
X100589038Y-85176277D01*
X100715004Y-85364798D01*
X100801768Y-85574266D01*
X100846000Y-85796635D01*
X100846000Y-86023365D01*
X100801768Y-86245734D01*
X100715004Y-86455202D01*
X100589038Y-86643723D01*
X100428723Y-86804038D01*
X100240202Y-86930004D01*
X100030734Y-87016768D01*
X99808365Y-87061000D01*
X99581635Y-87061000D01*
X99359266Y-87016768D01*
X99149798Y-86930004D01*
X98961277Y-86804038D01*
X98800962Y-86643723D01*
X98674996Y-86455202D01*
X98588232Y-86245734D01*
X98544000Y-86023365D01*
X98544000Y-85796635D01*
X98588232Y-85574266D01*
X98674996Y-85364798D01*
X98800962Y-85176277D01*
X98961277Y-85015962D01*
X99149798Y-84889996D01*
X99359266Y-84803232D01*
X99581635Y-84759000D01*
X99808365Y-84759000D01*
X100030734Y-84803232D01*
X100030734Y-84803232D01*
G37*
G36*
X119080734Y-84803232D02*
X119290202Y-84889996D01*
X119478723Y-85015962D01*
X119639038Y-85176277D01*
X119765004Y-85364798D01*
X119851768Y-85574266D01*
X119896000Y-85796635D01*
X119896000Y-86023365D01*
X119851768Y-86245734D01*
X119765004Y-86455202D01*
X119639038Y-86643723D01*
X119478723Y-86804038D01*
X119290202Y-86930004D01*
X119080734Y-87016768D01*
X118858365Y-87061000D01*
X118631635Y-87061000D01*
X118409266Y-87016768D01*
X118199798Y-86930004D01*
X118011277Y-86804038D01*
X117850962Y-86643723D01*
X117724996Y-86455202D01*
X117638232Y-86245734D01*
X117594000Y-86023365D01*
X117594000Y-85796635D01*
X117638232Y-85574266D01*
X117724996Y-85364798D01*
X117850962Y-85176277D01*
X118011277Y-85015962D01*
X118199798Y-84889996D01*
X118409266Y-84803232D01*
X118631635Y-84759000D01*
X118858365Y-84759000D01*
X119080734Y-84803232D01*
X119080734Y-84803232D01*
G37*
G36*
X80980734Y-84803232D02*
X81190202Y-84889996D01*
X81378723Y-85015962D01*
X81539038Y-85176277D01*
X81665004Y-85364798D01*
X81751768Y-85574266D01*
X81796000Y-85796635D01*
X81796000Y-86023365D01*
X81751768Y-86245734D01*
X81665004Y-86455202D01*
X81539038Y-86643723D01*
X81378723Y-86804038D01*
X81190202Y-86930004D01*
X80980734Y-87016768D01*
X80758365Y-87061000D01*
X80531635Y-87061000D01*
X80309266Y-87016768D01*
X80099798Y-86930004D01*
X79911277Y-86804038D01*
X79750962Y-86643723D01*
X79624996Y-86455202D01*
X79538232Y-86245734D01*
X79494000Y-86023365D01*
X79494000Y-85796635D01*
X79538232Y-85574266D01*
X79624996Y-85364798D01*
X79750962Y-85176277D01*
X79911277Y-85015962D01*
X80099798Y-84889996D01*
X80309266Y-84803232D01*
X80531635Y-84759000D01*
X80758365Y-84759000D01*
X80980734Y-84803232D01*
X80980734Y-84803232D01*
G37*
G36*
X61930734Y-84803232D02*
X62140202Y-84889996D01*
X62328723Y-85015962D01*
X62489038Y-85176277D01*
X62615004Y-85364798D01*
X62701768Y-85574266D01*
X62746000Y-85796635D01*
X62746000Y-86023365D01*
X62701768Y-86245734D01*
X62615004Y-86455202D01*
X62489038Y-86643723D01*
X62328723Y-86804038D01*
X62140202Y-86930004D01*
X61930734Y-87016768D01*
X61708365Y-87061000D01*
X61481635Y-87061000D01*
X61259266Y-87016768D01*
X61049798Y-86930004D01*
X60861277Y-86804038D01*
X60700962Y-86643723D01*
X60574996Y-86455202D01*
X60488232Y-86245734D01*
X60444000Y-86023365D01*
X60444000Y-85796635D01*
X60488232Y-85574266D01*
X60574996Y-85364798D01*
X60700962Y-85176277D01*
X60861277Y-85015962D01*
X61049798Y-84889996D01*
X61259266Y-84803232D01*
X61481635Y-84759000D01*
X61708365Y-84759000D01*
X61930734Y-84803232D01*
X61930734Y-84803232D01*
G37*
G36*
X56930734Y-82703232D02*
X57140202Y-82789996D01*
X57328723Y-82915962D01*
X57489038Y-83076277D01*
X57615004Y-83264798D01*
X57701768Y-83474266D01*
X57746000Y-83696635D01*
X57746000Y-83923365D01*
X57701768Y-84145734D01*
X57615004Y-84355202D01*
X57489038Y-84543723D01*
X57328723Y-84704038D01*
X57140202Y-84830004D01*
X56930734Y-84916768D01*
X56708365Y-84961000D01*
X56481635Y-84961000D01*
X56259266Y-84916768D01*
X56049798Y-84830004D01*
X55861277Y-84704038D01*
X55700962Y-84543723D01*
X55574996Y-84355202D01*
X55488232Y-84145734D01*
X55444000Y-83923365D01*
X55444000Y-83696635D01*
X55488232Y-83474266D01*
X55574996Y-83264798D01*
X55700962Y-83076277D01*
X55861277Y-82915962D01*
X56049798Y-82789996D01*
X56259266Y-82703232D01*
X56481635Y-82659000D01*
X56708365Y-82659000D01*
X56930734Y-82703232D01*
X56930734Y-82703232D01*
G37*
G36*
X114080734Y-82703232D02*
X114290202Y-82789996D01*
X114478723Y-82915962D01*
X114639038Y-83076277D01*
X114765004Y-83264798D01*
X114851768Y-83474266D01*
X114896000Y-83696635D01*
X114896000Y-83923365D01*
X114851768Y-84145734D01*
X114765004Y-84355202D01*
X114639038Y-84543723D01*
X114478723Y-84704038D01*
X114290202Y-84830004D01*
X114080734Y-84916768D01*
X113858365Y-84961000D01*
X113631635Y-84961000D01*
X113409266Y-84916768D01*
X113199798Y-84830004D01*
X113011277Y-84704038D01*
X112850962Y-84543723D01*
X112724996Y-84355202D01*
X112638232Y-84145734D01*
X112594000Y-83923365D01*
X112594000Y-83696635D01*
X112638232Y-83474266D01*
X112724996Y-83264798D01*
X112850962Y-83076277D01*
X113011277Y-82915962D01*
X113199798Y-82789996D01*
X113409266Y-82703232D01*
X113631635Y-82659000D01*
X113858365Y-82659000D01*
X114080734Y-82703232D01*
X114080734Y-82703232D01*
G37*
G36*
X95030734Y-82703232D02*
X95240202Y-82789996D01*
X95428723Y-82915962D01*
X95589038Y-83076277D01*
X95715004Y-83264798D01*
X95801768Y-83474266D01*
X95846000Y-83696635D01*
X95846000Y-83923365D01*
X95801768Y-84145734D01*
X95715004Y-84355202D01*
X95589038Y-84543723D01*
X95428723Y-84704038D01*
X95240202Y-84830004D01*
X95030734Y-84916768D01*
X94808365Y-84961000D01*
X94581635Y-84961000D01*
X94359266Y-84916768D01*
X94149798Y-84830004D01*
X93961277Y-84704038D01*
X93800962Y-84543723D01*
X93674996Y-84355202D01*
X93588232Y-84145734D01*
X93544000Y-83923365D01*
X93544000Y-83696635D01*
X93588232Y-83474266D01*
X93674996Y-83264798D01*
X93800962Y-83076277D01*
X93961277Y-82915962D01*
X94149798Y-82789996D01*
X94359266Y-82703232D01*
X94581635Y-82659000D01*
X94808365Y-82659000D01*
X95030734Y-82703232D01*
X95030734Y-82703232D01*
G37*
G36*
X75980734Y-82703232D02*
X76190202Y-82789996D01*
X76378723Y-82915962D01*
X76539038Y-83076277D01*
X76665004Y-83264798D01*
X76751768Y-83474266D01*
X76796000Y-83696635D01*
X76796000Y-83923365D01*
X76751768Y-84145734D01*
X76665004Y-84355202D01*
X76539038Y-84543723D01*
X76378723Y-84704038D01*
X76190202Y-84830004D01*
X75980734Y-84916768D01*
X75758365Y-84961000D01*
X75531635Y-84961000D01*
X75309266Y-84916768D01*
X75099798Y-84830004D01*
X74911277Y-84704038D01*
X74750962Y-84543723D01*
X74624996Y-84355202D01*
X74538232Y-84145734D01*
X74494000Y-83923365D01*
X74494000Y-83696635D01*
X74538232Y-83474266D01*
X74624996Y-83264798D01*
X74750962Y-83076277D01*
X74911277Y-82915962D01*
X75099798Y-82789996D01*
X75309266Y-82703232D01*
X75531635Y-82659000D01*
X75758365Y-82659000D01*
X75980734Y-82703232D01*
X75980734Y-82703232D01*
G37*
G36*
X91221000Y-83601000D02*
X89119000Y-83601000D01*
X89119000Y-81499000D01*
X91221000Y-81499000D01*
X91221000Y-83601000D01*
X91221000Y-83601000D01*
G37*
G36*
X110271000Y-83601000D02*
X108169000Y-83601000D01*
X108169000Y-81499000D01*
X110271000Y-81499000D01*
X110271000Y-83601000D01*
X110271000Y-83601000D01*
G37*
G36*
X72171000Y-83601000D02*
X70069000Y-83601000D01*
X70069000Y-81499000D01*
X72171000Y-81499000D01*
X72171000Y-83601000D01*
X72171000Y-83601000D01*
G37*
G36*
X53121000Y-83601000D02*
X51019000Y-83601000D01*
X51019000Y-81499000D01*
X53121000Y-81499000D01*
X53121000Y-83601000D01*
X53121000Y-83601000D01*
G37*
G36*
X81243252Y-78037818D02*
X81243254Y-78037819D01*
X81243255Y-78037819D01*
X81616513Y-78192427D01*
X81947905Y-78413857D01*
X81952439Y-78416886D01*
X82238114Y-78702561D01*
X82238116Y-78702564D01*
X82462573Y-79038487D01*
X82617181Y-79411745D01*
X82617182Y-79411748D01*
X82696000Y-79807993D01*
X82696000Y-80212007D01*
X82621936Y-80584354D01*
X82617181Y-80608255D01*
X82462573Y-80981513D01*
X82462572Y-80981514D01*
X82238114Y-81317439D01*
X81952439Y-81603114D01*
X81952436Y-81603116D01*
X81616513Y-81827573D01*
X81243255Y-81982181D01*
X81243254Y-81982181D01*
X81243252Y-81982182D01*
X80847007Y-82061000D01*
X80442993Y-82061000D01*
X80046748Y-81982182D01*
X80046746Y-81982181D01*
X80046745Y-81982181D01*
X79673487Y-81827573D01*
X79337564Y-81603116D01*
X79337561Y-81603114D01*
X79051886Y-81317439D01*
X78827428Y-80981514D01*
X78827427Y-80981513D01*
X78672819Y-80608255D01*
X78668065Y-80584354D01*
X78594000Y-80212007D01*
X78594000Y-79807993D01*
X78672818Y-79411748D01*
X78672819Y-79411745D01*
X78827427Y-79038487D01*
X79051884Y-78702564D01*
X79051886Y-78702561D01*
X79337561Y-78416886D01*
X79342095Y-78413857D01*
X79673487Y-78192427D01*
X80046745Y-78037819D01*
X80046746Y-78037819D01*
X80046748Y-78037818D01*
X80442993Y-77959000D01*
X80847007Y-77959000D01*
X81243252Y-78037818D01*
X81243252Y-78037818D01*
G37*
G36*
X62193252Y-78037818D02*
X62193254Y-78037819D01*
X62193255Y-78037819D01*
X62566513Y-78192427D01*
X62897905Y-78413857D01*
X62902439Y-78416886D01*
X63188114Y-78702561D01*
X63188116Y-78702564D01*
X63412573Y-79038487D01*
X63567181Y-79411745D01*
X63567182Y-79411748D01*
X63646000Y-79807993D01*
X63646000Y-80212007D01*
X63571936Y-80584354D01*
X63567181Y-80608255D01*
X63412573Y-80981513D01*
X63412572Y-80981514D01*
X63188114Y-81317439D01*
X62902439Y-81603114D01*
X62902436Y-81603116D01*
X62566513Y-81827573D01*
X62193255Y-81982181D01*
X62193254Y-81982181D01*
X62193252Y-81982182D01*
X61797007Y-82061000D01*
X61392993Y-82061000D01*
X60996748Y-81982182D01*
X60996746Y-81982181D01*
X60996745Y-81982181D01*
X60623487Y-81827573D01*
X60287564Y-81603116D01*
X60287561Y-81603114D01*
X60001886Y-81317439D01*
X59777428Y-80981514D01*
X59777427Y-80981513D01*
X59622819Y-80608255D01*
X59618065Y-80584354D01*
X59544000Y-80212007D01*
X59544000Y-79807993D01*
X59622818Y-79411748D01*
X59622819Y-79411745D01*
X59777427Y-79038487D01*
X60001884Y-78702564D01*
X60001886Y-78702561D01*
X60287561Y-78416886D01*
X60292095Y-78413857D01*
X60623487Y-78192427D01*
X60996745Y-78037819D01*
X60996746Y-78037819D01*
X60996748Y-78037818D01*
X61392993Y-77959000D01*
X61797007Y-77959000D01*
X62193252Y-78037818D01*
X62193252Y-78037818D01*
G37*
G36*
X100293252Y-78037818D02*
X100293254Y-78037819D01*
X100293255Y-78037819D01*
X100666513Y-78192427D01*
X100997905Y-78413857D01*
X101002439Y-78416886D01*
X101288114Y-78702561D01*
X101288116Y-78702564D01*
X101512573Y-79038487D01*
X101667181Y-79411745D01*
X101667182Y-79411748D01*
X101746000Y-79807993D01*
X101746000Y-80212007D01*
X101671936Y-80584354D01*
X101667181Y-80608255D01*
X101512573Y-80981513D01*
X101512572Y-80981514D01*
X101288114Y-81317439D01*
X101002439Y-81603114D01*
X101002436Y-81603116D01*
X100666513Y-81827573D01*
X100293255Y-81982181D01*
X100293254Y-81982181D01*
X100293252Y-81982182D01*
X99897007Y-82061000D01*
X99492993Y-82061000D01*
X99096748Y-81982182D01*
X99096746Y-81982181D01*
X99096745Y-81982181D01*
X98723487Y-81827573D01*
X98387564Y-81603116D01*
X98387561Y-81603114D01*
X98101886Y-81317439D01*
X97877428Y-80981514D01*
X97877427Y-80981513D01*
X97722819Y-80608255D01*
X97718065Y-80584354D01*
X97644000Y-80212007D01*
X97644000Y-79807993D01*
X97722818Y-79411748D01*
X97722819Y-79411745D01*
X97877427Y-79038487D01*
X98101884Y-78702564D01*
X98101886Y-78702561D01*
X98387561Y-78416886D01*
X98392095Y-78413857D01*
X98723487Y-78192427D01*
X99096745Y-78037819D01*
X99096746Y-78037819D01*
X99096748Y-78037818D01*
X99492993Y-77959000D01*
X99897007Y-77959000D01*
X100293252Y-78037818D01*
X100293252Y-78037818D01*
G37*
G36*
X119343252Y-78037818D02*
X119343254Y-78037819D01*
X119343255Y-78037819D01*
X119716513Y-78192427D01*
X120047905Y-78413857D01*
X120052439Y-78416886D01*
X120338114Y-78702561D01*
X120338116Y-78702564D01*
X120562573Y-79038487D01*
X120717181Y-79411745D01*
X120717182Y-79411748D01*
X120796000Y-79807993D01*
X120796000Y-80212007D01*
X120721936Y-80584354D01*
X120717181Y-80608255D01*
X120562573Y-80981513D01*
X120562572Y-80981514D01*
X120338114Y-81317439D01*
X120052439Y-81603114D01*
X120052436Y-81603116D01*
X119716513Y-81827573D01*
X119343255Y-81982181D01*
X119343254Y-81982181D01*
X119343252Y-81982182D01*
X118947007Y-82061000D01*
X118542993Y-82061000D01*
X118146748Y-81982182D01*
X118146746Y-81982181D01*
X118146745Y-81982181D01*
X117773487Y-81827573D01*
X117437564Y-81603116D01*
X117437561Y-81603114D01*
X117151886Y-81317439D01*
X116927428Y-80981514D01*
X116927427Y-80981513D01*
X116772819Y-80608255D01*
X116768065Y-80584354D01*
X116694000Y-80212007D01*
X116694000Y-79807993D01*
X116772818Y-79411748D01*
X116772819Y-79411745D01*
X116927427Y-79038487D01*
X117151884Y-78702564D01*
X117151886Y-78702561D01*
X117437561Y-78416886D01*
X117442095Y-78413857D01*
X117773487Y-78192427D01*
X118146745Y-78037819D01*
X118146746Y-78037819D01*
X118146748Y-78037818D01*
X118542993Y-77959000D01*
X118947007Y-77959000D01*
X119343252Y-78037818D01*
X119343252Y-78037818D01*
G37*
G36*
X113536981Y-79047468D02*
X113662561Y-79099485D01*
X113686010Y-79106598D01*
X113710396Y-79109000D01*
X113753741Y-79109000D01*
X113927812Y-79143624D01*
X114091784Y-79211544D01*
X114239354Y-79310147D01*
X114364853Y-79435646D01*
X114463456Y-79583216D01*
X114531376Y-79747188D01*
X114566000Y-79921259D01*
X114566000Y-80098741D01*
X114531376Y-80272812D01*
X114463456Y-80436784D01*
X114364853Y-80584354D01*
X114239354Y-80709853D01*
X114091784Y-80808456D01*
X113927812Y-80876376D01*
X113753741Y-80911000D01*
X113710396Y-80911000D01*
X113686010Y-80913402D01*
X113662561Y-80920515D01*
X113536981Y-80972532D01*
X113343590Y-81011000D01*
X113146410Y-81011000D01*
X112953019Y-80972532D01*
X112770850Y-80897075D01*
X112606897Y-80787525D01*
X112467475Y-80648103D01*
X112357925Y-80484150D01*
X112282468Y-80301981D01*
X112244000Y-80108590D01*
X112244000Y-79911410D01*
X112282468Y-79718019D01*
X112357925Y-79535850D01*
X112467475Y-79371897D01*
X112606897Y-79232475D01*
X112770850Y-79122925D01*
X112953019Y-79047468D01*
X113146410Y-79009000D01*
X113343590Y-79009000D01*
X113536981Y-79047468D01*
X113536981Y-79047468D01*
G37*
G36*
X56386981Y-79047468D02*
X56512561Y-79099485D01*
X56536010Y-79106598D01*
X56560396Y-79109000D01*
X56603741Y-79109000D01*
X56777812Y-79143624D01*
X56941784Y-79211544D01*
X57089354Y-79310147D01*
X57214853Y-79435646D01*
X57313456Y-79583216D01*
X57381376Y-79747188D01*
X57416000Y-79921259D01*
X57416000Y-80098741D01*
X57381376Y-80272812D01*
X57313456Y-80436784D01*
X57214853Y-80584354D01*
X57089354Y-80709853D01*
X56941784Y-80808456D01*
X56777812Y-80876376D01*
X56603741Y-80911000D01*
X56560396Y-80911000D01*
X56536010Y-80913402D01*
X56512561Y-80920515D01*
X56386981Y-80972532D01*
X56193590Y-81011000D01*
X55996410Y-81011000D01*
X55803019Y-80972532D01*
X55620850Y-80897075D01*
X55456897Y-80787525D01*
X55317475Y-80648103D01*
X55207925Y-80484150D01*
X55132468Y-80301981D01*
X55094000Y-80108590D01*
X55094000Y-79911410D01*
X55132468Y-79718019D01*
X55207925Y-79535850D01*
X55317475Y-79371897D01*
X55456897Y-79232475D01*
X55620850Y-79122925D01*
X55803019Y-79047468D01*
X55996410Y-79009000D01*
X56193590Y-79009000D01*
X56386981Y-79047468D01*
X56386981Y-79047468D01*
G37*
G36*
X67386981Y-79047468D02*
X67569150Y-79122925D01*
X67733103Y-79232475D01*
X67872525Y-79371897D01*
X67982075Y-79535850D01*
X68057532Y-79718019D01*
X68096000Y-79911410D01*
X68096000Y-80108590D01*
X68057532Y-80301981D01*
X67982075Y-80484150D01*
X67872525Y-80648103D01*
X67733103Y-80787525D01*
X67569150Y-80897075D01*
X67386981Y-80972532D01*
X67193590Y-81011000D01*
X66996410Y-81011000D01*
X66803019Y-80972532D01*
X66677439Y-80920515D01*
X66653990Y-80913402D01*
X66629604Y-80911000D01*
X66586259Y-80911000D01*
X66412188Y-80876376D01*
X66248216Y-80808456D01*
X66100646Y-80709853D01*
X65975147Y-80584354D01*
X65876544Y-80436784D01*
X65808624Y-80272812D01*
X65774000Y-80098741D01*
X65774000Y-79921259D01*
X65808624Y-79747188D01*
X65876544Y-79583216D01*
X65975147Y-79435646D01*
X66100646Y-79310147D01*
X66248216Y-79211544D01*
X66412188Y-79143624D01*
X66586259Y-79109000D01*
X66629604Y-79109000D01*
X66653990Y-79106598D01*
X66677439Y-79099485D01*
X66803019Y-79047468D01*
X66996410Y-79009000D01*
X67193590Y-79009000D01*
X67386981Y-79047468D01*
X67386981Y-79047468D01*
G37*
G36*
X94486981Y-79047468D02*
X94612561Y-79099485D01*
X94636010Y-79106598D01*
X94660396Y-79109000D01*
X94703741Y-79109000D01*
X94877812Y-79143624D01*
X95041784Y-79211544D01*
X95189354Y-79310147D01*
X95314853Y-79435646D01*
X95413456Y-79583216D01*
X95481376Y-79747188D01*
X95516000Y-79921259D01*
X95516000Y-80098741D01*
X95481376Y-80272812D01*
X95413456Y-80436784D01*
X95314853Y-80584354D01*
X95189354Y-80709853D01*
X95041784Y-80808456D01*
X94877812Y-80876376D01*
X94703741Y-80911000D01*
X94660396Y-80911000D01*
X94636010Y-80913402D01*
X94612561Y-80920515D01*
X94486981Y-80972532D01*
X94293590Y-81011000D01*
X94096410Y-81011000D01*
X93903019Y-80972532D01*
X93720850Y-80897075D01*
X93556897Y-80787525D01*
X93417475Y-80648103D01*
X93307925Y-80484150D01*
X93232468Y-80301981D01*
X93194000Y-80108590D01*
X93194000Y-79911410D01*
X93232468Y-79718019D01*
X93307925Y-79535850D01*
X93417475Y-79371897D01*
X93556897Y-79232475D01*
X93720850Y-79122925D01*
X93903019Y-79047468D01*
X94096410Y-79009000D01*
X94293590Y-79009000D01*
X94486981Y-79047468D01*
X94486981Y-79047468D01*
G37*
G36*
X105486981Y-79047468D02*
X105669150Y-79122925D01*
X105833103Y-79232475D01*
X105972525Y-79371897D01*
X106082075Y-79535850D01*
X106157532Y-79718019D01*
X106196000Y-79911410D01*
X106196000Y-80108590D01*
X106157532Y-80301981D01*
X106082075Y-80484150D01*
X105972525Y-80648103D01*
X105833103Y-80787525D01*
X105669150Y-80897075D01*
X105486981Y-80972532D01*
X105293590Y-81011000D01*
X105096410Y-81011000D01*
X104903019Y-80972532D01*
X104777439Y-80920515D01*
X104753990Y-80913402D01*
X104729604Y-80911000D01*
X104686259Y-80911000D01*
X104512188Y-80876376D01*
X104348216Y-80808456D01*
X104200646Y-80709853D01*
X104075147Y-80584354D01*
X103976544Y-80436784D01*
X103908624Y-80272812D01*
X103874000Y-80098741D01*
X103874000Y-79921259D01*
X103908624Y-79747188D01*
X103976544Y-79583216D01*
X104075147Y-79435646D01*
X104200646Y-79310147D01*
X104348216Y-79211544D01*
X104512188Y-79143624D01*
X104686259Y-79109000D01*
X104729604Y-79109000D01*
X104753990Y-79106598D01*
X104777439Y-79099485D01*
X104903019Y-79047468D01*
X105096410Y-79009000D01*
X105293590Y-79009000D01*
X105486981Y-79047468D01*
X105486981Y-79047468D01*
G37*
G36*
X124536981Y-79047468D02*
X124719150Y-79122925D01*
X124883103Y-79232475D01*
X125022525Y-79371897D01*
X125132075Y-79535850D01*
X125207532Y-79718019D01*
X125246000Y-79911410D01*
X125246000Y-80108590D01*
X125207532Y-80301981D01*
X125132075Y-80484150D01*
X125022525Y-80648103D01*
X124883103Y-80787525D01*
X124719150Y-80897075D01*
X124536981Y-80972532D01*
X124343590Y-81011000D01*
X124146410Y-81011000D01*
X123953019Y-80972532D01*
X123827439Y-80920515D01*
X123803990Y-80913402D01*
X123779604Y-80911000D01*
X123736259Y-80911000D01*
X123562188Y-80876376D01*
X123398216Y-80808456D01*
X123250646Y-80709853D01*
X123125147Y-80584354D01*
X123026544Y-80436784D01*
X122958624Y-80272812D01*
X122924000Y-80098741D01*
X122924000Y-79921259D01*
X122958624Y-79747188D01*
X123026544Y-79583216D01*
X123125147Y-79435646D01*
X123250646Y-79310147D01*
X123398216Y-79211544D01*
X123562188Y-79143624D01*
X123736259Y-79109000D01*
X123779604Y-79109000D01*
X123803990Y-79106598D01*
X123827439Y-79099485D01*
X123953019Y-79047468D01*
X124146410Y-79009000D01*
X124343590Y-79009000D01*
X124536981Y-79047468D01*
X124536981Y-79047468D01*
G37*
G36*
X75436981Y-79047468D02*
X75562561Y-79099485D01*
X75586010Y-79106598D01*
X75610396Y-79109000D01*
X75653741Y-79109000D01*
X75827812Y-79143624D01*
X75991784Y-79211544D01*
X76139354Y-79310147D01*
X76264853Y-79435646D01*
X76363456Y-79583216D01*
X76431376Y-79747188D01*
X76466000Y-79921259D01*
X76466000Y-80098741D01*
X76431376Y-80272812D01*
X76363456Y-80436784D01*
X76264853Y-80584354D01*
X76139354Y-80709853D01*
X75991784Y-80808456D01*
X75827812Y-80876376D01*
X75653741Y-80911000D01*
X75610396Y-80911000D01*
X75586010Y-80913402D01*
X75562561Y-80920515D01*
X75436981Y-80972532D01*
X75243590Y-81011000D01*
X75046410Y-81011000D01*
X74853019Y-80972532D01*
X74670850Y-80897075D01*
X74506897Y-80787525D01*
X74367475Y-80648103D01*
X74257925Y-80484150D01*
X74182468Y-80301981D01*
X74144000Y-80108590D01*
X74144000Y-79911410D01*
X74182468Y-79718019D01*
X74257925Y-79535850D01*
X74367475Y-79371897D01*
X74506897Y-79232475D01*
X74670850Y-79122925D01*
X74853019Y-79047468D01*
X75046410Y-79009000D01*
X75243590Y-79009000D01*
X75436981Y-79047468D01*
X75436981Y-79047468D01*
G37*
G36*
X86436981Y-79047468D02*
X86619150Y-79122925D01*
X86783103Y-79232475D01*
X86922525Y-79371897D01*
X87032075Y-79535850D01*
X87107532Y-79718019D01*
X87146000Y-79911410D01*
X87146000Y-80108590D01*
X87107532Y-80301981D01*
X87032075Y-80484150D01*
X86922525Y-80648103D01*
X86783103Y-80787525D01*
X86619150Y-80897075D01*
X86436981Y-80972532D01*
X86243590Y-81011000D01*
X86046410Y-81011000D01*
X85853019Y-80972532D01*
X85727439Y-80920515D01*
X85703990Y-80913402D01*
X85679604Y-80911000D01*
X85636259Y-80911000D01*
X85462188Y-80876376D01*
X85298216Y-80808456D01*
X85150646Y-80709853D01*
X85025147Y-80584354D01*
X84926544Y-80436784D01*
X84858624Y-80272812D01*
X84824000Y-80098741D01*
X84824000Y-79921259D01*
X84858624Y-79747188D01*
X84926544Y-79583216D01*
X85025147Y-79435646D01*
X85150646Y-79310147D01*
X85298216Y-79211544D01*
X85462188Y-79143624D01*
X85636259Y-79109000D01*
X85679604Y-79109000D01*
X85703990Y-79106598D01*
X85727439Y-79099485D01*
X85853019Y-79047468D01*
X86046410Y-79009000D01*
X86243590Y-79009000D01*
X86436981Y-79047468D01*
X86436981Y-79047468D01*
G37*
G36*
X115270734Y-76363232D02*
X115480202Y-76449996D01*
X115668723Y-76575962D01*
X115829038Y-76736277D01*
X115955004Y-76924798D01*
X116041768Y-77134266D01*
X116086000Y-77356635D01*
X116086000Y-77583365D01*
X116041768Y-77805734D01*
X115955004Y-78015202D01*
X115829038Y-78203723D01*
X115668723Y-78364038D01*
X115480202Y-78490004D01*
X115270734Y-78576768D01*
X115048365Y-78621000D01*
X114821635Y-78621000D01*
X114599266Y-78576768D01*
X114389798Y-78490004D01*
X114201277Y-78364038D01*
X114040962Y-78203723D01*
X113914996Y-78015202D01*
X113828232Y-77805734D01*
X113784000Y-77583365D01*
X113784000Y-77356635D01*
X113828232Y-77134266D01*
X113914996Y-76924798D01*
X114040962Y-76736277D01*
X114201277Y-76575962D01*
X114389798Y-76449996D01*
X114599266Y-76363232D01*
X114821635Y-76319000D01*
X115048365Y-76319000D01*
X115270734Y-76363232D01*
X115270734Y-76363232D01*
G37*
G36*
X96220734Y-76363232D02*
X96430202Y-76449996D01*
X96618723Y-76575962D01*
X96779038Y-76736277D01*
X96905004Y-76924798D01*
X96991768Y-77134266D01*
X97036000Y-77356635D01*
X97036000Y-77583365D01*
X96991768Y-77805734D01*
X96905004Y-78015202D01*
X96779038Y-78203723D01*
X96618723Y-78364038D01*
X96430202Y-78490004D01*
X96220734Y-78576768D01*
X95998365Y-78621000D01*
X95771635Y-78621000D01*
X95549266Y-78576768D01*
X95339798Y-78490004D01*
X95151277Y-78364038D01*
X94990962Y-78203723D01*
X94864996Y-78015202D01*
X94778232Y-77805734D01*
X94734000Y-77583365D01*
X94734000Y-77356635D01*
X94778232Y-77134266D01*
X94864996Y-76924798D01*
X94990962Y-76736277D01*
X95151277Y-76575962D01*
X95339798Y-76449996D01*
X95549266Y-76363232D01*
X95771635Y-76319000D01*
X95998365Y-76319000D01*
X96220734Y-76363232D01*
X96220734Y-76363232D01*
G37*
G36*
X77170734Y-76363232D02*
X77380202Y-76449996D01*
X77568723Y-76575962D01*
X77729038Y-76736277D01*
X77855004Y-76924798D01*
X77941768Y-77134266D01*
X77986000Y-77356635D01*
X77986000Y-77583365D01*
X77941768Y-77805734D01*
X77855004Y-78015202D01*
X77729038Y-78203723D01*
X77568723Y-78364038D01*
X77380202Y-78490004D01*
X77170734Y-78576768D01*
X76948365Y-78621000D01*
X76721635Y-78621000D01*
X76499266Y-78576768D01*
X76289798Y-78490004D01*
X76101277Y-78364038D01*
X75940962Y-78203723D01*
X75814996Y-78015202D01*
X75728232Y-77805734D01*
X75684000Y-77583365D01*
X75684000Y-77356635D01*
X75728232Y-77134266D01*
X75814996Y-76924798D01*
X75940962Y-76736277D01*
X76101277Y-76575962D01*
X76289798Y-76449996D01*
X76499266Y-76363232D01*
X76721635Y-76319000D01*
X76948365Y-76319000D01*
X77170734Y-76363232D01*
X77170734Y-76363232D01*
G37*
G36*
X58120734Y-76363232D02*
X58330202Y-76449996D01*
X58518723Y-76575962D01*
X58679038Y-76736277D01*
X58805004Y-76924798D01*
X58891768Y-77134266D01*
X58936000Y-77356635D01*
X58936000Y-77583365D01*
X58891768Y-77805734D01*
X58805004Y-78015202D01*
X58679038Y-78203723D01*
X58518723Y-78364038D01*
X58330202Y-78490004D01*
X58120734Y-78576768D01*
X57898365Y-78621000D01*
X57671635Y-78621000D01*
X57449266Y-78576768D01*
X57239798Y-78490004D01*
X57051277Y-78364038D01*
X56890962Y-78203723D01*
X56764996Y-78015202D01*
X56678232Y-77805734D01*
X56634000Y-77583365D01*
X56634000Y-77356635D01*
X56678232Y-77134266D01*
X56764996Y-76924798D01*
X56890962Y-76736277D01*
X57051277Y-76575962D01*
X57239798Y-76449996D01*
X57449266Y-76363232D01*
X57671635Y-76319000D01*
X57898365Y-76319000D01*
X58120734Y-76363232D01*
X58120734Y-76363232D01*
G37*
G36*
X52152510Y-76422041D02*
X52276032Y-76434207D01*
X52474146Y-76494305D01*
X52656729Y-76591897D01*
X52816765Y-76723235D01*
X52948103Y-76883271D01*
X53045695Y-77065854D01*
X53105793Y-77263968D01*
X53126085Y-77470000D01*
X53105793Y-77676032D01*
X53045695Y-77874146D01*
X52948103Y-78056729D01*
X52816765Y-78216765D01*
X52656729Y-78348103D01*
X52474146Y-78445695D01*
X52276032Y-78505793D01*
X52152510Y-78517959D01*
X52121631Y-78521000D01*
X52018369Y-78521000D01*
X51987490Y-78517959D01*
X51863968Y-78505793D01*
X51665854Y-78445695D01*
X51483271Y-78348103D01*
X51323235Y-78216765D01*
X51191897Y-78056729D01*
X51094305Y-77874146D01*
X51034207Y-77676032D01*
X51013915Y-77470000D01*
X51034207Y-77263968D01*
X51094305Y-77065854D01*
X51191897Y-76883271D01*
X51323235Y-76723235D01*
X51483271Y-76591897D01*
X51665854Y-76494305D01*
X51863968Y-76434207D01*
X51987490Y-76422041D01*
X52018369Y-76419000D01*
X52121631Y-76419000D01*
X52152510Y-76422041D01*
X52152510Y-76422041D01*
G37*
G36*
X90252510Y-76422041D02*
X90376032Y-76434207D01*
X90574146Y-76494305D01*
X90756729Y-76591897D01*
X90916765Y-76723235D01*
X91048103Y-76883271D01*
X91145695Y-77065854D01*
X91205793Y-77263968D01*
X91226085Y-77470000D01*
X91205793Y-77676032D01*
X91145695Y-77874146D01*
X91048103Y-78056729D01*
X90916765Y-78216765D01*
X90756729Y-78348103D01*
X90574146Y-78445695D01*
X90376032Y-78505793D01*
X90252510Y-78517959D01*
X90221631Y-78521000D01*
X90118369Y-78521000D01*
X90087490Y-78517959D01*
X89963968Y-78505793D01*
X89765854Y-78445695D01*
X89583271Y-78348103D01*
X89423235Y-78216765D01*
X89291897Y-78056729D01*
X89194305Y-77874146D01*
X89134207Y-77676032D01*
X89113915Y-77470000D01*
X89134207Y-77263968D01*
X89194305Y-77065854D01*
X89291897Y-76883271D01*
X89423235Y-76723235D01*
X89583271Y-76591897D01*
X89765854Y-76494305D01*
X89963968Y-76434207D01*
X90087490Y-76422041D01*
X90118369Y-76419000D01*
X90221631Y-76419000D01*
X90252510Y-76422041D01*
X90252510Y-76422041D01*
G37*
G36*
X109302510Y-76422041D02*
X109426032Y-76434207D01*
X109624146Y-76494305D01*
X109806729Y-76591897D01*
X109966765Y-76723235D01*
X110098103Y-76883271D01*
X110195695Y-77065854D01*
X110255793Y-77263968D01*
X110276085Y-77470000D01*
X110255793Y-77676032D01*
X110195695Y-77874146D01*
X110098103Y-78056729D01*
X109966765Y-78216765D01*
X109806729Y-78348103D01*
X109624146Y-78445695D01*
X109426032Y-78505793D01*
X109302510Y-78517959D01*
X109271631Y-78521000D01*
X109168369Y-78521000D01*
X109137490Y-78517959D01*
X109013968Y-78505793D01*
X108815854Y-78445695D01*
X108633271Y-78348103D01*
X108473235Y-78216765D01*
X108341897Y-78056729D01*
X108244305Y-77874146D01*
X108184207Y-77676032D01*
X108163915Y-77470000D01*
X108184207Y-77263968D01*
X108244305Y-77065854D01*
X108341897Y-76883271D01*
X108473235Y-76723235D01*
X108633271Y-76591897D01*
X108815854Y-76494305D01*
X109013968Y-76434207D01*
X109137490Y-76422041D01*
X109168369Y-76419000D01*
X109271631Y-76419000D01*
X109302510Y-76422041D01*
X109302510Y-76422041D01*
G37*
G36*
X71202510Y-76422041D02*
X71326032Y-76434207D01*
X71524146Y-76494305D01*
X71706729Y-76591897D01*
X71866765Y-76723235D01*
X71998103Y-76883271D01*
X72095695Y-77065854D01*
X72155793Y-77263968D01*
X72176085Y-77470000D01*
X72155793Y-77676032D01*
X72095695Y-77874146D01*
X71998103Y-78056729D01*
X71866765Y-78216765D01*
X71706729Y-78348103D01*
X71524146Y-78445695D01*
X71326032Y-78505793D01*
X71202510Y-78517959D01*
X71171631Y-78521000D01*
X71068369Y-78521000D01*
X71037490Y-78517959D01*
X70913968Y-78505793D01*
X70715854Y-78445695D01*
X70533271Y-78348103D01*
X70373235Y-78216765D01*
X70241897Y-78056729D01*
X70144305Y-77874146D01*
X70084207Y-77676032D01*
X70063915Y-77470000D01*
X70084207Y-77263968D01*
X70144305Y-77065854D01*
X70241897Y-76883271D01*
X70373235Y-76723235D01*
X70533271Y-76591897D01*
X70715854Y-76494305D01*
X70913968Y-76434207D01*
X71037490Y-76422041D01*
X71068369Y-76419000D01*
X71171631Y-76419000D01*
X71202510Y-76422041D01*
X71202510Y-76422041D01*
G37*
G36*
X64470734Y-73823232D02*
X64680202Y-73909996D01*
X64868723Y-74035962D01*
X65029038Y-74196277D01*
X65155004Y-74384798D01*
X65241768Y-74594266D01*
X65286000Y-74816635D01*
X65286000Y-75043365D01*
X65241768Y-75265734D01*
X65155004Y-75475202D01*
X65029038Y-75663723D01*
X64868723Y-75824038D01*
X64680202Y-75950004D01*
X64470734Y-76036768D01*
X64248365Y-76081000D01*
X64021635Y-76081000D01*
X63799266Y-76036768D01*
X63589798Y-75950004D01*
X63401277Y-75824038D01*
X63240962Y-75663723D01*
X63114996Y-75475202D01*
X63028232Y-75265734D01*
X62984000Y-75043365D01*
X62984000Y-74816635D01*
X63028232Y-74594266D01*
X63114996Y-74384798D01*
X63240962Y-74196277D01*
X63401277Y-74035962D01*
X63589798Y-73909996D01*
X63799266Y-73823232D01*
X64021635Y-73779000D01*
X64248365Y-73779000D01*
X64470734Y-73823232D01*
X64470734Y-73823232D01*
G37*
G36*
X83520734Y-73823232D02*
X83730202Y-73909996D01*
X83918723Y-74035962D01*
X84079038Y-74196277D01*
X84205004Y-74384798D01*
X84291768Y-74594266D01*
X84336000Y-74816635D01*
X84336000Y-75043365D01*
X84291768Y-75265734D01*
X84205004Y-75475202D01*
X84079038Y-75663723D01*
X83918723Y-75824038D01*
X83730202Y-75950004D01*
X83520734Y-76036768D01*
X83298365Y-76081000D01*
X83071635Y-76081000D01*
X82849266Y-76036768D01*
X82639798Y-75950004D01*
X82451277Y-75824038D01*
X82290962Y-75663723D01*
X82164996Y-75475202D01*
X82078232Y-75265734D01*
X82034000Y-75043365D01*
X82034000Y-74816635D01*
X82078232Y-74594266D01*
X82164996Y-74384798D01*
X82290962Y-74196277D01*
X82451277Y-74035962D01*
X82639798Y-73909996D01*
X82849266Y-73823232D01*
X83071635Y-73779000D01*
X83298365Y-73779000D01*
X83520734Y-73823232D01*
X83520734Y-73823232D01*
G37*
G36*
X102570734Y-73823232D02*
X102780202Y-73909996D01*
X102968723Y-74035962D01*
X103129038Y-74196277D01*
X103255004Y-74384798D01*
X103341768Y-74594266D01*
X103386000Y-74816635D01*
X103386000Y-75043365D01*
X103341768Y-75265734D01*
X103255004Y-75475202D01*
X103129038Y-75663723D01*
X102968723Y-75824038D01*
X102780202Y-75950004D01*
X102570734Y-76036768D01*
X102348365Y-76081000D01*
X102121635Y-76081000D01*
X101899266Y-76036768D01*
X101689798Y-75950004D01*
X101501277Y-75824038D01*
X101340962Y-75663723D01*
X101214996Y-75475202D01*
X101128232Y-75265734D01*
X101084000Y-75043365D01*
X101084000Y-74816635D01*
X101128232Y-74594266D01*
X101214996Y-74384798D01*
X101340962Y-74196277D01*
X101501277Y-74035962D01*
X101689798Y-73909996D01*
X101899266Y-73823232D01*
X102121635Y-73779000D01*
X102348365Y-73779000D01*
X102570734Y-73823232D01*
X102570734Y-73823232D01*
G37*
G36*
X121620734Y-73823232D02*
X121830202Y-73909996D01*
X122018723Y-74035962D01*
X122179038Y-74196277D01*
X122305004Y-74384798D01*
X122391768Y-74594266D01*
X122436000Y-74816635D01*
X122436000Y-75043365D01*
X122391768Y-75265734D01*
X122305004Y-75475202D01*
X122179038Y-75663723D01*
X122018723Y-75824038D01*
X121830202Y-75950004D01*
X121620734Y-76036768D01*
X121398365Y-76081000D01*
X121171635Y-76081000D01*
X120949266Y-76036768D01*
X120739798Y-75950004D01*
X120551277Y-75824038D01*
X120390962Y-75663723D01*
X120264996Y-75475202D01*
X120178232Y-75265734D01*
X120134000Y-75043365D01*
X120134000Y-74816635D01*
X120178232Y-74594266D01*
X120264996Y-74384798D01*
X120390962Y-74196277D01*
X120551277Y-74035962D01*
X120739798Y-73909996D01*
X120949266Y-73823232D01*
X121171635Y-73779000D01*
X121398365Y-73779000D01*
X121620734Y-73823232D01*
X121620734Y-73823232D01*
G37*
G36*
X71368228Y-65221703D02*
X71523100Y-65285853D01*
X71662481Y-65378985D01*
X71781015Y-65497519D01*
X71874147Y-65636900D01*
X71938297Y-65791772D01*
X71971000Y-65956184D01*
X71971000Y-66123816D01*
X71938297Y-66288228D01*
X71874147Y-66443100D01*
X71781015Y-66582481D01*
X71662481Y-66701015D01*
X71523100Y-66794147D01*
X71368228Y-66858297D01*
X71203816Y-66891000D01*
X71036184Y-66891000D01*
X70871772Y-66858297D01*
X70716900Y-66794147D01*
X70577519Y-66701015D01*
X70458985Y-66582481D01*
X70365853Y-66443100D01*
X70301703Y-66288228D01*
X70269000Y-66123816D01*
X70269000Y-65956184D01*
X70301703Y-65791772D01*
X70365853Y-65636900D01*
X70458985Y-65497519D01*
X70577519Y-65378985D01*
X70716900Y-65285853D01*
X70871772Y-65221703D01*
X71036184Y-65189000D01*
X71203816Y-65189000D01*
X71368228Y-65221703D01*
X71368228Y-65221703D01*
G37*
G36*
X73908228Y-65221703D02*
X74063100Y-65285853D01*
X74202481Y-65378985D01*
X74321015Y-65497519D01*
X74414147Y-65636900D01*
X74478297Y-65791772D01*
X74511000Y-65956184D01*
X74511000Y-66123816D01*
X74478297Y-66288228D01*
X74414147Y-66443100D01*
X74321015Y-66582481D01*
X74202481Y-66701015D01*
X74063100Y-66794147D01*
X73908228Y-66858297D01*
X73743816Y-66891000D01*
X73576184Y-66891000D01*
X73411772Y-66858297D01*
X73256900Y-66794147D01*
X73117519Y-66701015D01*
X72998985Y-66582481D01*
X72905853Y-66443100D01*
X72841703Y-66288228D01*
X72809000Y-66123816D01*
X72809000Y-65956184D01*
X72841703Y-65791772D01*
X72905853Y-65636900D01*
X72998985Y-65497519D01*
X73117519Y-65378985D01*
X73256900Y-65285853D01*
X73411772Y-65221703D01*
X73576184Y-65189000D01*
X73743816Y-65189000D01*
X73908228Y-65221703D01*
X73908228Y-65221703D01*
G37*
G36*
X53588228Y-65221703D02*
X53743100Y-65285853D01*
X53882481Y-65378985D01*
X54001015Y-65497519D01*
X54094147Y-65636900D01*
X54158297Y-65791772D01*
X54191000Y-65956184D01*
X54191000Y-66123816D01*
X54158297Y-66288228D01*
X54094147Y-66443100D01*
X54001015Y-66582481D01*
X53882481Y-66701015D01*
X53743100Y-66794147D01*
X53588228Y-66858297D01*
X53423816Y-66891000D01*
X53256184Y-66891000D01*
X53091772Y-66858297D01*
X52936900Y-66794147D01*
X52797519Y-66701015D01*
X52678985Y-66582481D01*
X52585853Y-66443100D01*
X52521703Y-66288228D01*
X52489000Y-66123816D01*
X52489000Y-65956184D01*
X52521703Y-65791772D01*
X52585853Y-65636900D01*
X52678985Y-65497519D01*
X52797519Y-65378985D01*
X52936900Y-65285853D01*
X53091772Y-65221703D01*
X53256184Y-65189000D01*
X53423816Y-65189000D01*
X53588228Y-65221703D01*
X53588228Y-65221703D01*
G37*
G36*
X56128228Y-65221703D02*
X56283100Y-65285853D01*
X56422481Y-65378985D01*
X56541015Y-65497519D01*
X56634147Y-65636900D01*
X56698297Y-65791772D01*
X56731000Y-65956184D01*
X56731000Y-66123816D01*
X56698297Y-66288228D01*
X56634147Y-66443100D01*
X56541015Y-66582481D01*
X56422481Y-66701015D01*
X56283100Y-66794147D01*
X56128228Y-66858297D01*
X55963816Y-66891000D01*
X55796184Y-66891000D01*
X55631772Y-66858297D01*
X55476900Y-66794147D01*
X55337519Y-66701015D01*
X55218985Y-66582481D01*
X55125853Y-66443100D01*
X55061703Y-66288228D01*
X55029000Y-66123816D01*
X55029000Y-65956184D01*
X55061703Y-65791772D01*
X55125853Y-65636900D01*
X55218985Y-65497519D01*
X55337519Y-65378985D01*
X55476900Y-65285853D01*
X55631772Y-65221703D01*
X55796184Y-65189000D01*
X55963816Y-65189000D01*
X56128228Y-65221703D01*
X56128228Y-65221703D01*
G37*
G36*
X58668228Y-65221703D02*
X58823100Y-65285853D01*
X58962481Y-65378985D01*
X59081015Y-65497519D01*
X59174147Y-65636900D01*
X59238297Y-65791772D01*
X59271000Y-65956184D01*
X59271000Y-66123816D01*
X59238297Y-66288228D01*
X59174147Y-66443100D01*
X59081015Y-66582481D01*
X58962481Y-66701015D01*
X58823100Y-66794147D01*
X58668228Y-66858297D01*
X58503816Y-66891000D01*
X58336184Y-66891000D01*
X58171772Y-66858297D01*
X58016900Y-66794147D01*
X57877519Y-66701015D01*
X57758985Y-66582481D01*
X57665853Y-66443100D01*
X57601703Y-66288228D01*
X57569000Y-66123816D01*
X57569000Y-65956184D01*
X57601703Y-65791772D01*
X57665853Y-65636900D01*
X57758985Y-65497519D01*
X57877519Y-65378985D01*
X58016900Y-65285853D01*
X58171772Y-65221703D01*
X58336184Y-65189000D01*
X58503816Y-65189000D01*
X58668228Y-65221703D01*
X58668228Y-65221703D01*
G37*
G36*
X61208228Y-65221703D02*
X61363100Y-65285853D01*
X61502481Y-65378985D01*
X61621015Y-65497519D01*
X61714147Y-65636900D01*
X61778297Y-65791772D01*
X61811000Y-65956184D01*
X61811000Y-66123816D01*
X61778297Y-66288228D01*
X61714147Y-66443100D01*
X61621015Y-66582481D01*
X61502481Y-66701015D01*
X61363100Y-66794147D01*
X61208228Y-66858297D01*
X61043816Y-66891000D01*
X60876184Y-66891000D01*
X60711772Y-66858297D01*
X60556900Y-66794147D01*
X60417519Y-66701015D01*
X60298985Y-66582481D01*
X60205853Y-66443100D01*
X60141703Y-66288228D01*
X60109000Y-66123816D01*
X60109000Y-65956184D01*
X60141703Y-65791772D01*
X60205853Y-65636900D01*
X60298985Y-65497519D01*
X60417519Y-65378985D01*
X60556900Y-65285853D01*
X60711772Y-65221703D01*
X60876184Y-65189000D01*
X61043816Y-65189000D01*
X61208228Y-65221703D01*
X61208228Y-65221703D01*
G37*
G36*
X66288228Y-65221703D02*
X66443100Y-65285853D01*
X66582481Y-65378985D01*
X66701015Y-65497519D01*
X66794147Y-65636900D01*
X66858297Y-65791772D01*
X66891000Y-65956184D01*
X66891000Y-66123816D01*
X66858297Y-66288228D01*
X66794147Y-66443100D01*
X66701015Y-66582481D01*
X66582481Y-66701015D01*
X66443100Y-66794147D01*
X66288228Y-66858297D01*
X66123816Y-66891000D01*
X65956184Y-66891000D01*
X65791772Y-66858297D01*
X65636900Y-66794147D01*
X65497519Y-66701015D01*
X65378985Y-66582481D01*
X65285853Y-66443100D01*
X65221703Y-66288228D01*
X65189000Y-66123816D01*
X65189000Y-65956184D01*
X65221703Y-65791772D01*
X65285853Y-65636900D01*
X65378985Y-65497519D01*
X65497519Y-65378985D01*
X65636900Y-65285853D01*
X65791772Y-65221703D01*
X65956184Y-65189000D01*
X66123816Y-65189000D01*
X66288228Y-65221703D01*
X66288228Y-65221703D01*
G37*
G36*
X51651000Y-66891000D02*
X49949000Y-66891000D01*
X49949000Y-65189000D01*
X51651000Y-65189000D01*
X51651000Y-66891000D01*
X51651000Y-66891000D01*
G37*
G36*
X78988228Y-65221703D02*
X79143100Y-65285853D01*
X79282481Y-65378985D01*
X79401015Y-65497519D01*
X79494147Y-65636900D01*
X79558297Y-65791772D01*
X79591000Y-65956184D01*
X79591000Y-66123816D01*
X79558297Y-66288228D01*
X79494147Y-66443100D01*
X79401015Y-66582481D01*
X79282481Y-66701015D01*
X79143100Y-66794147D01*
X78988228Y-66858297D01*
X78823816Y-66891000D01*
X78656184Y-66891000D01*
X78491772Y-66858297D01*
X78336900Y-66794147D01*
X78197519Y-66701015D01*
X78078985Y-66582481D01*
X77985853Y-66443100D01*
X77921703Y-66288228D01*
X77889000Y-66123816D01*
X77889000Y-65956184D01*
X77921703Y-65791772D01*
X77985853Y-65636900D01*
X78078985Y-65497519D01*
X78197519Y-65378985D01*
X78336900Y-65285853D01*
X78491772Y-65221703D01*
X78656184Y-65189000D01*
X78823816Y-65189000D01*
X78988228Y-65221703D01*
X78988228Y-65221703D01*
G37*
G36*
X76448228Y-65221703D02*
X76603100Y-65285853D01*
X76742481Y-65378985D01*
X76861015Y-65497519D01*
X76954147Y-65636900D01*
X77018297Y-65791772D01*
X77051000Y-65956184D01*
X77051000Y-66123816D01*
X77018297Y-66288228D01*
X76954147Y-66443100D01*
X76861015Y-66582481D01*
X76742481Y-66701015D01*
X76603100Y-66794147D01*
X76448228Y-66858297D01*
X76283816Y-66891000D01*
X76116184Y-66891000D01*
X75951772Y-66858297D01*
X75796900Y-66794147D01*
X75657519Y-66701015D01*
X75538985Y-66582481D01*
X75445853Y-66443100D01*
X75381703Y-66288228D01*
X75349000Y-66123816D01*
X75349000Y-65956184D01*
X75381703Y-65791772D01*
X75445853Y-65636900D01*
X75538985Y-65497519D01*
X75657519Y-65378985D01*
X75796900Y-65285853D01*
X75951772Y-65221703D01*
X76116184Y-65189000D01*
X76283816Y-65189000D01*
X76448228Y-65221703D01*
X76448228Y-65221703D01*
G37*
G36*
X68828228Y-65221703D02*
X68983100Y-65285853D01*
X69122481Y-65378985D01*
X69241015Y-65497519D01*
X69334147Y-65636900D01*
X69398297Y-65791772D01*
X69431000Y-65956184D01*
X69431000Y-66123816D01*
X69398297Y-66288228D01*
X69334147Y-66443100D01*
X69241015Y-66582481D01*
X69122481Y-66701015D01*
X68983100Y-66794147D01*
X68828228Y-66858297D01*
X68663816Y-66891000D01*
X68496184Y-66891000D01*
X68331772Y-66858297D01*
X68176900Y-66794147D01*
X68037519Y-66701015D01*
X67918985Y-66582481D01*
X67825853Y-66443100D01*
X67761703Y-66288228D01*
X67729000Y-66123816D01*
X67729000Y-65956184D01*
X67761703Y-65791772D01*
X67825853Y-65636900D01*
X67918985Y-65497519D01*
X68037519Y-65378985D01*
X68176900Y-65285853D01*
X68331772Y-65221703D01*
X68496184Y-65189000D01*
X68663816Y-65189000D01*
X68828228Y-65221703D01*
X68828228Y-65221703D01*
G37*
G36*
X63748228Y-65221703D02*
X63903100Y-65285853D01*
X64042481Y-65378985D01*
X64161015Y-65497519D01*
X64254147Y-65636900D01*
X64318297Y-65791772D01*
X64351000Y-65956184D01*
X64351000Y-66123816D01*
X64318297Y-66288228D01*
X64254147Y-66443100D01*
X64161015Y-66582481D01*
X64042481Y-66701015D01*
X63903100Y-66794147D01*
X63748228Y-66858297D01*
X63583816Y-66891000D01*
X63416184Y-66891000D01*
X63251772Y-66858297D01*
X63096900Y-66794147D01*
X62957519Y-66701015D01*
X62838985Y-66582481D01*
X62745853Y-66443100D01*
X62681703Y-66288228D01*
X62649000Y-66123816D01*
X62649000Y-65956184D01*
X62681703Y-65791772D01*
X62745853Y-65636900D01*
X62838985Y-65497519D01*
X62957519Y-65378985D01*
X63096900Y-65285853D01*
X63251772Y-65221703D01*
X63416184Y-65189000D01*
X63583816Y-65189000D01*
X63748228Y-65221703D01*
X63748228Y-65221703D01*
G37*
G36*
X85958643Y-60189781D02*
X86104415Y-60250162D01*
X86235611Y-60337824D01*
X86347176Y-60449389D01*
X86434838Y-60580585D01*
X86495219Y-60726357D01*
X86526000Y-60881107D01*
X86526000Y-61038893D01*
X86495219Y-61193643D01*
X86434838Y-61339415D01*
X86347176Y-61470611D01*
X86235611Y-61582176D01*
X86104415Y-61669838D01*
X85958643Y-61730219D01*
X85803893Y-61761000D01*
X85646107Y-61761000D01*
X85491357Y-61730219D01*
X85345585Y-61669838D01*
X85214389Y-61582176D01*
X85102824Y-61470611D01*
X85015162Y-61339415D01*
X84954781Y-61193643D01*
X84924000Y-61038893D01*
X84924000Y-60881107D01*
X84954781Y-60726357D01*
X85015162Y-60580585D01*
X85102824Y-60449389D01*
X85214389Y-60337824D01*
X85345585Y-60250162D01*
X85491357Y-60189781D01*
X85646107Y-60159000D01*
X85803893Y-60159000D01*
X85958643Y-60189781D01*
X85958643Y-60189781D01*
G37*
G36*
X85958643Y-55109781D02*
X86104415Y-55170162D01*
X86235611Y-55257824D01*
X86347176Y-55369389D01*
X86434838Y-55500585D01*
X86495219Y-55646357D01*
X86526000Y-55801107D01*
X86526000Y-55958893D01*
X86495219Y-56113643D01*
X86434838Y-56259415D01*
X86347176Y-56390611D01*
X86235611Y-56502176D01*
X86104415Y-56589838D01*
X85958643Y-56650219D01*
X85803893Y-56681000D01*
X85646107Y-56681000D01*
X85491357Y-56650219D01*
X85345585Y-56589838D01*
X85214389Y-56502176D01*
X85102824Y-56390611D01*
X85015162Y-56259415D01*
X84954781Y-56113643D01*
X84924000Y-55958893D01*
X84924000Y-55801107D01*
X84954781Y-55646357D01*
X85015162Y-55500585D01*
X85102824Y-55369389D01*
X85214389Y-55257824D01*
X85345585Y-55170162D01*
X85491357Y-55109781D01*
X85646107Y-55079000D01*
X85803893Y-55079000D01*
X85958643Y-55109781D01*
X85958643Y-55109781D01*
G37*
G36*
X61208228Y-49981703D02*
X61363100Y-50045853D01*
X61502481Y-50138985D01*
X61621015Y-50257519D01*
X61714147Y-50396900D01*
X61778297Y-50551772D01*
X61811000Y-50716184D01*
X61811000Y-50883816D01*
X61778297Y-51048228D01*
X61714147Y-51203100D01*
X61621015Y-51342481D01*
X61502481Y-51461015D01*
X61363100Y-51554147D01*
X61208228Y-51618297D01*
X61043816Y-51651000D01*
X60876184Y-51651000D01*
X60711772Y-51618297D01*
X60556900Y-51554147D01*
X60417519Y-51461015D01*
X60298985Y-51342481D01*
X60205853Y-51203100D01*
X60141703Y-51048228D01*
X60109000Y-50883816D01*
X60109000Y-50716184D01*
X60141703Y-50551772D01*
X60205853Y-50396900D01*
X60298985Y-50257519D01*
X60417519Y-50138985D01*
X60556900Y-50045853D01*
X60711772Y-49981703D01*
X60876184Y-49949000D01*
X61043816Y-49949000D01*
X61208228Y-49981703D01*
X61208228Y-49981703D01*
G37*
G36*
X71368228Y-49981703D02*
X71523100Y-50045853D01*
X71662481Y-50138985D01*
X71781015Y-50257519D01*
X71874147Y-50396900D01*
X71938297Y-50551772D01*
X71971000Y-50716184D01*
X71971000Y-50883816D01*
X71938297Y-51048228D01*
X71874147Y-51203100D01*
X71781015Y-51342481D01*
X71662481Y-51461015D01*
X71523100Y-51554147D01*
X71368228Y-51618297D01*
X71203816Y-51651000D01*
X71036184Y-51651000D01*
X70871772Y-51618297D01*
X70716900Y-51554147D01*
X70577519Y-51461015D01*
X70458985Y-51342481D01*
X70365853Y-51203100D01*
X70301703Y-51048228D01*
X70269000Y-50883816D01*
X70269000Y-50716184D01*
X70301703Y-50551772D01*
X70365853Y-50396900D01*
X70458985Y-50257519D01*
X70577519Y-50138985D01*
X70716900Y-50045853D01*
X70871772Y-49981703D01*
X71036184Y-49949000D01*
X71203816Y-49949000D01*
X71368228Y-49981703D01*
X71368228Y-49981703D01*
G37*
G36*
X73908228Y-49981703D02*
X74063100Y-50045853D01*
X74202481Y-50138985D01*
X74321015Y-50257519D01*
X74414147Y-50396900D01*
X74478297Y-50551772D01*
X74511000Y-50716184D01*
X74511000Y-50883816D01*
X74478297Y-51048228D01*
X74414147Y-51203100D01*
X74321015Y-51342481D01*
X74202481Y-51461015D01*
X74063100Y-51554147D01*
X73908228Y-51618297D01*
X73743816Y-51651000D01*
X73576184Y-51651000D01*
X73411772Y-51618297D01*
X73256900Y-51554147D01*
X73117519Y-51461015D01*
X72998985Y-51342481D01*
X72905853Y-51203100D01*
X72841703Y-51048228D01*
X72809000Y-50883816D01*
X72809000Y-50716184D01*
X72841703Y-50551772D01*
X72905853Y-50396900D01*
X72998985Y-50257519D01*
X73117519Y-50138985D01*
X73256900Y-50045853D01*
X73411772Y-49981703D01*
X73576184Y-49949000D01*
X73743816Y-49949000D01*
X73908228Y-49981703D01*
X73908228Y-49981703D01*
G37*
G36*
X76448228Y-49981703D02*
X76603100Y-50045853D01*
X76742481Y-50138985D01*
X76861015Y-50257519D01*
X76954147Y-50396900D01*
X77018297Y-50551772D01*
X77051000Y-50716184D01*
X77051000Y-50883816D01*
X77018297Y-51048228D01*
X76954147Y-51203100D01*
X76861015Y-51342481D01*
X76742481Y-51461015D01*
X76603100Y-51554147D01*
X76448228Y-51618297D01*
X76283816Y-51651000D01*
X76116184Y-51651000D01*
X75951772Y-51618297D01*
X75796900Y-51554147D01*
X75657519Y-51461015D01*
X75538985Y-51342481D01*
X75445853Y-51203100D01*
X75381703Y-51048228D01*
X75349000Y-50883816D01*
X75349000Y-50716184D01*
X75381703Y-50551772D01*
X75445853Y-50396900D01*
X75538985Y-50257519D01*
X75657519Y-50138985D01*
X75796900Y-50045853D01*
X75951772Y-49981703D01*
X76116184Y-49949000D01*
X76283816Y-49949000D01*
X76448228Y-49981703D01*
X76448228Y-49981703D01*
G37*
G36*
X78988228Y-49981703D02*
X79143100Y-50045853D01*
X79282481Y-50138985D01*
X79401015Y-50257519D01*
X79494147Y-50396900D01*
X79558297Y-50551772D01*
X79591000Y-50716184D01*
X79591000Y-50883816D01*
X79558297Y-51048228D01*
X79494147Y-51203100D01*
X79401015Y-51342481D01*
X79282481Y-51461015D01*
X79143100Y-51554147D01*
X78988228Y-51618297D01*
X78823816Y-51651000D01*
X78656184Y-51651000D01*
X78491772Y-51618297D01*
X78336900Y-51554147D01*
X78197519Y-51461015D01*
X78078985Y-51342481D01*
X77985853Y-51203100D01*
X77921703Y-51048228D01*
X77889000Y-50883816D01*
X77889000Y-50716184D01*
X77921703Y-50551772D01*
X77985853Y-50396900D01*
X78078985Y-50257519D01*
X78197519Y-50138985D01*
X78336900Y-50045853D01*
X78491772Y-49981703D01*
X78656184Y-49949000D01*
X78823816Y-49949000D01*
X78988228Y-49981703D01*
X78988228Y-49981703D01*
G37*
G36*
X58668228Y-49981703D02*
X58823100Y-50045853D01*
X58962481Y-50138985D01*
X59081015Y-50257519D01*
X59174147Y-50396900D01*
X59238297Y-50551772D01*
X59271000Y-50716184D01*
X59271000Y-50883816D01*
X59238297Y-51048228D01*
X59174147Y-51203100D01*
X59081015Y-51342481D01*
X58962481Y-51461015D01*
X58823100Y-51554147D01*
X58668228Y-51618297D01*
X58503816Y-51651000D01*
X58336184Y-51651000D01*
X58171772Y-51618297D01*
X58016900Y-51554147D01*
X57877519Y-51461015D01*
X57758985Y-51342481D01*
X57665853Y-51203100D01*
X57601703Y-51048228D01*
X57569000Y-50883816D01*
X57569000Y-50716184D01*
X57601703Y-50551772D01*
X57665853Y-50396900D01*
X57758985Y-50257519D01*
X57877519Y-50138985D01*
X58016900Y-50045853D01*
X58171772Y-49981703D01*
X58336184Y-49949000D01*
X58503816Y-49949000D01*
X58668228Y-49981703D01*
X58668228Y-49981703D01*
G37*
G36*
X56128228Y-49981703D02*
X56283100Y-50045853D01*
X56422481Y-50138985D01*
X56541015Y-50257519D01*
X56634147Y-50396900D01*
X56698297Y-50551772D01*
X56731000Y-50716184D01*
X56731000Y-50883816D01*
X56698297Y-51048228D01*
X56634147Y-51203100D01*
X56541015Y-51342481D01*
X56422481Y-51461015D01*
X56283100Y-51554147D01*
X56128228Y-51618297D01*
X55963816Y-51651000D01*
X55796184Y-51651000D01*
X55631772Y-51618297D01*
X55476900Y-51554147D01*
X55337519Y-51461015D01*
X55218985Y-51342481D01*
X55125853Y-51203100D01*
X55061703Y-51048228D01*
X55029000Y-50883816D01*
X55029000Y-50716184D01*
X55061703Y-50551772D01*
X55125853Y-50396900D01*
X55218985Y-50257519D01*
X55337519Y-50138985D01*
X55476900Y-50045853D01*
X55631772Y-49981703D01*
X55796184Y-49949000D01*
X55963816Y-49949000D01*
X56128228Y-49981703D01*
X56128228Y-49981703D01*
G37*
G36*
X53588228Y-49981703D02*
X53743100Y-50045853D01*
X53882481Y-50138985D01*
X54001015Y-50257519D01*
X54094147Y-50396900D01*
X54158297Y-50551772D01*
X54191000Y-50716184D01*
X54191000Y-50883816D01*
X54158297Y-51048228D01*
X54094147Y-51203100D01*
X54001015Y-51342481D01*
X53882481Y-51461015D01*
X53743100Y-51554147D01*
X53588228Y-51618297D01*
X53423816Y-51651000D01*
X53256184Y-51651000D01*
X53091772Y-51618297D01*
X52936900Y-51554147D01*
X52797519Y-51461015D01*
X52678985Y-51342481D01*
X52585853Y-51203100D01*
X52521703Y-51048228D01*
X52489000Y-50883816D01*
X52489000Y-50716184D01*
X52521703Y-50551772D01*
X52585853Y-50396900D01*
X52678985Y-50257519D01*
X52797519Y-50138985D01*
X52936900Y-50045853D01*
X53091772Y-49981703D01*
X53256184Y-49949000D01*
X53423816Y-49949000D01*
X53588228Y-49981703D01*
X53588228Y-49981703D01*
G37*
G36*
X51048228Y-49981703D02*
X51203100Y-50045853D01*
X51342481Y-50138985D01*
X51461015Y-50257519D01*
X51554147Y-50396900D01*
X51618297Y-50551772D01*
X51651000Y-50716184D01*
X51651000Y-50883816D01*
X51618297Y-51048228D01*
X51554147Y-51203100D01*
X51461015Y-51342481D01*
X51342481Y-51461015D01*
X51203100Y-51554147D01*
X51048228Y-51618297D01*
X50883816Y-51651000D01*
X50716184Y-51651000D01*
X50551772Y-51618297D01*
X50396900Y-51554147D01*
X50257519Y-51461015D01*
X50138985Y-51342481D01*
X50045853Y-51203100D01*
X49981703Y-51048228D01*
X49949000Y-50883816D01*
X49949000Y-50716184D01*
X49981703Y-50551772D01*
X50045853Y-50396900D01*
X50138985Y-50257519D01*
X50257519Y-50138985D01*
X50396900Y-50045853D01*
X50551772Y-49981703D01*
X50716184Y-49949000D01*
X50883816Y-49949000D01*
X51048228Y-49981703D01*
X51048228Y-49981703D01*
G37*
G36*
X63748228Y-49981703D02*
X63903100Y-50045853D01*
X64042481Y-50138985D01*
X64161015Y-50257519D01*
X64254147Y-50396900D01*
X64318297Y-50551772D01*
X64351000Y-50716184D01*
X64351000Y-50883816D01*
X64318297Y-51048228D01*
X64254147Y-51203100D01*
X64161015Y-51342481D01*
X64042481Y-51461015D01*
X63903100Y-51554147D01*
X63748228Y-51618297D01*
X63583816Y-51651000D01*
X63416184Y-51651000D01*
X63251772Y-51618297D01*
X63096900Y-51554147D01*
X62957519Y-51461015D01*
X62838985Y-51342481D01*
X62745853Y-51203100D01*
X62681703Y-51048228D01*
X62649000Y-50883816D01*
X62649000Y-50716184D01*
X62681703Y-50551772D01*
X62745853Y-50396900D01*
X62838985Y-50257519D01*
X62957519Y-50138985D01*
X63096900Y-50045853D01*
X63251772Y-49981703D01*
X63416184Y-49949000D01*
X63583816Y-49949000D01*
X63748228Y-49981703D01*
X63748228Y-49981703D01*
G37*
G36*
X66288228Y-49981703D02*
X66443100Y-50045853D01*
X66582481Y-50138985D01*
X66701015Y-50257519D01*
X66794147Y-50396900D01*
X66858297Y-50551772D01*
X66891000Y-50716184D01*
X66891000Y-50883816D01*
X66858297Y-51048228D01*
X66794147Y-51203100D01*
X66701015Y-51342481D01*
X66582481Y-51461015D01*
X66443100Y-51554147D01*
X66288228Y-51618297D01*
X66123816Y-51651000D01*
X65956184Y-51651000D01*
X65791772Y-51618297D01*
X65636900Y-51554147D01*
X65497519Y-51461015D01*
X65378985Y-51342481D01*
X65285853Y-51203100D01*
X65221703Y-51048228D01*
X65189000Y-50883816D01*
X65189000Y-50716184D01*
X65221703Y-50551772D01*
X65285853Y-50396900D01*
X65378985Y-50257519D01*
X65497519Y-50138985D01*
X65636900Y-50045853D01*
X65791772Y-49981703D01*
X65956184Y-49949000D01*
X66123816Y-49949000D01*
X66288228Y-49981703D01*
X66288228Y-49981703D01*
G37*
G36*
X68828228Y-49981703D02*
X68983100Y-50045853D01*
X69122481Y-50138985D01*
X69241015Y-50257519D01*
X69334147Y-50396900D01*
X69398297Y-50551772D01*
X69431000Y-50716184D01*
X69431000Y-50883816D01*
X69398297Y-51048228D01*
X69334147Y-51203100D01*
X69241015Y-51342481D01*
X69122481Y-51461015D01*
X68983100Y-51554147D01*
X68828228Y-51618297D01*
X68663816Y-51651000D01*
X68496184Y-51651000D01*
X68331772Y-51618297D01*
X68176900Y-51554147D01*
X68037519Y-51461015D01*
X67918985Y-51342481D01*
X67825853Y-51203100D01*
X67761703Y-51048228D01*
X67729000Y-50883816D01*
X67729000Y-50716184D01*
X67761703Y-50551772D01*
X67825853Y-50396900D01*
X67918985Y-50257519D01*
X68037519Y-50138985D01*
X68176900Y-50045853D01*
X68331772Y-49981703D01*
X68496184Y-49949000D01*
X68663816Y-49949000D01*
X68828228Y-49981703D01*
X68828228Y-49981703D01*
G37*
G36*
X132415734Y-43343232D02*
X132625202Y-43429996D01*
X132813723Y-43555962D01*
X132974038Y-43716277D01*
X133100004Y-43904798D01*
X133186768Y-44114266D01*
X133231000Y-44336635D01*
X133231000Y-44563365D01*
X133186768Y-44785734D01*
X133100004Y-44995202D01*
X132974038Y-45183723D01*
X132813723Y-45344038D01*
X132625202Y-45470004D01*
X132415734Y-45556768D01*
X132193365Y-45601000D01*
X131966635Y-45601000D01*
X131744266Y-45556768D01*
X131534798Y-45470004D01*
X131346277Y-45344038D01*
X131185962Y-45183723D01*
X131059996Y-44995202D01*
X130973232Y-44785734D01*
X130929000Y-44563365D01*
X130929000Y-44336635D01*
X130973232Y-44114266D01*
X131059996Y-43904798D01*
X131185962Y-43716277D01*
X131346277Y-43555962D01*
X131534798Y-43429996D01*
X131744266Y-43343232D01*
X131966635Y-43299000D01*
X132193365Y-43299000D01*
X132415734Y-43343232D01*
X132415734Y-43343232D01*
G37*
G36*
X48595734Y-43343232D02*
X48805202Y-43429996D01*
X48993723Y-43555962D01*
X49154038Y-43716277D01*
X49280004Y-43904798D01*
X49366768Y-44114266D01*
X49411000Y-44336635D01*
X49411000Y-44563365D01*
X49366768Y-44785734D01*
X49280004Y-44995202D01*
X49154038Y-45183723D01*
X48993723Y-45344038D01*
X48805202Y-45470004D01*
X48595734Y-45556768D01*
X48373365Y-45601000D01*
X48146635Y-45601000D01*
X47924266Y-45556768D01*
X47714798Y-45470004D01*
X47526277Y-45344038D01*
X47365962Y-45183723D01*
X47239996Y-44995202D01*
X47153232Y-44785734D01*
X47109000Y-44563365D01*
X47109000Y-44336635D01*
X47153232Y-44114266D01*
X47239996Y-43904798D01*
X47365962Y-43716277D01*
X47526277Y-43555962D01*
X47714798Y-43429996D01*
X47924266Y-43343232D01*
X48146635Y-43299000D01*
X48373365Y-43299000D01*
X48595734Y-43343232D01*
X48595734Y-43343232D01*
G37*
M02*
