G04 #@! TF.GenerationSoftware,KiCad,Pcbnew,5.0.2-bee76a0~70~ubuntu18.04.1*
G04 #@! TF.CreationDate,2019-05-17T00:05:31+09:00*
G04 #@! TF.ProjectId,meishi2,6d656973-6869-4322-9e6b-696361645f70,rev?*
G04 #@! TF.SameCoordinates,Original*
G04 #@! TF.FileFunction,Copper,L1,Top*
G04 #@! TF.FilePolarity,Positive*
%FSLAX46Y46*%
G04 Gerber Fmt 4.6, Leading zero omitted, Abs format (unit mm)*
G04 Created by KiCad (PCBNEW 5.0.2-bee76a0~70~ubuntu18.04.1) date 2019年05月17日 00時05分31秒*
%MOMM*%
%LPD*%
G01*
G04 APERTURE LIST*
G04 #@! TA.AperFunction,ComponentPad*
%ADD10C,2.200000*%
G04 #@! TD*
G04 #@! TA.AperFunction,ComponentPad*
%ADD11C,1.500000*%
G04 #@! TD*
G04 #@! TA.AperFunction,ComponentPad*
%ADD12C,1.600000*%
G04 #@! TD*
G04 #@! TA.AperFunction,ComponentPad*
%ADD13R,1.600000X1.600000*%
G04 #@! TD*
G04 #@! TA.AperFunction,ComponentPad*
%ADD14R,2.000000X2.000000*%
G04 #@! TD*
G04 #@! TA.AperFunction,ComponentPad*
%ADD15O,2.000000X2.000000*%
G04 #@! TD*
G04 #@! TA.AperFunction,Conductor*
%ADD16C,0.254000*%
G04 #@! TD*
G04 APERTURE END LIST*
D10*
G04 #@! TO.P,SW1,2*
G04 #@! TO.N,Net-(D1-Pad2)*
X56595000Y-83810000D03*
G04 #@! TO.P,SW1,1*
G04 #@! TO.N,col0*
X61595000Y-85910000D03*
G04 #@! TO.P,SW1,2*
G04 #@! TO.N,Net-(D1-Pad2)*
X57785000Y-77470000D03*
G04 #@! TO.P,SW1,1*
G04 #@! TO.N,col0*
X64135000Y-74930000D03*
G04 #@! TD*
G04 #@! TO.P,SW2,2*
G04 #@! TO.N,Net-(D2-Pad2)*
X94695000Y-83810000D03*
G04 #@! TO.P,SW2,1*
G04 #@! TO.N,col0*
X99695000Y-85910000D03*
G04 #@! TO.P,SW2,2*
G04 #@! TO.N,Net-(D2-Pad2)*
X95885000Y-77470000D03*
G04 #@! TO.P,SW2,1*
G04 #@! TO.N,col0*
X102235000Y-74930000D03*
G04 #@! TD*
G04 #@! TO.P,SW3,2*
G04 #@! TO.N,Net-(D3-Pad2)*
X75645000Y-83810000D03*
G04 #@! TO.P,SW3,1*
G04 #@! TO.N,col1*
X80645000Y-85910000D03*
G04 #@! TO.P,SW3,2*
G04 #@! TO.N,Net-(D3-Pad2)*
X76835000Y-77470000D03*
G04 #@! TO.P,SW3,1*
G04 #@! TO.N,col1*
X83185000Y-74930000D03*
G04 #@! TD*
G04 #@! TO.P,SW4,2*
G04 #@! TO.N,Net-(D4-Pad2)*
X113745000Y-83810000D03*
G04 #@! TO.P,SW4,1*
G04 #@! TO.N,col1*
X118745000Y-85910000D03*
G04 #@! TO.P,SW4,2*
G04 #@! TO.N,Net-(D4-Pad2)*
X114935000Y-77470000D03*
G04 #@! TO.P,SW4,1*
G04 #@! TO.N,col1*
X121285000Y-74930000D03*
G04 #@! TD*
D11*
G04 #@! TO.P,SW5,2*
G04 #@! TO.N,GND*
X85725000Y-60960000D03*
G04 #@! TO.P,SW5,1*
G04 #@! TO.N,RST*
X85725000Y-55880000D03*
G04 #@! TD*
D12*
G04 #@! TO.P,U1,24*
G04 #@! TO.N,Net-(U1-Pad24)*
X50800000Y-50800000D03*
G04 #@! TO.P,U1,23*
G04 #@! TO.N,GND*
X53340000Y-50800000D03*
G04 #@! TO.P,U1,22*
G04 #@! TO.N,RST*
X55880000Y-50800000D03*
G04 #@! TO.P,U1,21*
G04 #@! TO.N,VCC*
X58420000Y-50800000D03*
G04 #@! TO.P,U1,20*
G04 #@! TO.N,Net-(U1-Pad20)*
X60960000Y-50800000D03*
G04 #@! TO.P,U1,19*
G04 #@! TO.N,col0*
X63500000Y-50800000D03*
G04 #@! TO.P,U1,18*
G04 #@! TO.N,col1*
X66040000Y-50800000D03*
G04 #@! TO.P,U1,17*
G04 #@! TO.N,Net-(U1-Pad17)*
X68580000Y-50800000D03*
G04 #@! TO.P,U1,16*
G04 #@! TO.N,Net-(U1-Pad16)*
X71120000Y-50800000D03*
G04 #@! TO.P,U1,15*
G04 #@! TO.N,Net-(U1-Pad15)*
X73660000Y-50800000D03*
G04 #@! TO.P,U1,14*
G04 #@! TO.N,Net-(U1-Pad14)*
X76200000Y-50800000D03*
G04 #@! TO.P,U1,13*
G04 #@! TO.N,Net-(U1-Pad13)*
X78740000Y-50800000D03*
G04 #@! TO.P,U1,12*
G04 #@! TO.N,Net-(U1-Pad12)*
X78740000Y-66040000D03*
G04 #@! TO.P,U1,11*
G04 #@! TO.N,Net-(U1-Pad11)*
X76200000Y-66040000D03*
G04 #@! TO.P,U1,10*
G04 #@! TO.N,row1*
X73660000Y-66040000D03*
G04 #@! TO.P,U1,9*
G04 #@! TO.N,row0*
X71120000Y-66040000D03*
G04 #@! TO.P,U1,8*
G04 #@! TO.N,Net-(U1-Pad8)*
X68580000Y-66040000D03*
G04 #@! TO.P,U1,7*
G04 #@! TO.N,Net-(U1-Pad7)*
X66040000Y-66040000D03*
G04 #@! TO.P,U1,6*
G04 #@! TO.N,Net-(U1-Pad6)*
X63500000Y-66040000D03*
G04 #@! TO.P,U1,5*
G04 #@! TO.N,Net-(U1-Pad5)*
X60960000Y-66040000D03*
G04 #@! TO.P,U1,4*
G04 #@! TO.N,GND*
X58420000Y-66040000D03*
G04 #@! TO.P,U1,3*
X55880000Y-66040000D03*
G04 #@! TO.P,U1,2*
G04 #@! TO.N,Net-(U1-Pad2)*
X53340000Y-66040000D03*
D13*
G04 #@! TO.P,U1,1*
G04 #@! TO.N,Net-(U1-Pad1)*
X50800000Y-66040000D03*
G04 #@! TD*
D14*
G04 #@! TO.P,D1,1*
G04 #@! TO.N,row0*
X52070000Y-82550000D03*
D15*
G04 #@! TO.P,D1,2*
G04 #@! TO.N,Net-(D1-Pad2)*
X52070000Y-77470000D03*
G04 #@! TD*
G04 #@! TO.P,D2,2*
G04 #@! TO.N,Net-(D2-Pad2)*
X90170000Y-77470000D03*
D14*
G04 #@! TO.P,D2,1*
G04 #@! TO.N,row1*
X90170000Y-82550000D03*
G04 #@! TD*
D15*
G04 #@! TO.P,D3,2*
G04 #@! TO.N,Net-(D3-Pad2)*
X71120000Y-77470000D03*
D14*
G04 #@! TO.P,D3,1*
G04 #@! TO.N,row0*
X71120000Y-82550000D03*
G04 #@! TD*
G04 #@! TO.P,D4,1*
G04 #@! TO.N,row1*
X109220000Y-82550000D03*
D15*
G04 #@! TO.P,D4,2*
G04 #@! TO.N,Net-(D4-Pad2)*
X109220000Y-77470000D03*
G04 #@! TD*
D16*
G04 #@! TO.N,row0*
X67564999Y-87391001D02*
X55625001Y-87391001D01*
X52070000Y-83836000D02*
X52070000Y-82550000D01*
X55625001Y-87391001D02*
X52070000Y-83836000D01*
X71120000Y-83836000D02*
X71120000Y-82550000D01*
X67564999Y-87391001D02*
X71120000Y-83836000D01*
G04 #@! TO.N,Net-(D1-Pad2)*
X57785000Y-77470000D02*
X52070000Y-77470000D01*
G04 #@! TO.N,Net-(D2-Pad2)*
X95885000Y-77470000D02*
X90170000Y-77470000D01*
G04 #@! TO.N,row1*
X105664999Y-87391001D02*
X93725001Y-87391001D01*
X90170000Y-83836000D02*
X90170000Y-82550000D01*
X93725001Y-87391001D02*
X90170000Y-83836000D01*
X109220000Y-83836000D02*
X109220000Y-82550000D01*
X105664999Y-87391001D02*
X109220000Y-83836000D01*
G04 #@! TO.N,Net-(D3-Pad2)*
X76835000Y-77470000D02*
X71120000Y-77470000D01*
G04 #@! TO.N,Net-(D4-Pad2)*
X113379366Y-77470000D02*
X109220000Y-77470000D01*
X114935000Y-77470000D02*
X113379366Y-77470000D01*
G04 #@! TO.N,col0*
X101135001Y-73830001D02*
X102235000Y-74930000D01*
X99695000Y-72390000D02*
X101135001Y-73830001D01*
X64135000Y-74930000D02*
X66675000Y-72390000D01*
X66675000Y-72390000D02*
X99695000Y-72390000D01*
G04 #@! TO.N,col1*
X84566001Y-73548999D02*
X84284999Y-73830001D01*
X119903999Y-73548999D02*
X106791001Y-73548999D01*
X106791001Y-73548999D02*
X103928999Y-76411001D01*
X121285000Y-74930000D02*
X119903999Y-73548999D01*
X103928999Y-76411001D02*
X99271001Y-76411001D01*
X84284999Y-73830001D02*
X83185000Y-74930000D01*
X99271001Y-76411001D02*
X96408999Y-73548999D01*
X96408999Y-73548999D02*
X84566001Y-73548999D01*
G04 #@! TD*
G04 #@! TO.N,GND*
G36*
X134318364Y-41404985D02*
X134624928Y-41544372D01*
X134880050Y-41764199D01*
X135063218Y-42046792D01*
X135166743Y-42392959D01*
X135180000Y-42571350D01*
X135180001Y-93294413D01*
X135125015Y-93678364D01*
X134985628Y-93984928D01*
X134765804Y-94240047D01*
X134483207Y-94423218D01*
X134137043Y-94526743D01*
X133958649Y-94540000D01*
X46405580Y-94540000D01*
X46021636Y-94485015D01*
X45715072Y-94345628D01*
X45459953Y-94125804D01*
X45276782Y-93843207D01*
X45173257Y-93497043D01*
X45160000Y-93318649D01*
X45160000Y-91094887D01*
X46525000Y-91094887D01*
X46525000Y-91785113D01*
X46789138Y-92422799D01*
X47277201Y-92910862D01*
X47914887Y-93175000D01*
X48605113Y-93175000D01*
X49242799Y-92910862D01*
X49730862Y-92422799D01*
X49995000Y-91785113D01*
X49995000Y-91094887D01*
X130345000Y-91094887D01*
X130345000Y-91785113D01*
X130609138Y-92422799D01*
X131097201Y-92910862D01*
X131734887Y-93175000D01*
X132425113Y-93175000D01*
X133062799Y-92910862D01*
X133550862Y-92422799D01*
X133815000Y-91785113D01*
X133815000Y-91094887D01*
X133550862Y-90457201D01*
X133062799Y-89969138D01*
X132425113Y-89705000D01*
X131734887Y-89705000D01*
X131097201Y-89969138D01*
X130609138Y-90457201D01*
X130345000Y-91094887D01*
X49995000Y-91094887D01*
X49730862Y-90457201D01*
X49242799Y-89969138D01*
X48605113Y-89705000D01*
X47914887Y-89705000D01*
X47277201Y-89969138D01*
X46789138Y-90457201D01*
X46525000Y-91094887D01*
X45160000Y-91094887D01*
X45160000Y-81550000D01*
X50422560Y-81550000D01*
X50422560Y-83550000D01*
X50471843Y-83797765D01*
X50612191Y-84007809D01*
X50822235Y-84148157D01*
X51070000Y-84197440D01*
X51395058Y-84197440D01*
X51520629Y-84385371D01*
X51584253Y-84427883D01*
X55033119Y-87876750D01*
X55075630Y-87940372D01*
X55327684Y-88108789D01*
X55549953Y-88153001D01*
X55549954Y-88153001D01*
X55625001Y-88167929D01*
X55700048Y-88153001D01*
X67489956Y-88153001D01*
X67564999Y-88167928D01*
X67640042Y-88153001D01*
X67640047Y-88153001D01*
X67862316Y-88108789D01*
X68114370Y-87940372D01*
X68156882Y-87876748D01*
X70468743Y-85564887D01*
X78910000Y-85564887D01*
X78910000Y-86255113D01*
X79174138Y-86892799D01*
X79662201Y-87380862D01*
X80299887Y-87645000D01*
X80990113Y-87645000D01*
X81627799Y-87380862D01*
X82115862Y-86892799D01*
X82380000Y-86255113D01*
X82380000Y-85564887D01*
X82115862Y-84927201D01*
X81627799Y-84439138D01*
X80990113Y-84175000D01*
X80299887Y-84175000D01*
X79662201Y-84439138D01*
X79174138Y-84927201D01*
X78910000Y-85564887D01*
X70468743Y-85564887D01*
X71605750Y-84427881D01*
X71669371Y-84385371D01*
X71794942Y-84197440D01*
X72120000Y-84197440D01*
X72367765Y-84148157D01*
X72577809Y-84007809D01*
X72718157Y-83797765D01*
X72767440Y-83550000D01*
X72767440Y-83464887D01*
X73910000Y-83464887D01*
X73910000Y-84155113D01*
X74174138Y-84792799D01*
X74662201Y-85280862D01*
X75299887Y-85545000D01*
X75990113Y-85545000D01*
X76627799Y-85280862D01*
X77115862Y-84792799D01*
X77380000Y-84155113D01*
X77380000Y-83464887D01*
X77115862Y-82827201D01*
X76627799Y-82339138D01*
X75990113Y-82075000D01*
X75299887Y-82075000D01*
X74662201Y-82339138D01*
X74174138Y-82827201D01*
X73910000Y-83464887D01*
X72767440Y-83464887D01*
X72767440Y-81550000D01*
X72718157Y-81302235D01*
X72577809Y-81092191D01*
X72367765Y-80951843D01*
X72120000Y-80902560D01*
X70120000Y-80902560D01*
X69872235Y-80951843D01*
X69662191Y-81092191D01*
X69521843Y-81302235D01*
X69472560Y-81550000D01*
X69472560Y-83550000D01*
X69521843Y-83797765D01*
X69662191Y-84007809D01*
X69787099Y-84091270D01*
X67249369Y-86629001D01*
X63175131Y-86629001D01*
X63330000Y-86255113D01*
X63330000Y-85564887D01*
X63065862Y-84927201D01*
X62577799Y-84439138D01*
X61940113Y-84175000D01*
X61249887Y-84175000D01*
X60612201Y-84439138D01*
X60124138Y-84927201D01*
X59860000Y-85564887D01*
X59860000Y-86255113D01*
X60014869Y-86629001D01*
X55940632Y-86629001D01*
X53402901Y-84091271D01*
X53527809Y-84007809D01*
X53668157Y-83797765D01*
X53717440Y-83550000D01*
X53717440Y-83464887D01*
X54860000Y-83464887D01*
X54860000Y-84155113D01*
X55124138Y-84792799D01*
X55612201Y-85280862D01*
X56249887Y-85545000D01*
X56940113Y-85545000D01*
X57577799Y-85280862D01*
X58065862Y-84792799D01*
X58330000Y-84155113D01*
X58330000Y-83464887D01*
X58065862Y-82827201D01*
X57577799Y-82339138D01*
X56940113Y-82075000D01*
X56249887Y-82075000D01*
X55612201Y-82339138D01*
X55124138Y-82827201D01*
X54860000Y-83464887D01*
X53717440Y-83464887D01*
X53717440Y-81550000D01*
X53668157Y-81302235D01*
X53527809Y-81092191D01*
X53317765Y-80951843D01*
X53070000Y-80902560D01*
X51070000Y-80902560D01*
X50822235Y-80951843D01*
X50612191Y-81092191D01*
X50471843Y-81302235D01*
X50422560Y-81550000D01*
X45160000Y-81550000D01*
X45160000Y-77470000D01*
X50402969Y-77470000D01*
X50529864Y-78107945D01*
X50891231Y-78648769D01*
X51432055Y-79010136D01*
X51908969Y-79105000D01*
X52231031Y-79105000D01*
X52707945Y-79010136D01*
X53248769Y-78648769D01*
X53527245Y-78232000D01*
X56222680Y-78232000D01*
X56302623Y-78425000D01*
X55779724Y-78425000D01*
X55197170Y-78666302D01*
X54751302Y-79112170D01*
X54510000Y-79694724D01*
X54510000Y-80325276D01*
X54751302Y-80907830D01*
X55197170Y-81353698D01*
X55779724Y-81595000D01*
X56410276Y-81595000D01*
X56651697Y-81495000D01*
X56810385Y-81495000D01*
X57356185Y-81268922D01*
X57773922Y-80851185D01*
X58000000Y-80305385D01*
X58000000Y-79714615D01*
X57905249Y-79485866D01*
X58960000Y-79485866D01*
X58960000Y-80534134D01*
X59361155Y-81502608D01*
X60102392Y-82243845D01*
X61070866Y-82645000D01*
X62119134Y-82645000D01*
X63087608Y-82243845D01*
X63828845Y-81502608D01*
X64230000Y-80534134D01*
X64230000Y-79714615D01*
X65190000Y-79714615D01*
X65190000Y-80305385D01*
X65416078Y-80851185D01*
X65833815Y-81268922D01*
X66379615Y-81495000D01*
X66538303Y-81495000D01*
X66779724Y-81595000D01*
X67410276Y-81595000D01*
X67992830Y-81353698D01*
X68438698Y-80907830D01*
X68680000Y-80325276D01*
X68680000Y-79694724D01*
X68438698Y-79112170D01*
X67992830Y-78666302D01*
X67410276Y-78425000D01*
X66779724Y-78425000D01*
X66538303Y-78525000D01*
X66379615Y-78525000D01*
X65833815Y-78751078D01*
X65416078Y-79168815D01*
X65190000Y-79714615D01*
X64230000Y-79714615D01*
X64230000Y-79485866D01*
X63828845Y-78517392D01*
X63087608Y-77776155D01*
X62348485Y-77470000D01*
X69452969Y-77470000D01*
X69579864Y-78107945D01*
X69941231Y-78648769D01*
X70482055Y-79010136D01*
X70958969Y-79105000D01*
X71281031Y-79105000D01*
X71757945Y-79010136D01*
X72298769Y-78648769D01*
X72577245Y-78232000D01*
X75272680Y-78232000D01*
X75352623Y-78425000D01*
X74829724Y-78425000D01*
X74247170Y-78666302D01*
X73801302Y-79112170D01*
X73560000Y-79694724D01*
X73560000Y-80325276D01*
X73801302Y-80907830D01*
X74247170Y-81353698D01*
X74829724Y-81595000D01*
X75460276Y-81595000D01*
X75701697Y-81495000D01*
X75860385Y-81495000D01*
X76406185Y-81268922D01*
X76823922Y-80851185D01*
X77050000Y-80305385D01*
X77050000Y-79714615D01*
X76955249Y-79485866D01*
X78010000Y-79485866D01*
X78010000Y-80534134D01*
X78411155Y-81502608D01*
X79152392Y-82243845D01*
X80120866Y-82645000D01*
X81169134Y-82645000D01*
X82137608Y-82243845D01*
X82878845Y-81502608D01*
X83280000Y-80534134D01*
X83280000Y-79714615D01*
X84240000Y-79714615D01*
X84240000Y-80305385D01*
X84466078Y-80851185D01*
X84883815Y-81268922D01*
X85429615Y-81495000D01*
X85588303Y-81495000D01*
X85829724Y-81595000D01*
X86460276Y-81595000D01*
X86568915Y-81550000D01*
X88522560Y-81550000D01*
X88522560Y-83550000D01*
X88571843Y-83797765D01*
X88712191Y-84007809D01*
X88922235Y-84148157D01*
X89170000Y-84197440D01*
X89495058Y-84197440D01*
X89620629Y-84385371D01*
X89684253Y-84427883D01*
X93133119Y-87876750D01*
X93175630Y-87940372D01*
X93427684Y-88108789D01*
X93649953Y-88153001D01*
X93649954Y-88153001D01*
X93725001Y-88167929D01*
X93800048Y-88153001D01*
X105589956Y-88153001D01*
X105664999Y-88167928D01*
X105740042Y-88153001D01*
X105740047Y-88153001D01*
X105962316Y-88108789D01*
X106214370Y-87940372D01*
X106256882Y-87876748D01*
X108568743Y-85564887D01*
X117010000Y-85564887D01*
X117010000Y-86255113D01*
X117274138Y-86892799D01*
X117762201Y-87380862D01*
X118399887Y-87645000D01*
X119090113Y-87645000D01*
X119727799Y-87380862D01*
X120215862Y-86892799D01*
X120480000Y-86255113D01*
X120480000Y-85564887D01*
X120215862Y-84927201D01*
X119727799Y-84439138D01*
X119090113Y-84175000D01*
X118399887Y-84175000D01*
X117762201Y-84439138D01*
X117274138Y-84927201D01*
X117010000Y-85564887D01*
X108568743Y-85564887D01*
X109705750Y-84427881D01*
X109769371Y-84385371D01*
X109894942Y-84197440D01*
X110220000Y-84197440D01*
X110467765Y-84148157D01*
X110677809Y-84007809D01*
X110818157Y-83797765D01*
X110867440Y-83550000D01*
X110867440Y-83464887D01*
X112010000Y-83464887D01*
X112010000Y-84155113D01*
X112274138Y-84792799D01*
X112762201Y-85280862D01*
X113399887Y-85545000D01*
X114090113Y-85545000D01*
X114727799Y-85280862D01*
X115215862Y-84792799D01*
X115480000Y-84155113D01*
X115480000Y-83464887D01*
X115215862Y-82827201D01*
X114727799Y-82339138D01*
X114090113Y-82075000D01*
X113399887Y-82075000D01*
X112762201Y-82339138D01*
X112274138Y-82827201D01*
X112010000Y-83464887D01*
X110867440Y-83464887D01*
X110867440Y-81550000D01*
X110818157Y-81302235D01*
X110677809Y-81092191D01*
X110467765Y-80951843D01*
X110220000Y-80902560D01*
X108220000Y-80902560D01*
X107972235Y-80951843D01*
X107762191Y-81092191D01*
X107621843Y-81302235D01*
X107572560Y-81550000D01*
X107572560Y-83550000D01*
X107621843Y-83797765D01*
X107762191Y-84007809D01*
X107887099Y-84091270D01*
X105349369Y-86629001D01*
X101275131Y-86629001D01*
X101430000Y-86255113D01*
X101430000Y-85564887D01*
X101165862Y-84927201D01*
X100677799Y-84439138D01*
X100040113Y-84175000D01*
X99349887Y-84175000D01*
X98712201Y-84439138D01*
X98224138Y-84927201D01*
X97960000Y-85564887D01*
X97960000Y-86255113D01*
X98114869Y-86629001D01*
X94040632Y-86629001D01*
X91502901Y-84091271D01*
X91627809Y-84007809D01*
X91768157Y-83797765D01*
X91817440Y-83550000D01*
X91817440Y-83464887D01*
X92960000Y-83464887D01*
X92960000Y-84155113D01*
X93224138Y-84792799D01*
X93712201Y-85280862D01*
X94349887Y-85545000D01*
X95040113Y-85545000D01*
X95677799Y-85280862D01*
X96165862Y-84792799D01*
X96430000Y-84155113D01*
X96430000Y-83464887D01*
X96165862Y-82827201D01*
X95677799Y-82339138D01*
X95040113Y-82075000D01*
X94349887Y-82075000D01*
X93712201Y-82339138D01*
X93224138Y-82827201D01*
X92960000Y-83464887D01*
X91817440Y-83464887D01*
X91817440Y-81550000D01*
X91768157Y-81302235D01*
X91627809Y-81092191D01*
X91417765Y-80951843D01*
X91170000Y-80902560D01*
X89170000Y-80902560D01*
X88922235Y-80951843D01*
X88712191Y-81092191D01*
X88571843Y-81302235D01*
X88522560Y-81550000D01*
X86568915Y-81550000D01*
X87042830Y-81353698D01*
X87488698Y-80907830D01*
X87730000Y-80325276D01*
X87730000Y-79694724D01*
X87488698Y-79112170D01*
X87042830Y-78666302D01*
X86460276Y-78425000D01*
X85829724Y-78425000D01*
X85588303Y-78525000D01*
X85429615Y-78525000D01*
X84883815Y-78751078D01*
X84466078Y-79168815D01*
X84240000Y-79714615D01*
X83280000Y-79714615D01*
X83280000Y-79485866D01*
X82878845Y-78517392D01*
X82137608Y-77776155D01*
X81398485Y-77470000D01*
X88502969Y-77470000D01*
X88629864Y-78107945D01*
X88991231Y-78648769D01*
X89532055Y-79010136D01*
X90008969Y-79105000D01*
X90331031Y-79105000D01*
X90807945Y-79010136D01*
X91348769Y-78648769D01*
X91627245Y-78232000D01*
X94322680Y-78232000D01*
X94402623Y-78425000D01*
X93879724Y-78425000D01*
X93297170Y-78666302D01*
X92851302Y-79112170D01*
X92610000Y-79694724D01*
X92610000Y-80325276D01*
X92851302Y-80907830D01*
X93297170Y-81353698D01*
X93879724Y-81595000D01*
X94510276Y-81595000D01*
X94751697Y-81495000D01*
X94910385Y-81495000D01*
X95456185Y-81268922D01*
X95873922Y-80851185D01*
X96100000Y-80305385D01*
X96100000Y-79714615D01*
X96005249Y-79485866D01*
X97060000Y-79485866D01*
X97060000Y-80534134D01*
X97461155Y-81502608D01*
X98202392Y-82243845D01*
X99170866Y-82645000D01*
X100219134Y-82645000D01*
X101187608Y-82243845D01*
X101928845Y-81502608D01*
X102330000Y-80534134D01*
X102330000Y-79714615D01*
X103290000Y-79714615D01*
X103290000Y-80305385D01*
X103516078Y-80851185D01*
X103933815Y-81268922D01*
X104479615Y-81495000D01*
X104638303Y-81495000D01*
X104879724Y-81595000D01*
X105510276Y-81595000D01*
X106092830Y-81353698D01*
X106538698Y-80907830D01*
X106780000Y-80325276D01*
X106780000Y-79694724D01*
X106538698Y-79112170D01*
X106092830Y-78666302D01*
X105510276Y-78425000D01*
X104879724Y-78425000D01*
X104638303Y-78525000D01*
X104479615Y-78525000D01*
X103933815Y-78751078D01*
X103516078Y-79168815D01*
X103290000Y-79714615D01*
X102330000Y-79714615D01*
X102330000Y-79485866D01*
X101928845Y-78517392D01*
X101187608Y-77776155D01*
X100448485Y-77470000D01*
X107552969Y-77470000D01*
X107679864Y-78107945D01*
X108041231Y-78648769D01*
X108582055Y-79010136D01*
X109058969Y-79105000D01*
X109381031Y-79105000D01*
X109857945Y-79010136D01*
X110398769Y-78648769D01*
X110677245Y-78232000D01*
X113372680Y-78232000D01*
X113452623Y-78425000D01*
X112929724Y-78425000D01*
X112347170Y-78666302D01*
X111901302Y-79112170D01*
X111660000Y-79694724D01*
X111660000Y-80325276D01*
X111901302Y-80907830D01*
X112347170Y-81353698D01*
X112929724Y-81595000D01*
X113560276Y-81595000D01*
X113801697Y-81495000D01*
X113960385Y-81495000D01*
X114506185Y-81268922D01*
X114923922Y-80851185D01*
X115150000Y-80305385D01*
X115150000Y-79714615D01*
X115055249Y-79485866D01*
X116110000Y-79485866D01*
X116110000Y-80534134D01*
X116511155Y-81502608D01*
X117252392Y-82243845D01*
X118220866Y-82645000D01*
X119269134Y-82645000D01*
X120237608Y-82243845D01*
X120978845Y-81502608D01*
X121380000Y-80534134D01*
X121380000Y-79714615D01*
X122340000Y-79714615D01*
X122340000Y-80305385D01*
X122566078Y-80851185D01*
X122983815Y-81268922D01*
X123529615Y-81495000D01*
X123688303Y-81495000D01*
X123929724Y-81595000D01*
X124560276Y-81595000D01*
X125142830Y-81353698D01*
X125588698Y-80907830D01*
X125830000Y-80325276D01*
X125830000Y-79694724D01*
X125588698Y-79112170D01*
X125142830Y-78666302D01*
X124560276Y-78425000D01*
X123929724Y-78425000D01*
X123688303Y-78525000D01*
X123529615Y-78525000D01*
X122983815Y-78751078D01*
X122566078Y-79168815D01*
X122340000Y-79714615D01*
X121380000Y-79714615D01*
X121380000Y-79485866D01*
X120978845Y-78517392D01*
X120237608Y-77776155D01*
X119269134Y-77375000D01*
X118220866Y-77375000D01*
X117252392Y-77776155D01*
X116511155Y-78517392D01*
X116110000Y-79485866D01*
X115055249Y-79485866D01*
X114938910Y-79205000D01*
X115280113Y-79205000D01*
X115917799Y-78940862D01*
X116405862Y-78452799D01*
X116670000Y-77815113D01*
X116670000Y-77124887D01*
X116405862Y-76487201D01*
X115917799Y-75999138D01*
X115280113Y-75735000D01*
X114589887Y-75735000D01*
X113952201Y-75999138D01*
X113464138Y-76487201D01*
X113372680Y-76708000D01*
X110677245Y-76708000D01*
X110398769Y-76291231D01*
X109857945Y-75929864D01*
X109381031Y-75835000D01*
X109058969Y-75835000D01*
X108582055Y-75929864D01*
X108041231Y-76291231D01*
X107679864Y-76832055D01*
X107552969Y-77470000D01*
X100448485Y-77470000D01*
X100219134Y-77375000D01*
X99170866Y-77375000D01*
X98202392Y-77776155D01*
X97461155Y-78517392D01*
X97060000Y-79485866D01*
X96005249Y-79485866D01*
X95888910Y-79205000D01*
X96230113Y-79205000D01*
X96867799Y-78940862D01*
X97355862Y-78452799D01*
X97620000Y-77815113D01*
X97620000Y-77124887D01*
X97355862Y-76487201D01*
X96867799Y-75999138D01*
X96230113Y-75735000D01*
X95539887Y-75735000D01*
X94902201Y-75999138D01*
X94414138Y-76487201D01*
X94322680Y-76708000D01*
X91627245Y-76708000D01*
X91348769Y-76291231D01*
X90807945Y-75929864D01*
X90331031Y-75835000D01*
X90008969Y-75835000D01*
X89532055Y-75929864D01*
X88991231Y-76291231D01*
X88629864Y-76832055D01*
X88502969Y-77470000D01*
X81398485Y-77470000D01*
X81169134Y-77375000D01*
X80120866Y-77375000D01*
X79152392Y-77776155D01*
X78411155Y-78517392D01*
X78010000Y-79485866D01*
X76955249Y-79485866D01*
X76838910Y-79205000D01*
X77180113Y-79205000D01*
X77817799Y-78940862D01*
X78305862Y-78452799D01*
X78570000Y-77815113D01*
X78570000Y-77124887D01*
X78305862Y-76487201D01*
X77817799Y-75999138D01*
X77180113Y-75735000D01*
X76489887Y-75735000D01*
X75852201Y-75999138D01*
X75364138Y-76487201D01*
X75272680Y-76708000D01*
X72577245Y-76708000D01*
X72298769Y-76291231D01*
X71757945Y-75929864D01*
X71281031Y-75835000D01*
X70958969Y-75835000D01*
X70482055Y-75929864D01*
X69941231Y-76291231D01*
X69579864Y-76832055D01*
X69452969Y-77470000D01*
X62348485Y-77470000D01*
X62119134Y-77375000D01*
X61070866Y-77375000D01*
X60102392Y-77776155D01*
X59361155Y-78517392D01*
X58960000Y-79485866D01*
X57905249Y-79485866D01*
X57788910Y-79205000D01*
X58130113Y-79205000D01*
X58767799Y-78940862D01*
X59255862Y-78452799D01*
X59520000Y-77815113D01*
X59520000Y-77124887D01*
X59255862Y-76487201D01*
X58767799Y-75999138D01*
X58130113Y-75735000D01*
X57439887Y-75735000D01*
X56802201Y-75999138D01*
X56314138Y-76487201D01*
X56222680Y-76708000D01*
X53527245Y-76708000D01*
X53248769Y-76291231D01*
X52707945Y-75929864D01*
X52231031Y-75835000D01*
X51908969Y-75835000D01*
X51432055Y-75929864D01*
X50891231Y-76291231D01*
X50529864Y-76832055D01*
X50402969Y-77470000D01*
X45160000Y-77470000D01*
X45160000Y-74584887D01*
X62400000Y-74584887D01*
X62400000Y-75275113D01*
X62664138Y-75912799D01*
X63152201Y-76400862D01*
X63789887Y-76665000D01*
X64480113Y-76665000D01*
X65117799Y-76400862D01*
X65605862Y-75912799D01*
X65870000Y-75275113D01*
X65870000Y-74584887D01*
X65778542Y-74364088D01*
X66990630Y-73152000D01*
X83885370Y-73152000D01*
X83799253Y-73238117D01*
X83799250Y-73238119D01*
X83750911Y-73286458D01*
X83530113Y-73195000D01*
X82839887Y-73195000D01*
X82202201Y-73459138D01*
X81714138Y-73947201D01*
X81450000Y-74584887D01*
X81450000Y-75275113D01*
X81714138Y-75912799D01*
X82202201Y-76400862D01*
X82839887Y-76665000D01*
X83530113Y-76665000D01*
X84167799Y-76400862D01*
X84655862Y-75912799D01*
X84920000Y-75275113D01*
X84920000Y-74584887D01*
X84828542Y-74364089D01*
X84876881Y-74315750D01*
X84876883Y-74315747D01*
X84881631Y-74310999D01*
X96093369Y-74310999D01*
X98679119Y-76896750D01*
X98721630Y-76960372D01*
X98973684Y-77128789D01*
X99195953Y-77173001D01*
X99195957Y-77173001D01*
X99271000Y-77187928D01*
X99346043Y-77173001D01*
X103853956Y-77173001D01*
X103928999Y-77187928D01*
X104004042Y-77173001D01*
X104004047Y-77173001D01*
X104226316Y-77128789D01*
X104478370Y-76960372D01*
X104520882Y-76896748D01*
X107106632Y-74310999D01*
X119588369Y-74310999D01*
X119641458Y-74364088D01*
X119550000Y-74584887D01*
X119550000Y-75275113D01*
X119814138Y-75912799D01*
X120302201Y-76400862D01*
X120939887Y-76665000D01*
X121630113Y-76665000D01*
X122267799Y-76400862D01*
X122755862Y-75912799D01*
X123020000Y-75275113D01*
X123020000Y-74584887D01*
X122755862Y-73947201D01*
X122267799Y-73459138D01*
X121630113Y-73195000D01*
X120939887Y-73195000D01*
X120719088Y-73286458D01*
X120495882Y-73063252D01*
X120453370Y-72999628D01*
X120201316Y-72831211D01*
X119979047Y-72786999D01*
X119979042Y-72786999D01*
X119903999Y-72772072D01*
X119828956Y-72786999D01*
X106866043Y-72786999D01*
X106791000Y-72772072D01*
X106715957Y-72786999D01*
X106715953Y-72786999D01*
X106493684Y-72831211D01*
X106241630Y-72999628D01*
X106199119Y-73063250D01*
X103957798Y-75304572D01*
X103970000Y-75275113D01*
X103970000Y-74584887D01*
X103705862Y-73947201D01*
X103217799Y-73459138D01*
X102580113Y-73195000D01*
X101889887Y-73195000D01*
X101669089Y-73286458D01*
X100286883Y-71904253D01*
X100244371Y-71840629D01*
X99992317Y-71672212D01*
X99770048Y-71628000D01*
X99770043Y-71628000D01*
X99695000Y-71613073D01*
X99619957Y-71628000D01*
X66750042Y-71628000D01*
X66674999Y-71613073D01*
X66599956Y-71628000D01*
X66599952Y-71628000D01*
X66377683Y-71672212D01*
X66377682Y-71672213D01*
X66377681Y-71672213D01*
X66323641Y-71708322D01*
X66125629Y-71840629D01*
X66083116Y-71904254D01*
X64700912Y-73286458D01*
X64480113Y-73195000D01*
X63789887Y-73195000D01*
X63152201Y-73459138D01*
X62664138Y-73947201D01*
X62400000Y-74584887D01*
X45160000Y-74584887D01*
X45160000Y-67349693D01*
X45225599Y-66764870D01*
X45405998Y-66246832D01*
X45706962Y-65765190D01*
X45910049Y-65537250D01*
X46153212Y-65264330D01*
X46170438Y-65240000D01*
X49352560Y-65240000D01*
X49352560Y-66840000D01*
X49401843Y-67087765D01*
X49542191Y-67297809D01*
X49752235Y-67438157D01*
X50000000Y-67487440D01*
X51600000Y-67487440D01*
X51847765Y-67438157D01*
X52057809Y-67297809D01*
X52198157Y-67087765D01*
X52224738Y-66954134D01*
X52527138Y-67256534D01*
X53054561Y-67475000D01*
X53625439Y-67475000D01*
X54152862Y-67256534D01*
X54361651Y-67047745D01*
X55051861Y-67047745D01*
X55125995Y-67293864D01*
X55663223Y-67486965D01*
X56233454Y-67459778D01*
X56634005Y-67293864D01*
X56708139Y-67047745D01*
X57591861Y-67047745D01*
X57665995Y-67293864D01*
X58203223Y-67486965D01*
X58773454Y-67459778D01*
X59174005Y-67293864D01*
X59248139Y-67047745D01*
X58420000Y-66219605D01*
X57591861Y-67047745D01*
X56708139Y-67047745D01*
X55880000Y-66219605D01*
X55051861Y-67047745D01*
X54361651Y-67047745D01*
X54556534Y-66852862D01*
X54603525Y-66739417D01*
X54626136Y-66794005D01*
X54872255Y-66868139D01*
X55700395Y-66040000D01*
X56059605Y-66040000D01*
X56887745Y-66868139D01*
X57133864Y-66794005D01*
X57148858Y-66752291D01*
X57166136Y-66794005D01*
X57412255Y-66868139D01*
X58240395Y-66040000D01*
X58599605Y-66040000D01*
X59427745Y-66868139D01*
X59673864Y-66794005D01*
X59694874Y-66735552D01*
X59743466Y-66852862D01*
X60147138Y-67256534D01*
X60674561Y-67475000D01*
X61245439Y-67475000D01*
X61772862Y-67256534D01*
X62176534Y-66852862D01*
X62230000Y-66723784D01*
X62283466Y-66852862D01*
X62687138Y-67256534D01*
X63214561Y-67475000D01*
X63785439Y-67475000D01*
X64312862Y-67256534D01*
X64716534Y-66852862D01*
X64770000Y-66723784D01*
X64823466Y-66852862D01*
X65227138Y-67256534D01*
X65754561Y-67475000D01*
X66325439Y-67475000D01*
X66852862Y-67256534D01*
X67256534Y-66852862D01*
X67310000Y-66723784D01*
X67363466Y-66852862D01*
X67767138Y-67256534D01*
X68294561Y-67475000D01*
X68865439Y-67475000D01*
X69392862Y-67256534D01*
X69796534Y-66852862D01*
X69850000Y-66723784D01*
X69903466Y-66852862D01*
X70307138Y-67256534D01*
X70834561Y-67475000D01*
X71405439Y-67475000D01*
X71932862Y-67256534D01*
X72336534Y-66852862D01*
X72390000Y-66723784D01*
X72443466Y-66852862D01*
X72847138Y-67256534D01*
X73374561Y-67475000D01*
X73945439Y-67475000D01*
X74472862Y-67256534D01*
X74876534Y-66852862D01*
X74930000Y-66723784D01*
X74983466Y-66852862D01*
X75387138Y-67256534D01*
X75914561Y-67475000D01*
X76485439Y-67475000D01*
X77012862Y-67256534D01*
X77416534Y-66852862D01*
X77470000Y-66723784D01*
X77523466Y-66852862D01*
X77927138Y-67256534D01*
X78454561Y-67475000D01*
X79025439Y-67475000D01*
X79552862Y-67256534D01*
X79956534Y-66852862D01*
X80175000Y-66325439D01*
X80175000Y-65754561D01*
X79956534Y-65227138D01*
X79552862Y-64823466D01*
X79025439Y-64605000D01*
X78454561Y-64605000D01*
X77927138Y-64823466D01*
X77523466Y-65227138D01*
X77470000Y-65356216D01*
X77416534Y-65227138D01*
X77012862Y-64823466D01*
X76485439Y-64605000D01*
X75914561Y-64605000D01*
X75387138Y-64823466D01*
X74983466Y-65227138D01*
X74930000Y-65356216D01*
X74876534Y-65227138D01*
X74472862Y-64823466D01*
X73945439Y-64605000D01*
X73374561Y-64605000D01*
X72847138Y-64823466D01*
X72443466Y-65227138D01*
X72390000Y-65356216D01*
X72336534Y-65227138D01*
X71932862Y-64823466D01*
X71405439Y-64605000D01*
X70834561Y-64605000D01*
X70307138Y-64823466D01*
X69903466Y-65227138D01*
X69850000Y-65356216D01*
X69796534Y-65227138D01*
X69392862Y-64823466D01*
X68865439Y-64605000D01*
X68294561Y-64605000D01*
X67767138Y-64823466D01*
X67363466Y-65227138D01*
X67310000Y-65356216D01*
X67256534Y-65227138D01*
X66852862Y-64823466D01*
X66325439Y-64605000D01*
X65754561Y-64605000D01*
X65227138Y-64823466D01*
X64823466Y-65227138D01*
X64770000Y-65356216D01*
X64716534Y-65227138D01*
X64312862Y-64823466D01*
X63785439Y-64605000D01*
X63214561Y-64605000D01*
X62687138Y-64823466D01*
X62283466Y-65227138D01*
X62230000Y-65356216D01*
X62176534Y-65227138D01*
X61772862Y-64823466D01*
X61245439Y-64605000D01*
X60674561Y-64605000D01*
X60147138Y-64823466D01*
X59743466Y-65227138D01*
X59696475Y-65340583D01*
X59673864Y-65285995D01*
X59427745Y-65211861D01*
X58599605Y-66040000D01*
X58240395Y-66040000D01*
X57412255Y-65211861D01*
X57166136Y-65285995D01*
X57151142Y-65327709D01*
X57133864Y-65285995D01*
X56887745Y-65211861D01*
X56059605Y-66040000D01*
X55700395Y-66040000D01*
X54872255Y-65211861D01*
X54626136Y-65285995D01*
X54605126Y-65344448D01*
X54556534Y-65227138D01*
X54361651Y-65032255D01*
X55051861Y-65032255D01*
X55880000Y-65860395D01*
X56708139Y-65032255D01*
X57591861Y-65032255D01*
X58420000Y-65860395D01*
X59248139Y-65032255D01*
X59174005Y-64786136D01*
X58636777Y-64593035D01*
X58066546Y-64620222D01*
X57665995Y-64786136D01*
X57591861Y-65032255D01*
X56708139Y-65032255D01*
X56634005Y-64786136D01*
X56096777Y-64593035D01*
X55526546Y-64620222D01*
X55125995Y-64786136D01*
X55051861Y-65032255D01*
X54361651Y-65032255D01*
X54152862Y-64823466D01*
X53625439Y-64605000D01*
X53054561Y-64605000D01*
X52527138Y-64823466D01*
X52224738Y-65125866D01*
X52198157Y-64992235D01*
X52057809Y-64782191D01*
X51847765Y-64641843D01*
X51600000Y-64592560D01*
X50000000Y-64592560D01*
X49752235Y-64641843D01*
X49542191Y-64782191D01*
X49401843Y-64992235D01*
X49352560Y-65240000D01*
X46170438Y-65240000D01*
X46185064Y-65219343D01*
X46219902Y-65176628D01*
X46225213Y-65168258D01*
X46600304Y-64567987D01*
X46632375Y-64501050D01*
X46665372Y-64434578D01*
X46668697Y-64425239D01*
X46901478Y-63756783D01*
X46917916Y-63684433D01*
X46935373Y-63612275D01*
X46936546Y-63602431D01*
X47012096Y-62928892D01*
X47019872Y-62889798D01*
X47019872Y-61931517D01*
X84933088Y-61931517D01*
X85001077Y-62172460D01*
X85520171Y-62357201D01*
X86070448Y-62329230D01*
X86448923Y-62172460D01*
X86516912Y-61931517D01*
X85725000Y-61139605D01*
X84933088Y-61931517D01*
X47019872Y-61931517D01*
X47019872Y-60755171D01*
X84327799Y-60755171D01*
X84355770Y-61305448D01*
X84512540Y-61683923D01*
X84753483Y-61751912D01*
X85545395Y-60960000D01*
X85904605Y-60960000D01*
X86696517Y-61751912D01*
X86937460Y-61683923D01*
X87122201Y-61164829D01*
X87094230Y-60614552D01*
X86937460Y-60236077D01*
X86696517Y-60168088D01*
X85904605Y-60960000D01*
X85545395Y-60960000D01*
X84753483Y-60168088D01*
X84512540Y-60236077D01*
X84327799Y-60755171D01*
X47019872Y-60755171D01*
X47019872Y-59988483D01*
X84933088Y-59988483D01*
X85725000Y-60780395D01*
X86516912Y-59988483D01*
X86448923Y-59747540D01*
X85929829Y-59562799D01*
X85379552Y-59590770D01*
X85001077Y-59747540D01*
X84933088Y-59988483D01*
X47019872Y-59988483D01*
X47019872Y-55604506D01*
X84340000Y-55604506D01*
X84340000Y-56155494D01*
X84550853Y-56664540D01*
X84940460Y-57054147D01*
X85449506Y-57265000D01*
X86000494Y-57265000D01*
X86509540Y-57054147D01*
X86899147Y-56664540D01*
X87110000Y-56155494D01*
X87110000Y-55604506D01*
X86899147Y-55095460D01*
X86509540Y-54705853D01*
X86000494Y-54495000D01*
X85449506Y-54495000D01*
X84940460Y-54705853D01*
X84550853Y-55095460D01*
X84340000Y-55604506D01*
X47019872Y-55604506D01*
X47019872Y-53950202D01*
X47015855Y-53930009D01*
X46997653Y-53614331D01*
X46988366Y-53560001D01*
X46982796Y-53505163D01*
X46980633Y-53495488D01*
X46821407Y-52805802D01*
X46796750Y-52735784D01*
X46773082Y-52665456D01*
X46768830Y-52656501D01*
X46460761Y-52019231D01*
X46421226Y-51956451D01*
X46382546Y-51893082D01*
X46376415Y-51885292D01*
X45934816Y-51332110D01*
X45542902Y-50841167D01*
X45385014Y-50514561D01*
X49365000Y-50514561D01*
X49365000Y-51085439D01*
X49583466Y-51612862D01*
X49987138Y-52016534D01*
X50514561Y-52235000D01*
X51085439Y-52235000D01*
X51612862Y-52016534D01*
X51821651Y-51807745D01*
X52511861Y-51807745D01*
X52585995Y-52053864D01*
X53123223Y-52246965D01*
X53693454Y-52219778D01*
X54094005Y-52053864D01*
X54168139Y-51807745D01*
X53340000Y-50979605D01*
X52511861Y-51807745D01*
X51821651Y-51807745D01*
X52016534Y-51612862D01*
X52063525Y-51499417D01*
X52086136Y-51554005D01*
X52332255Y-51628139D01*
X53160395Y-50800000D01*
X53519605Y-50800000D01*
X54347745Y-51628139D01*
X54593864Y-51554005D01*
X54614874Y-51495552D01*
X54663466Y-51612862D01*
X55067138Y-52016534D01*
X55594561Y-52235000D01*
X56165439Y-52235000D01*
X56692862Y-52016534D01*
X57096534Y-51612862D01*
X57150000Y-51483784D01*
X57203466Y-51612862D01*
X57607138Y-52016534D01*
X58134561Y-52235000D01*
X58705439Y-52235000D01*
X59232862Y-52016534D01*
X59636534Y-51612862D01*
X59690000Y-51483784D01*
X59743466Y-51612862D01*
X60147138Y-52016534D01*
X60674561Y-52235000D01*
X61245439Y-52235000D01*
X61772862Y-52016534D01*
X62176534Y-51612862D01*
X62230000Y-51483784D01*
X62283466Y-51612862D01*
X62687138Y-52016534D01*
X63214561Y-52235000D01*
X63785439Y-52235000D01*
X64312862Y-52016534D01*
X64716534Y-51612862D01*
X64770000Y-51483784D01*
X64823466Y-51612862D01*
X65227138Y-52016534D01*
X65754561Y-52235000D01*
X66325439Y-52235000D01*
X66852862Y-52016534D01*
X67256534Y-51612862D01*
X67310000Y-51483784D01*
X67363466Y-51612862D01*
X67767138Y-52016534D01*
X68294561Y-52235000D01*
X68865439Y-52235000D01*
X69392862Y-52016534D01*
X69796534Y-51612862D01*
X69850000Y-51483784D01*
X69903466Y-51612862D01*
X70307138Y-52016534D01*
X70834561Y-52235000D01*
X71405439Y-52235000D01*
X71932862Y-52016534D01*
X72336534Y-51612862D01*
X72390000Y-51483784D01*
X72443466Y-51612862D01*
X72847138Y-52016534D01*
X73374561Y-52235000D01*
X73945439Y-52235000D01*
X74472862Y-52016534D01*
X74876534Y-51612862D01*
X74930000Y-51483784D01*
X74983466Y-51612862D01*
X75387138Y-52016534D01*
X75914561Y-52235000D01*
X76485439Y-52235000D01*
X77012862Y-52016534D01*
X77416534Y-51612862D01*
X77470000Y-51483784D01*
X77523466Y-51612862D01*
X77927138Y-52016534D01*
X78454561Y-52235000D01*
X79025439Y-52235000D01*
X79552862Y-52016534D01*
X79956534Y-51612862D01*
X80175000Y-51085439D01*
X80175000Y-50514561D01*
X79956534Y-49987138D01*
X79552862Y-49583466D01*
X79025439Y-49365000D01*
X78454561Y-49365000D01*
X77927138Y-49583466D01*
X77523466Y-49987138D01*
X77470000Y-50116216D01*
X77416534Y-49987138D01*
X77012862Y-49583466D01*
X76485439Y-49365000D01*
X75914561Y-49365000D01*
X75387138Y-49583466D01*
X74983466Y-49987138D01*
X74930000Y-50116216D01*
X74876534Y-49987138D01*
X74472862Y-49583466D01*
X73945439Y-49365000D01*
X73374561Y-49365000D01*
X72847138Y-49583466D01*
X72443466Y-49987138D01*
X72390000Y-50116216D01*
X72336534Y-49987138D01*
X71932862Y-49583466D01*
X71405439Y-49365000D01*
X70834561Y-49365000D01*
X70307138Y-49583466D01*
X69903466Y-49987138D01*
X69850000Y-50116216D01*
X69796534Y-49987138D01*
X69392862Y-49583466D01*
X68865439Y-49365000D01*
X68294561Y-49365000D01*
X67767138Y-49583466D01*
X67363466Y-49987138D01*
X67310000Y-50116216D01*
X67256534Y-49987138D01*
X66852862Y-49583466D01*
X66325439Y-49365000D01*
X65754561Y-49365000D01*
X65227138Y-49583466D01*
X64823466Y-49987138D01*
X64770000Y-50116216D01*
X64716534Y-49987138D01*
X64312862Y-49583466D01*
X63785439Y-49365000D01*
X63214561Y-49365000D01*
X62687138Y-49583466D01*
X62283466Y-49987138D01*
X62230000Y-50116216D01*
X62176534Y-49987138D01*
X61772862Y-49583466D01*
X61245439Y-49365000D01*
X60674561Y-49365000D01*
X60147138Y-49583466D01*
X59743466Y-49987138D01*
X59690000Y-50116216D01*
X59636534Y-49987138D01*
X59232862Y-49583466D01*
X58705439Y-49365000D01*
X58134561Y-49365000D01*
X57607138Y-49583466D01*
X57203466Y-49987138D01*
X57150000Y-50116216D01*
X57096534Y-49987138D01*
X56692862Y-49583466D01*
X56165439Y-49365000D01*
X55594561Y-49365000D01*
X55067138Y-49583466D01*
X54663466Y-49987138D01*
X54616475Y-50100583D01*
X54593864Y-50045995D01*
X54347745Y-49971861D01*
X53519605Y-50800000D01*
X53160395Y-50800000D01*
X52332255Y-49971861D01*
X52086136Y-50045995D01*
X52065126Y-50104448D01*
X52016534Y-49987138D01*
X51821651Y-49792255D01*
X52511861Y-49792255D01*
X53340000Y-50620395D01*
X54168139Y-49792255D01*
X54094005Y-49546136D01*
X53556777Y-49353035D01*
X52986546Y-49380222D01*
X52585995Y-49546136D01*
X52511861Y-49792255D01*
X51821651Y-49792255D01*
X51612862Y-49583466D01*
X51085439Y-49365000D01*
X50514561Y-49365000D01*
X49987138Y-49583466D01*
X49583466Y-49987138D01*
X49365000Y-50514561D01*
X45385014Y-50514561D01*
X45304156Y-50347299D01*
X45176397Y-49793912D01*
X45160000Y-49509540D01*
X45160000Y-44104887D01*
X46525000Y-44104887D01*
X46525000Y-44795113D01*
X46789138Y-45432799D01*
X47277201Y-45920862D01*
X47914887Y-46185000D01*
X48605113Y-46185000D01*
X49242799Y-45920862D01*
X49730862Y-45432799D01*
X49995000Y-44795113D01*
X49995000Y-44104887D01*
X130345000Y-44104887D01*
X130345000Y-44795113D01*
X130609138Y-45432799D01*
X131097201Y-45920862D01*
X131734887Y-46185000D01*
X132425113Y-46185000D01*
X133062799Y-45920862D01*
X133550862Y-45432799D01*
X133815000Y-44795113D01*
X133815000Y-44104887D01*
X133550862Y-43467201D01*
X133062799Y-42979138D01*
X132425113Y-42715000D01*
X131734887Y-42715000D01*
X131097201Y-42979138D01*
X130609138Y-43467201D01*
X130345000Y-44104887D01*
X49995000Y-44104887D01*
X49730862Y-43467201D01*
X49242799Y-42979138D01*
X48605113Y-42715000D01*
X47914887Y-42715000D01*
X47277201Y-42979138D01*
X46789138Y-43467201D01*
X46525000Y-44104887D01*
X45160000Y-44104887D01*
X45160000Y-42595580D01*
X45214985Y-42211636D01*
X45354372Y-41905072D01*
X45574199Y-41649950D01*
X45856792Y-41466782D01*
X46202959Y-41363257D01*
X46381350Y-41350000D01*
X133934420Y-41350000D01*
X134318364Y-41404985D01*
X134318364Y-41404985D01*
G37*
X134318364Y-41404985D02*
X134624928Y-41544372D01*
X134880050Y-41764199D01*
X135063218Y-42046792D01*
X135166743Y-42392959D01*
X135180000Y-42571350D01*
X135180001Y-93294413D01*
X135125015Y-93678364D01*
X134985628Y-93984928D01*
X134765804Y-94240047D01*
X134483207Y-94423218D01*
X134137043Y-94526743D01*
X133958649Y-94540000D01*
X46405580Y-94540000D01*
X46021636Y-94485015D01*
X45715072Y-94345628D01*
X45459953Y-94125804D01*
X45276782Y-93843207D01*
X45173257Y-93497043D01*
X45160000Y-93318649D01*
X45160000Y-91094887D01*
X46525000Y-91094887D01*
X46525000Y-91785113D01*
X46789138Y-92422799D01*
X47277201Y-92910862D01*
X47914887Y-93175000D01*
X48605113Y-93175000D01*
X49242799Y-92910862D01*
X49730862Y-92422799D01*
X49995000Y-91785113D01*
X49995000Y-91094887D01*
X130345000Y-91094887D01*
X130345000Y-91785113D01*
X130609138Y-92422799D01*
X131097201Y-92910862D01*
X131734887Y-93175000D01*
X132425113Y-93175000D01*
X133062799Y-92910862D01*
X133550862Y-92422799D01*
X133815000Y-91785113D01*
X133815000Y-91094887D01*
X133550862Y-90457201D01*
X133062799Y-89969138D01*
X132425113Y-89705000D01*
X131734887Y-89705000D01*
X131097201Y-89969138D01*
X130609138Y-90457201D01*
X130345000Y-91094887D01*
X49995000Y-91094887D01*
X49730862Y-90457201D01*
X49242799Y-89969138D01*
X48605113Y-89705000D01*
X47914887Y-89705000D01*
X47277201Y-89969138D01*
X46789138Y-90457201D01*
X46525000Y-91094887D01*
X45160000Y-91094887D01*
X45160000Y-81550000D01*
X50422560Y-81550000D01*
X50422560Y-83550000D01*
X50471843Y-83797765D01*
X50612191Y-84007809D01*
X50822235Y-84148157D01*
X51070000Y-84197440D01*
X51395058Y-84197440D01*
X51520629Y-84385371D01*
X51584253Y-84427883D01*
X55033119Y-87876750D01*
X55075630Y-87940372D01*
X55327684Y-88108789D01*
X55549953Y-88153001D01*
X55549954Y-88153001D01*
X55625001Y-88167929D01*
X55700048Y-88153001D01*
X67489956Y-88153001D01*
X67564999Y-88167928D01*
X67640042Y-88153001D01*
X67640047Y-88153001D01*
X67862316Y-88108789D01*
X68114370Y-87940372D01*
X68156882Y-87876748D01*
X70468743Y-85564887D01*
X78910000Y-85564887D01*
X78910000Y-86255113D01*
X79174138Y-86892799D01*
X79662201Y-87380862D01*
X80299887Y-87645000D01*
X80990113Y-87645000D01*
X81627799Y-87380862D01*
X82115862Y-86892799D01*
X82380000Y-86255113D01*
X82380000Y-85564887D01*
X82115862Y-84927201D01*
X81627799Y-84439138D01*
X80990113Y-84175000D01*
X80299887Y-84175000D01*
X79662201Y-84439138D01*
X79174138Y-84927201D01*
X78910000Y-85564887D01*
X70468743Y-85564887D01*
X71605750Y-84427881D01*
X71669371Y-84385371D01*
X71794942Y-84197440D01*
X72120000Y-84197440D01*
X72367765Y-84148157D01*
X72577809Y-84007809D01*
X72718157Y-83797765D01*
X72767440Y-83550000D01*
X72767440Y-83464887D01*
X73910000Y-83464887D01*
X73910000Y-84155113D01*
X74174138Y-84792799D01*
X74662201Y-85280862D01*
X75299887Y-85545000D01*
X75990113Y-85545000D01*
X76627799Y-85280862D01*
X77115862Y-84792799D01*
X77380000Y-84155113D01*
X77380000Y-83464887D01*
X77115862Y-82827201D01*
X76627799Y-82339138D01*
X75990113Y-82075000D01*
X75299887Y-82075000D01*
X74662201Y-82339138D01*
X74174138Y-82827201D01*
X73910000Y-83464887D01*
X72767440Y-83464887D01*
X72767440Y-81550000D01*
X72718157Y-81302235D01*
X72577809Y-81092191D01*
X72367765Y-80951843D01*
X72120000Y-80902560D01*
X70120000Y-80902560D01*
X69872235Y-80951843D01*
X69662191Y-81092191D01*
X69521843Y-81302235D01*
X69472560Y-81550000D01*
X69472560Y-83550000D01*
X69521843Y-83797765D01*
X69662191Y-84007809D01*
X69787099Y-84091270D01*
X67249369Y-86629001D01*
X63175131Y-86629001D01*
X63330000Y-86255113D01*
X63330000Y-85564887D01*
X63065862Y-84927201D01*
X62577799Y-84439138D01*
X61940113Y-84175000D01*
X61249887Y-84175000D01*
X60612201Y-84439138D01*
X60124138Y-84927201D01*
X59860000Y-85564887D01*
X59860000Y-86255113D01*
X60014869Y-86629001D01*
X55940632Y-86629001D01*
X53402901Y-84091271D01*
X53527809Y-84007809D01*
X53668157Y-83797765D01*
X53717440Y-83550000D01*
X53717440Y-83464887D01*
X54860000Y-83464887D01*
X54860000Y-84155113D01*
X55124138Y-84792799D01*
X55612201Y-85280862D01*
X56249887Y-85545000D01*
X56940113Y-85545000D01*
X57577799Y-85280862D01*
X58065862Y-84792799D01*
X58330000Y-84155113D01*
X58330000Y-83464887D01*
X58065862Y-82827201D01*
X57577799Y-82339138D01*
X56940113Y-82075000D01*
X56249887Y-82075000D01*
X55612201Y-82339138D01*
X55124138Y-82827201D01*
X54860000Y-83464887D01*
X53717440Y-83464887D01*
X53717440Y-81550000D01*
X53668157Y-81302235D01*
X53527809Y-81092191D01*
X53317765Y-80951843D01*
X53070000Y-80902560D01*
X51070000Y-80902560D01*
X50822235Y-80951843D01*
X50612191Y-81092191D01*
X50471843Y-81302235D01*
X50422560Y-81550000D01*
X45160000Y-81550000D01*
X45160000Y-77470000D01*
X50402969Y-77470000D01*
X50529864Y-78107945D01*
X50891231Y-78648769D01*
X51432055Y-79010136D01*
X51908969Y-79105000D01*
X52231031Y-79105000D01*
X52707945Y-79010136D01*
X53248769Y-78648769D01*
X53527245Y-78232000D01*
X56222680Y-78232000D01*
X56302623Y-78425000D01*
X55779724Y-78425000D01*
X55197170Y-78666302D01*
X54751302Y-79112170D01*
X54510000Y-79694724D01*
X54510000Y-80325276D01*
X54751302Y-80907830D01*
X55197170Y-81353698D01*
X55779724Y-81595000D01*
X56410276Y-81595000D01*
X56651697Y-81495000D01*
X56810385Y-81495000D01*
X57356185Y-81268922D01*
X57773922Y-80851185D01*
X58000000Y-80305385D01*
X58000000Y-79714615D01*
X57905249Y-79485866D01*
X58960000Y-79485866D01*
X58960000Y-80534134D01*
X59361155Y-81502608D01*
X60102392Y-82243845D01*
X61070866Y-82645000D01*
X62119134Y-82645000D01*
X63087608Y-82243845D01*
X63828845Y-81502608D01*
X64230000Y-80534134D01*
X64230000Y-79714615D01*
X65190000Y-79714615D01*
X65190000Y-80305385D01*
X65416078Y-80851185D01*
X65833815Y-81268922D01*
X66379615Y-81495000D01*
X66538303Y-81495000D01*
X66779724Y-81595000D01*
X67410276Y-81595000D01*
X67992830Y-81353698D01*
X68438698Y-80907830D01*
X68680000Y-80325276D01*
X68680000Y-79694724D01*
X68438698Y-79112170D01*
X67992830Y-78666302D01*
X67410276Y-78425000D01*
X66779724Y-78425000D01*
X66538303Y-78525000D01*
X66379615Y-78525000D01*
X65833815Y-78751078D01*
X65416078Y-79168815D01*
X65190000Y-79714615D01*
X64230000Y-79714615D01*
X64230000Y-79485866D01*
X63828845Y-78517392D01*
X63087608Y-77776155D01*
X62348485Y-77470000D01*
X69452969Y-77470000D01*
X69579864Y-78107945D01*
X69941231Y-78648769D01*
X70482055Y-79010136D01*
X70958969Y-79105000D01*
X71281031Y-79105000D01*
X71757945Y-79010136D01*
X72298769Y-78648769D01*
X72577245Y-78232000D01*
X75272680Y-78232000D01*
X75352623Y-78425000D01*
X74829724Y-78425000D01*
X74247170Y-78666302D01*
X73801302Y-79112170D01*
X73560000Y-79694724D01*
X73560000Y-80325276D01*
X73801302Y-80907830D01*
X74247170Y-81353698D01*
X74829724Y-81595000D01*
X75460276Y-81595000D01*
X75701697Y-81495000D01*
X75860385Y-81495000D01*
X76406185Y-81268922D01*
X76823922Y-80851185D01*
X77050000Y-80305385D01*
X77050000Y-79714615D01*
X76955249Y-79485866D01*
X78010000Y-79485866D01*
X78010000Y-80534134D01*
X78411155Y-81502608D01*
X79152392Y-82243845D01*
X80120866Y-82645000D01*
X81169134Y-82645000D01*
X82137608Y-82243845D01*
X82878845Y-81502608D01*
X83280000Y-80534134D01*
X83280000Y-79714615D01*
X84240000Y-79714615D01*
X84240000Y-80305385D01*
X84466078Y-80851185D01*
X84883815Y-81268922D01*
X85429615Y-81495000D01*
X85588303Y-81495000D01*
X85829724Y-81595000D01*
X86460276Y-81595000D01*
X86568915Y-81550000D01*
X88522560Y-81550000D01*
X88522560Y-83550000D01*
X88571843Y-83797765D01*
X88712191Y-84007809D01*
X88922235Y-84148157D01*
X89170000Y-84197440D01*
X89495058Y-84197440D01*
X89620629Y-84385371D01*
X89684253Y-84427883D01*
X93133119Y-87876750D01*
X93175630Y-87940372D01*
X93427684Y-88108789D01*
X93649953Y-88153001D01*
X93649954Y-88153001D01*
X93725001Y-88167929D01*
X93800048Y-88153001D01*
X105589956Y-88153001D01*
X105664999Y-88167928D01*
X105740042Y-88153001D01*
X105740047Y-88153001D01*
X105962316Y-88108789D01*
X106214370Y-87940372D01*
X106256882Y-87876748D01*
X108568743Y-85564887D01*
X117010000Y-85564887D01*
X117010000Y-86255113D01*
X117274138Y-86892799D01*
X117762201Y-87380862D01*
X118399887Y-87645000D01*
X119090113Y-87645000D01*
X119727799Y-87380862D01*
X120215862Y-86892799D01*
X120480000Y-86255113D01*
X120480000Y-85564887D01*
X120215862Y-84927201D01*
X119727799Y-84439138D01*
X119090113Y-84175000D01*
X118399887Y-84175000D01*
X117762201Y-84439138D01*
X117274138Y-84927201D01*
X117010000Y-85564887D01*
X108568743Y-85564887D01*
X109705750Y-84427881D01*
X109769371Y-84385371D01*
X109894942Y-84197440D01*
X110220000Y-84197440D01*
X110467765Y-84148157D01*
X110677809Y-84007809D01*
X110818157Y-83797765D01*
X110867440Y-83550000D01*
X110867440Y-83464887D01*
X112010000Y-83464887D01*
X112010000Y-84155113D01*
X112274138Y-84792799D01*
X112762201Y-85280862D01*
X113399887Y-85545000D01*
X114090113Y-85545000D01*
X114727799Y-85280862D01*
X115215862Y-84792799D01*
X115480000Y-84155113D01*
X115480000Y-83464887D01*
X115215862Y-82827201D01*
X114727799Y-82339138D01*
X114090113Y-82075000D01*
X113399887Y-82075000D01*
X112762201Y-82339138D01*
X112274138Y-82827201D01*
X112010000Y-83464887D01*
X110867440Y-83464887D01*
X110867440Y-81550000D01*
X110818157Y-81302235D01*
X110677809Y-81092191D01*
X110467765Y-80951843D01*
X110220000Y-80902560D01*
X108220000Y-80902560D01*
X107972235Y-80951843D01*
X107762191Y-81092191D01*
X107621843Y-81302235D01*
X107572560Y-81550000D01*
X107572560Y-83550000D01*
X107621843Y-83797765D01*
X107762191Y-84007809D01*
X107887099Y-84091270D01*
X105349369Y-86629001D01*
X101275131Y-86629001D01*
X101430000Y-86255113D01*
X101430000Y-85564887D01*
X101165862Y-84927201D01*
X100677799Y-84439138D01*
X100040113Y-84175000D01*
X99349887Y-84175000D01*
X98712201Y-84439138D01*
X98224138Y-84927201D01*
X97960000Y-85564887D01*
X97960000Y-86255113D01*
X98114869Y-86629001D01*
X94040632Y-86629001D01*
X91502901Y-84091271D01*
X91627809Y-84007809D01*
X91768157Y-83797765D01*
X91817440Y-83550000D01*
X91817440Y-83464887D01*
X92960000Y-83464887D01*
X92960000Y-84155113D01*
X93224138Y-84792799D01*
X93712201Y-85280862D01*
X94349887Y-85545000D01*
X95040113Y-85545000D01*
X95677799Y-85280862D01*
X96165862Y-84792799D01*
X96430000Y-84155113D01*
X96430000Y-83464887D01*
X96165862Y-82827201D01*
X95677799Y-82339138D01*
X95040113Y-82075000D01*
X94349887Y-82075000D01*
X93712201Y-82339138D01*
X93224138Y-82827201D01*
X92960000Y-83464887D01*
X91817440Y-83464887D01*
X91817440Y-81550000D01*
X91768157Y-81302235D01*
X91627809Y-81092191D01*
X91417765Y-80951843D01*
X91170000Y-80902560D01*
X89170000Y-80902560D01*
X88922235Y-80951843D01*
X88712191Y-81092191D01*
X88571843Y-81302235D01*
X88522560Y-81550000D01*
X86568915Y-81550000D01*
X87042830Y-81353698D01*
X87488698Y-80907830D01*
X87730000Y-80325276D01*
X87730000Y-79694724D01*
X87488698Y-79112170D01*
X87042830Y-78666302D01*
X86460276Y-78425000D01*
X85829724Y-78425000D01*
X85588303Y-78525000D01*
X85429615Y-78525000D01*
X84883815Y-78751078D01*
X84466078Y-79168815D01*
X84240000Y-79714615D01*
X83280000Y-79714615D01*
X83280000Y-79485866D01*
X82878845Y-78517392D01*
X82137608Y-77776155D01*
X81398485Y-77470000D01*
X88502969Y-77470000D01*
X88629864Y-78107945D01*
X88991231Y-78648769D01*
X89532055Y-79010136D01*
X90008969Y-79105000D01*
X90331031Y-79105000D01*
X90807945Y-79010136D01*
X91348769Y-78648769D01*
X91627245Y-78232000D01*
X94322680Y-78232000D01*
X94402623Y-78425000D01*
X93879724Y-78425000D01*
X93297170Y-78666302D01*
X92851302Y-79112170D01*
X92610000Y-79694724D01*
X92610000Y-80325276D01*
X92851302Y-80907830D01*
X93297170Y-81353698D01*
X93879724Y-81595000D01*
X94510276Y-81595000D01*
X94751697Y-81495000D01*
X94910385Y-81495000D01*
X95456185Y-81268922D01*
X95873922Y-80851185D01*
X96100000Y-80305385D01*
X96100000Y-79714615D01*
X96005249Y-79485866D01*
X97060000Y-79485866D01*
X97060000Y-80534134D01*
X97461155Y-81502608D01*
X98202392Y-82243845D01*
X99170866Y-82645000D01*
X100219134Y-82645000D01*
X101187608Y-82243845D01*
X101928845Y-81502608D01*
X102330000Y-80534134D01*
X102330000Y-79714615D01*
X103290000Y-79714615D01*
X103290000Y-80305385D01*
X103516078Y-80851185D01*
X103933815Y-81268922D01*
X104479615Y-81495000D01*
X104638303Y-81495000D01*
X104879724Y-81595000D01*
X105510276Y-81595000D01*
X106092830Y-81353698D01*
X106538698Y-80907830D01*
X106780000Y-80325276D01*
X106780000Y-79694724D01*
X106538698Y-79112170D01*
X106092830Y-78666302D01*
X105510276Y-78425000D01*
X104879724Y-78425000D01*
X104638303Y-78525000D01*
X104479615Y-78525000D01*
X103933815Y-78751078D01*
X103516078Y-79168815D01*
X103290000Y-79714615D01*
X102330000Y-79714615D01*
X102330000Y-79485866D01*
X101928845Y-78517392D01*
X101187608Y-77776155D01*
X100448485Y-77470000D01*
X107552969Y-77470000D01*
X107679864Y-78107945D01*
X108041231Y-78648769D01*
X108582055Y-79010136D01*
X109058969Y-79105000D01*
X109381031Y-79105000D01*
X109857945Y-79010136D01*
X110398769Y-78648769D01*
X110677245Y-78232000D01*
X113372680Y-78232000D01*
X113452623Y-78425000D01*
X112929724Y-78425000D01*
X112347170Y-78666302D01*
X111901302Y-79112170D01*
X111660000Y-79694724D01*
X111660000Y-80325276D01*
X111901302Y-80907830D01*
X112347170Y-81353698D01*
X112929724Y-81595000D01*
X113560276Y-81595000D01*
X113801697Y-81495000D01*
X113960385Y-81495000D01*
X114506185Y-81268922D01*
X114923922Y-80851185D01*
X115150000Y-80305385D01*
X115150000Y-79714615D01*
X115055249Y-79485866D01*
X116110000Y-79485866D01*
X116110000Y-80534134D01*
X116511155Y-81502608D01*
X117252392Y-82243845D01*
X118220866Y-82645000D01*
X119269134Y-82645000D01*
X120237608Y-82243845D01*
X120978845Y-81502608D01*
X121380000Y-80534134D01*
X121380000Y-79714615D01*
X122340000Y-79714615D01*
X122340000Y-80305385D01*
X122566078Y-80851185D01*
X122983815Y-81268922D01*
X123529615Y-81495000D01*
X123688303Y-81495000D01*
X123929724Y-81595000D01*
X124560276Y-81595000D01*
X125142830Y-81353698D01*
X125588698Y-80907830D01*
X125830000Y-80325276D01*
X125830000Y-79694724D01*
X125588698Y-79112170D01*
X125142830Y-78666302D01*
X124560276Y-78425000D01*
X123929724Y-78425000D01*
X123688303Y-78525000D01*
X123529615Y-78525000D01*
X122983815Y-78751078D01*
X122566078Y-79168815D01*
X122340000Y-79714615D01*
X121380000Y-79714615D01*
X121380000Y-79485866D01*
X120978845Y-78517392D01*
X120237608Y-77776155D01*
X119269134Y-77375000D01*
X118220866Y-77375000D01*
X117252392Y-77776155D01*
X116511155Y-78517392D01*
X116110000Y-79485866D01*
X115055249Y-79485866D01*
X114938910Y-79205000D01*
X115280113Y-79205000D01*
X115917799Y-78940862D01*
X116405862Y-78452799D01*
X116670000Y-77815113D01*
X116670000Y-77124887D01*
X116405862Y-76487201D01*
X115917799Y-75999138D01*
X115280113Y-75735000D01*
X114589887Y-75735000D01*
X113952201Y-75999138D01*
X113464138Y-76487201D01*
X113372680Y-76708000D01*
X110677245Y-76708000D01*
X110398769Y-76291231D01*
X109857945Y-75929864D01*
X109381031Y-75835000D01*
X109058969Y-75835000D01*
X108582055Y-75929864D01*
X108041231Y-76291231D01*
X107679864Y-76832055D01*
X107552969Y-77470000D01*
X100448485Y-77470000D01*
X100219134Y-77375000D01*
X99170866Y-77375000D01*
X98202392Y-77776155D01*
X97461155Y-78517392D01*
X97060000Y-79485866D01*
X96005249Y-79485866D01*
X95888910Y-79205000D01*
X96230113Y-79205000D01*
X96867799Y-78940862D01*
X97355862Y-78452799D01*
X97620000Y-77815113D01*
X97620000Y-77124887D01*
X97355862Y-76487201D01*
X96867799Y-75999138D01*
X96230113Y-75735000D01*
X95539887Y-75735000D01*
X94902201Y-75999138D01*
X94414138Y-76487201D01*
X94322680Y-76708000D01*
X91627245Y-76708000D01*
X91348769Y-76291231D01*
X90807945Y-75929864D01*
X90331031Y-75835000D01*
X90008969Y-75835000D01*
X89532055Y-75929864D01*
X88991231Y-76291231D01*
X88629864Y-76832055D01*
X88502969Y-77470000D01*
X81398485Y-77470000D01*
X81169134Y-77375000D01*
X80120866Y-77375000D01*
X79152392Y-77776155D01*
X78411155Y-78517392D01*
X78010000Y-79485866D01*
X76955249Y-79485866D01*
X76838910Y-79205000D01*
X77180113Y-79205000D01*
X77817799Y-78940862D01*
X78305862Y-78452799D01*
X78570000Y-77815113D01*
X78570000Y-77124887D01*
X78305862Y-76487201D01*
X77817799Y-75999138D01*
X77180113Y-75735000D01*
X76489887Y-75735000D01*
X75852201Y-75999138D01*
X75364138Y-76487201D01*
X75272680Y-76708000D01*
X72577245Y-76708000D01*
X72298769Y-76291231D01*
X71757945Y-75929864D01*
X71281031Y-75835000D01*
X70958969Y-75835000D01*
X70482055Y-75929864D01*
X69941231Y-76291231D01*
X69579864Y-76832055D01*
X69452969Y-77470000D01*
X62348485Y-77470000D01*
X62119134Y-77375000D01*
X61070866Y-77375000D01*
X60102392Y-77776155D01*
X59361155Y-78517392D01*
X58960000Y-79485866D01*
X57905249Y-79485866D01*
X57788910Y-79205000D01*
X58130113Y-79205000D01*
X58767799Y-78940862D01*
X59255862Y-78452799D01*
X59520000Y-77815113D01*
X59520000Y-77124887D01*
X59255862Y-76487201D01*
X58767799Y-75999138D01*
X58130113Y-75735000D01*
X57439887Y-75735000D01*
X56802201Y-75999138D01*
X56314138Y-76487201D01*
X56222680Y-76708000D01*
X53527245Y-76708000D01*
X53248769Y-76291231D01*
X52707945Y-75929864D01*
X52231031Y-75835000D01*
X51908969Y-75835000D01*
X51432055Y-75929864D01*
X50891231Y-76291231D01*
X50529864Y-76832055D01*
X50402969Y-77470000D01*
X45160000Y-77470000D01*
X45160000Y-74584887D01*
X62400000Y-74584887D01*
X62400000Y-75275113D01*
X62664138Y-75912799D01*
X63152201Y-76400862D01*
X63789887Y-76665000D01*
X64480113Y-76665000D01*
X65117799Y-76400862D01*
X65605862Y-75912799D01*
X65870000Y-75275113D01*
X65870000Y-74584887D01*
X65778542Y-74364088D01*
X66990630Y-73152000D01*
X83885370Y-73152000D01*
X83799253Y-73238117D01*
X83799250Y-73238119D01*
X83750911Y-73286458D01*
X83530113Y-73195000D01*
X82839887Y-73195000D01*
X82202201Y-73459138D01*
X81714138Y-73947201D01*
X81450000Y-74584887D01*
X81450000Y-75275113D01*
X81714138Y-75912799D01*
X82202201Y-76400862D01*
X82839887Y-76665000D01*
X83530113Y-76665000D01*
X84167799Y-76400862D01*
X84655862Y-75912799D01*
X84920000Y-75275113D01*
X84920000Y-74584887D01*
X84828542Y-74364089D01*
X84876881Y-74315750D01*
X84876883Y-74315747D01*
X84881631Y-74310999D01*
X96093369Y-74310999D01*
X98679119Y-76896750D01*
X98721630Y-76960372D01*
X98973684Y-77128789D01*
X99195953Y-77173001D01*
X99195957Y-77173001D01*
X99271000Y-77187928D01*
X99346043Y-77173001D01*
X103853956Y-77173001D01*
X103928999Y-77187928D01*
X104004042Y-77173001D01*
X104004047Y-77173001D01*
X104226316Y-77128789D01*
X104478370Y-76960372D01*
X104520882Y-76896748D01*
X107106632Y-74310999D01*
X119588369Y-74310999D01*
X119641458Y-74364088D01*
X119550000Y-74584887D01*
X119550000Y-75275113D01*
X119814138Y-75912799D01*
X120302201Y-76400862D01*
X120939887Y-76665000D01*
X121630113Y-76665000D01*
X122267799Y-76400862D01*
X122755862Y-75912799D01*
X123020000Y-75275113D01*
X123020000Y-74584887D01*
X122755862Y-73947201D01*
X122267799Y-73459138D01*
X121630113Y-73195000D01*
X120939887Y-73195000D01*
X120719088Y-73286458D01*
X120495882Y-73063252D01*
X120453370Y-72999628D01*
X120201316Y-72831211D01*
X119979047Y-72786999D01*
X119979042Y-72786999D01*
X119903999Y-72772072D01*
X119828956Y-72786999D01*
X106866043Y-72786999D01*
X106791000Y-72772072D01*
X106715957Y-72786999D01*
X106715953Y-72786999D01*
X106493684Y-72831211D01*
X106241630Y-72999628D01*
X106199119Y-73063250D01*
X103957798Y-75304572D01*
X103970000Y-75275113D01*
X103970000Y-74584887D01*
X103705862Y-73947201D01*
X103217799Y-73459138D01*
X102580113Y-73195000D01*
X101889887Y-73195000D01*
X101669089Y-73286458D01*
X100286883Y-71904253D01*
X100244371Y-71840629D01*
X99992317Y-71672212D01*
X99770048Y-71628000D01*
X99770043Y-71628000D01*
X99695000Y-71613073D01*
X99619957Y-71628000D01*
X66750042Y-71628000D01*
X66674999Y-71613073D01*
X66599956Y-71628000D01*
X66599952Y-71628000D01*
X66377683Y-71672212D01*
X66377682Y-71672213D01*
X66377681Y-71672213D01*
X66323641Y-71708322D01*
X66125629Y-71840629D01*
X66083116Y-71904254D01*
X64700912Y-73286458D01*
X64480113Y-73195000D01*
X63789887Y-73195000D01*
X63152201Y-73459138D01*
X62664138Y-73947201D01*
X62400000Y-74584887D01*
X45160000Y-74584887D01*
X45160000Y-67349693D01*
X45225599Y-66764870D01*
X45405998Y-66246832D01*
X45706962Y-65765190D01*
X45910049Y-65537250D01*
X46153212Y-65264330D01*
X46170438Y-65240000D01*
X49352560Y-65240000D01*
X49352560Y-66840000D01*
X49401843Y-67087765D01*
X49542191Y-67297809D01*
X49752235Y-67438157D01*
X50000000Y-67487440D01*
X51600000Y-67487440D01*
X51847765Y-67438157D01*
X52057809Y-67297809D01*
X52198157Y-67087765D01*
X52224738Y-66954134D01*
X52527138Y-67256534D01*
X53054561Y-67475000D01*
X53625439Y-67475000D01*
X54152862Y-67256534D01*
X54361651Y-67047745D01*
X55051861Y-67047745D01*
X55125995Y-67293864D01*
X55663223Y-67486965D01*
X56233454Y-67459778D01*
X56634005Y-67293864D01*
X56708139Y-67047745D01*
X57591861Y-67047745D01*
X57665995Y-67293864D01*
X58203223Y-67486965D01*
X58773454Y-67459778D01*
X59174005Y-67293864D01*
X59248139Y-67047745D01*
X58420000Y-66219605D01*
X57591861Y-67047745D01*
X56708139Y-67047745D01*
X55880000Y-66219605D01*
X55051861Y-67047745D01*
X54361651Y-67047745D01*
X54556534Y-66852862D01*
X54603525Y-66739417D01*
X54626136Y-66794005D01*
X54872255Y-66868139D01*
X55700395Y-66040000D01*
X56059605Y-66040000D01*
X56887745Y-66868139D01*
X57133864Y-66794005D01*
X57148858Y-66752291D01*
X57166136Y-66794005D01*
X57412255Y-66868139D01*
X58240395Y-66040000D01*
X58599605Y-66040000D01*
X59427745Y-66868139D01*
X59673864Y-66794005D01*
X59694874Y-66735552D01*
X59743466Y-66852862D01*
X60147138Y-67256534D01*
X60674561Y-67475000D01*
X61245439Y-67475000D01*
X61772862Y-67256534D01*
X62176534Y-66852862D01*
X62230000Y-66723784D01*
X62283466Y-66852862D01*
X62687138Y-67256534D01*
X63214561Y-67475000D01*
X63785439Y-67475000D01*
X64312862Y-67256534D01*
X64716534Y-66852862D01*
X64770000Y-66723784D01*
X64823466Y-66852862D01*
X65227138Y-67256534D01*
X65754561Y-67475000D01*
X66325439Y-67475000D01*
X66852862Y-67256534D01*
X67256534Y-66852862D01*
X67310000Y-66723784D01*
X67363466Y-66852862D01*
X67767138Y-67256534D01*
X68294561Y-67475000D01*
X68865439Y-67475000D01*
X69392862Y-67256534D01*
X69796534Y-66852862D01*
X69850000Y-66723784D01*
X69903466Y-66852862D01*
X70307138Y-67256534D01*
X70834561Y-67475000D01*
X71405439Y-67475000D01*
X71932862Y-67256534D01*
X72336534Y-66852862D01*
X72390000Y-66723784D01*
X72443466Y-66852862D01*
X72847138Y-67256534D01*
X73374561Y-67475000D01*
X73945439Y-67475000D01*
X74472862Y-67256534D01*
X74876534Y-66852862D01*
X74930000Y-66723784D01*
X74983466Y-66852862D01*
X75387138Y-67256534D01*
X75914561Y-67475000D01*
X76485439Y-67475000D01*
X77012862Y-67256534D01*
X77416534Y-66852862D01*
X77470000Y-66723784D01*
X77523466Y-66852862D01*
X77927138Y-67256534D01*
X78454561Y-67475000D01*
X79025439Y-67475000D01*
X79552862Y-67256534D01*
X79956534Y-66852862D01*
X80175000Y-66325439D01*
X80175000Y-65754561D01*
X79956534Y-65227138D01*
X79552862Y-64823466D01*
X79025439Y-64605000D01*
X78454561Y-64605000D01*
X77927138Y-64823466D01*
X77523466Y-65227138D01*
X77470000Y-65356216D01*
X77416534Y-65227138D01*
X77012862Y-64823466D01*
X76485439Y-64605000D01*
X75914561Y-64605000D01*
X75387138Y-64823466D01*
X74983466Y-65227138D01*
X74930000Y-65356216D01*
X74876534Y-65227138D01*
X74472862Y-64823466D01*
X73945439Y-64605000D01*
X73374561Y-64605000D01*
X72847138Y-64823466D01*
X72443466Y-65227138D01*
X72390000Y-65356216D01*
X72336534Y-65227138D01*
X71932862Y-64823466D01*
X71405439Y-64605000D01*
X70834561Y-64605000D01*
X70307138Y-64823466D01*
X69903466Y-65227138D01*
X69850000Y-65356216D01*
X69796534Y-65227138D01*
X69392862Y-64823466D01*
X68865439Y-64605000D01*
X68294561Y-64605000D01*
X67767138Y-64823466D01*
X67363466Y-65227138D01*
X67310000Y-65356216D01*
X67256534Y-65227138D01*
X66852862Y-64823466D01*
X66325439Y-64605000D01*
X65754561Y-64605000D01*
X65227138Y-64823466D01*
X64823466Y-65227138D01*
X64770000Y-65356216D01*
X64716534Y-65227138D01*
X64312862Y-64823466D01*
X63785439Y-64605000D01*
X63214561Y-64605000D01*
X62687138Y-64823466D01*
X62283466Y-65227138D01*
X62230000Y-65356216D01*
X62176534Y-65227138D01*
X61772862Y-64823466D01*
X61245439Y-64605000D01*
X60674561Y-64605000D01*
X60147138Y-64823466D01*
X59743466Y-65227138D01*
X59696475Y-65340583D01*
X59673864Y-65285995D01*
X59427745Y-65211861D01*
X58599605Y-66040000D01*
X58240395Y-66040000D01*
X57412255Y-65211861D01*
X57166136Y-65285995D01*
X57151142Y-65327709D01*
X57133864Y-65285995D01*
X56887745Y-65211861D01*
X56059605Y-66040000D01*
X55700395Y-66040000D01*
X54872255Y-65211861D01*
X54626136Y-65285995D01*
X54605126Y-65344448D01*
X54556534Y-65227138D01*
X54361651Y-65032255D01*
X55051861Y-65032255D01*
X55880000Y-65860395D01*
X56708139Y-65032255D01*
X57591861Y-65032255D01*
X58420000Y-65860395D01*
X59248139Y-65032255D01*
X59174005Y-64786136D01*
X58636777Y-64593035D01*
X58066546Y-64620222D01*
X57665995Y-64786136D01*
X57591861Y-65032255D01*
X56708139Y-65032255D01*
X56634005Y-64786136D01*
X56096777Y-64593035D01*
X55526546Y-64620222D01*
X55125995Y-64786136D01*
X55051861Y-65032255D01*
X54361651Y-65032255D01*
X54152862Y-64823466D01*
X53625439Y-64605000D01*
X53054561Y-64605000D01*
X52527138Y-64823466D01*
X52224738Y-65125866D01*
X52198157Y-64992235D01*
X52057809Y-64782191D01*
X51847765Y-64641843D01*
X51600000Y-64592560D01*
X50000000Y-64592560D01*
X49752235Y-64641843D01*
X49542191Y-64782191D01*
X49401843Y-64992235D01*
X49352560Y-65240000D01*
X46170438Y-65240000D01*
X46185064Y-65219343D01*
X46219902Y-65176628D01*
X46225213Y-65168258D01*
X46600304Y-64567987D01*
X46632375Y-64501050D01*
X46665372Y-64434578D01*
X46668697Y-64425239D01*
X46901478Y-63756783D01*
X46917916Y-63684433D01*
X46935373Y-63612275D01*
X46936546Y-63602431D01*
X47012096Y-62928892D01*
X47019872Y-62889798D01*
X47019872Y-61931517D01*
X84933088Y-61931517D01*
X85001077Y-62172460D01*
X85520171Y-62357201D01*
X86070448Y-62329230D01*
X86448923Y-62172460D01*
X86516912Y-61931517D01*
X85725000Y-61139605D01*
X84933088Y-61931517D01*
X47019872Y-61931517D01*
X47019872Y-60755171D01*
X84327799Y-60755171D01*
X84355770Y-61305448D01*
X84512540Y-61683923D01*
X84753483Y-61751912D01*
X85545395Y-60960000D01*
X85904605Y-60960000D01*
X86696517Y-61751912D01*
X86937460Y-61683923D01*
X87122201Y-61164829D01*
X87094230Y-60614552D01*
X86937460Y-60236077D01*
X86696517Y-60168088D01*
X85904605Y-60960000D01*
X85545395Y-60960000D01*
X84753483Y-60168088D01*
X84512540Y-60236077D01*
X84327799Y-60755171D01*
X47019872Y-60755171D01*
X47019872Y-59988483D01*
X84933088Y-59988483D01*
X85725000Y-60780395D01*
X86516912Y-59988483D01*
X86448923Y-59747540D01*
X85929829Y-59562799D01*
X85379552Y-59590770D01*
X85001077Y-59747540D01*
X84933088Y-59988483D01*
X47019872Y-59988483D01*
X47019872Y-55604506D01*
X84340000Y-55604506D01*
X84340000Y-56155494D01*
X84550853Y-56664540D01*
X84940460Y-57054147D01*
X85449506Y-57265000D01*
X86000494Y-57265000D01*
X86509540Y-57054147D01*
X86899147Y-56664540D01*
X87110000Y-56155494D01*
X87110000Y-55604506D01*
X86899147Y-55095460D01*
X86509540Y-54705853D01*
X86000494Y-54495000D01*
X85449506Y-54495000D01*
X84940460Y-54705853D01*
X84550853Y-55095460D01*
X84340000Y-55604506D01*
X47019872Y-55604506D01*
X47019872Y-53950202D01*
X47015855Y-53930009D01*
X46997653Y-53614331D01*
X46988366Y-53560001D01*
X46982796Y-53505163D01*
X46980633Y-53495488D01*
X46821407Y-52805802D01*
X46796750Y-52735784D01*
X46773082Y-52665456D01*
X46768830Y-52656501D01*
X46460761Y-52019231D01*
X46421226Y-51956451D01*
X46382546Y-51893082D01*
X46376415Y-51885292D01*
X45934816Y-51332110D01*
X45542902Y-50841167D01*
X45385014Y-50514561D01*
X49365000Y-50514561D01*
X49365000Y-51085439D01*
X49583466Y-51612862D01*
X49987138Y-52016534D01*
X50514561Y-52235000D01*
X51085439Y-52235000D01*
X51612862Y-52016534D01*
X51821651Y-51807745D01*
X52511861Y-51807745D01*
X52585995Y-52053864D01*
X53123223Y-52246965D01*
X53693454Y-52219778D01*
X54094005Y-52053864D01*
X54168139Y-51807745D01*
X53340000Y-50979605D01*
X52511861Y-51807745D01*
X51821651Y-51807745D01*
X52016534Y-51612862D01*
X52063525Y-51499417D01*
X52086136Y-51554005D01*
X52332255Y-51628139D01*
X53160395Y-50800000D01*
X53519605Y-50800000D01*
X54347745Y-51628139D01*
X54593864Y-51554005D01*
X54614874Y-51495552D01*
X54663466Y-51612862D01*
X55067138Y-52016534D01*
X55594561Y-52235000D01*
X56165439Y-52235000D01*
X56692862Y-52016534D01*
X57096534Y-51612862D01*
X57150000Y-51483784D01*
X57203466Y-51612862D01*
X57607138Y-52016534D01*
X58134561Y-52235000D01*
X58705439Y-52235000D01*
X59232862Y-52016534D01*
X59636534Y-51612862D01*
X59690000Y-51483784D01*
X59743466Y-51612862D01*
X60147138Y-52016534D01*
X60674561Y-52235000D01*
X61245439Y-52235000D01*
X61772862Y-52016534D01*
X62176534Y-51612862D01*
X62230000Y-51483784D01*
X62283466Y-51612862D01*
X62687138Y-52016534D01*
X63214561Y-52235000D01*
X63785439Y-52235000D01*
X64312862Y-52016534D01*
X64716534Y-51612862D01*
X64770000Y-51483784D01*
X64823466Y-51612862D01*
X65227138Y-52016534D01*
X65754561Y-52235000D01*
X66325439Y-52235000D01*
X66852862Y-52016534D01*
X67256534Y-51612862D01*
X67310000Y-51483784D01*
X67363466Y-51612862D01*
X67767138Y-52016534D01*
X68294561Y-52235000D01*
X68865439Y-52235000D01*
X69392862Y-52016534D01*
X69796534Y-51612862D01*
X69850000Y-51483784D01*
X69903466Y-51612862D01*
X70307138Y-52016534D01*
X70834561Y-52235000D01*
X71405439Y-52235000D01*
X71932862Y-52016534D01*
X72336534Y-51612862D01*
X72390000Y-51483784D01*
X72443466Y-51612862D01*
X72847138Y-52016534D01*
X73374561Y-52235000D01*
X73945439Y-52235000D01*
X74472862Y-52016534D01*
X74876534Y-51612862D01*
X74930000Y-51483784D01*
X74983466Y-51612862D01*
X75387138Y-52016534D01*
X75914561Y-52235000D01*
X76485439Y-52235000D01*
X77012862Y-52016534D01*
X77416534Y-51612862D01*
X77470000Y-51483784D01*
X77523466Y-51612862D01*
X77927138Y-52016534D01*
X78454561Y-52235000D01*
X79025439Y-52235000D01*
X79552862Y-52016534D01*
X79956534Y-51612862D01*
X80175000Y-51085439D01*
X80175000Y-50514561D01*
X79956534Y-49987138D01*
X79552862Y-49583466D01*
X79025439Y-49365000D01*
X78454561Y-49365000D01*
X77927138Y-49583466D01*
X77523466Y-49987138D01*
X77470000Y-50116216D01*
X77416534Y-49987138D01*
X77012862Y-49583466D01*
X76485439Y-49365000D01*
X75914561Y-49365000D01*
X75387138Y-49583466D01*
X74983466Y-49987138D01*
X74930000Y-50116216D01*
X74876534Y-49987138D01*
X74472862Y-49583466D01*
X73945439Y-49365000D01*
X73374561Y-49365000D01*
X72847138Y-49583466D01*
X72443466Y-49987138D01*
X72390000Y-50116216D01*
X72336534Y-49987138D01*
X71932862Y-49583466D01*
X71405439Y-49365000D01*
X70834561Y-49365000D01*
X70307138Y-49583466D01*
X69903466Y-49987138D01*
X69850000Y-50116216D01*
X69796534Y-49987138D01*
X69392862Y-49583466D01*
X68865439Y-49365000D01*
X68294561Y-49365000D01*
X67767138Y-49583466D01*
X67363466Y-49987138D01*
X67310000Y-50116216D01*
X67256534Y-49987138D01*
X66852862Y-49583466D01*
X66325439Y-49365000D01*
X65754561Y-49365000D01*
X65227138Y-49583466D01*
X64823466Y-49987138D01*
X64770000Y-50116216D01*
X64716534Y-49987138D01*
X64312862Y-49583466D01*
X63785439Y-49365000D01*
X63214561Y-49365000D01*
X62687138Y-49583466D01*
X62283466Y-49987138D01*
X62230000Y-50116216D01*
X62176534Y-49987138D01*
X61772862Y-49583466D01*
X61245439Y-49365000D01*
X60674561Y-49365000D01*
X60147138Y-49583466D01*
X59743466Y-49987138D01*
X59690000Y-50116216D01*
X59636534Y-49987138D01*
X59232862Y-49583466D01*
X58705439Y-49365000D01*
X58134561Y-49365000D01*
X57607138Y-49583466D01*
X57203466Y-49987138D01*
X57150000Y-50116216D01*
X57096534Y-49987138D01*
X56692862Y-49583466D01*
X56165439Y-49365000D01*
X55594561Y-49365000D01*
X55067138Y-49583466D01*
X54663466Y-49987138D01*
X54616475Y-50100583D01*
X54593864Y-50045995D01*
X54347745Y-49971861D01*
X53519605Y-50800000D01*
X53160395Y-50800000D01*
X52332255Y-49971861D01*
X52086136Y-50045995D01*
X52065126Y-50104448D01*
X52016534Y-49987138D01*
X51821651Y-49792255D01*
X52511861Y-49792255D01*
X53340000Y-50620395D01*
X54168139Y-49792255D01*
X54094005Y-49546136D01*
X53556777Y-49353035D01*
X52986546Y-49380222D01*
X52585995Y-49546136D01*
X52511861Y-49792255D01*
X51821651Y-49792255D01*
X51612862Y-49583466D01*
X51085439Y-49365000D01*
X50514561Y-49365000D01*
X49987138Y-49583466D01*
X49583466Y-49987138D01*
X49365000Y-50514561D01*
X45385014Y-50514561D01*
X45304156Y-50347299D01*
X45176397Y-49793912D01*
X45160000Y-49509540D01*
X45160000Y-44104887D01*
X46525000Y-44104887D01*
X46525000Y-44795113D01*
X46789138Y-45432799D01*
X47277201Y-45920862D01*
X47914887Y-46185000D01*
X48605113Y-46185000D01*
X49242799Y-45920862D01*
X49730862Y-45432799D01*
X49995000Y-44795113D01*
X49995000Y-44104887D01*
X130345000Y-44104887D01*
X130345000Y-44795113D01*
X130609138Y-45432799D01*
X131097201Y-45920862D01*
X131734887Y-46185000D01*
X132425113Y-46185000D01*
X133062799Y-45920862D01*
X133550862Y-45432799D01*
X133815000Y-44795113D01*
X133815000Y-44104887D01*
X133550862Y-43467201D01*
X133062799Y-42979138D01*
X132425113Y-42715000D01*
X131734887Y-42715000D01*
X131097201Y-42979138D01*
X130609138Y-43467201D01*
X130345000Y-44104887D01*
X49995000Y-44104887D01*
X49730862Y-43467201D01*
X49242799Y-42979138D01*
X48605113Y-42715000D01*
X47914887Y-42715000D01*
X47277201Y-42979138D01*
X46789138Y-43467201D01*
X46525000Y-44104887D01*
X45160000Y-44104887D01*
X45160000Y-42595580D01*
X45214985Y-42211636D01*
X45354372Y-41905072D01*
X45574199Y-41649950D01*
X45856792Y-41466782D01*
X46202959Y-41363257D01*
X46381350Y-41350000D01*
X133934420Y-41350000D01*
X134318364Y-41404985D01*
G04 #@! TD*
M02*
