M48
;DRILL file {KiCad 5.0.2-bee76a0~70~ubuntu18.04.1} date 2019年05月17日 00時14分43秒
;FORMAT={-:-/ absolute / metric / decimal}
FMAT,2
METRIC,TZ
T1C0.800
T2C0.820
T3C1.000
T4C1.500
T5C1.700
T6C1.900
T7C2.200
T8C4.000
%
G90
G05
T1
X85.725Y-55.88
X85.725Y-60.96
T2
X50.8Y-50.8
X50.8Y-66.04
X53.34Y-50.8
X53.34Y-66.04
X55.88Y-50.8
X55.88Y-66.04
X58.42Y-50.8
X58.42Y-66.04
X60.96Y-50.8
X60.96Y-66.04
X63.5Y-50.8
X63.5Y-66.04
X66.04Y-50.8
X66.04Y-66.04
X68.58Y-50.8
X68.58Y-66.04
X71.12Y-50.8
X71.12Y-66.04
X73.66Y-50.8
X73.66Y-66.04
X76.2Y-50.8
X76.2Y-66.04
X78.74Y-50.8
X78.74Y-66.04
T3
X90.17Y-77.47
X90.17Y-82.55
X109.22Y-77.47
X109.22Y-82.55
X71.12Y-77.47
X71.12Y-82.55
X52.07Y-77.47
X52.07Y-82.55
T4
X113.745Y-83.81
X114.935Y-77.47
X118.745Y-85.91
X121.285Y-74.93
X56.595Y-83.81
X57.785Y-77.47
X61.595Y-85.91
X64.135Y-74.93
X94.695Y-83.81
X95.885Y-77.47
X99.695Y-85.91
X102.235Y-74.93
X75.645Y-83.81
X76.835Y-77.47
X80.645Y-85.91
X83.185Y-74.93
T5
X113.665Y-80.01
X123.825Y-80.01
X56.515Y-80.01
X66.675Y-80.01
X94.615Y-80.01
X104.775Y-80.01
X75.565Y-80.01
X85.725Y-80.01
T6
X113.245Y-80.01
X124.245Y-80.01
X56.095Y-80.01
X67.095Y-80.01
X94.195Y-80.01
X105.195Y-80.01
X75.145Y-80.01
X86.145Y-80.01
T7
X132.08Y-91.44
X48.26Y-44.45
X48.26Y-91.44
X132.08Y-44.45
T8
X80.645Y-80.01
X118.745Y-80.01
X61.595Y-80.01
X99.695Y-80.01
T0
M30
