G04 #@! TF.GenerationSoftware,KiCad,Pcbnew,5.0.2-bee76a0~70~ubuntu18.04.1*
G04 #@! TF.CreationDate,2019-05-16T03:56:20+09:00*
G04 #@! TF.ProjectId,meishi2,6d656973-6869-4322-9e6b-696361645f70,rev?*
G04 #@! TF.SameCoordinates,Original*
G04 #@! TF.FileFunction,Copper,L2,Bot*
G04 #@! TF.FilePolarity,Positive*
%FSLAX46Y46*%
G04 Gerber Fmt 4.6, Leading zero omitted, Abs format (unit mm)*
G04 Created by KiCad (PCBNEW 5.0.2-bee76a0~70~ubuntu18.04.1) date 2019年05月16日 03時56分20秒*
%MOMM*%
%LPD*%
G01*
G04 APERTURE LIST*
G04 #@! TA.AperFunction,ComponentPad*
%ADD10O,2.000000X2.000000*%
G04 #@! TD*
G04 #@! TA.AperFunction,ComponentPad*
%ADD11R,2.000000X2.000000*%
G04 #@! TD*
G04 #@! TA.AperFunction,ComponentPad*
%ADD12C,2.200000*%
G04 #@! TD*
G04 #@! TA.AperFunction,ComponentPad*
%ADD13C,1.500000*%
G04 #@! TD*
G04 #@! TA.AperFunction,ComponentPad*
%ADD14C,1.600000*%
G04 #@! TD*
G04 #@! TA.AperFunction,ComponentPad*
%ADD15R,1.600000X1.600000*%
G04 #@! TD*
G04 #@! TA.AperFunction,Conductor*
%ADD16C,0.254000*%
G04 #@! TD*
G04 APERTURE END LIST*
D10*
G04 #@! TO.P,D1,2*
G04 #@! TO.N,Net-(D1-Pad2)*
X52070000Y-74930000D03*
D11*
G04 #@! TO.P,D1,1*
G04 #@! TO.N,row0*
X52070000Y-85090000D03*
G04 #@! TD*
D10*
G04 #@! TO.P,D2,2*
G04 #@! TO.N,Net-(D2-Pad2)*
X90170000Y-74930000D03*
D11*
G04 #@! TO.P,D2,1*
G04 #@! TO.N,row1*
X90170000Y-85090000D03*
G04 #@! TD*
D10*
G04 #@! TO.P,D3,2*
G04 #@! TO.N,Net-(D3-Pad2)*
X71120000Y-74930000D03*
D11*
G04 #@! TO.P,D3,1*
G04 #@! TO.N,row0*
X71120000Y-85090000D03*
G04 #@! TD*
D10*
G04 #@! TO.P,D4,2*
G04 #@! TO.N,Net-(D4-Pad2)*
X109220000Y-74930000D03*
D11*
G04 #@! TO.P,D4,1*
G04 #@! TO.N,row1*
X109220000Y-85090000D03*
G04 #@! TD*
D12*
G04 #@! TO.P,SW1,2*
G04 #@! TO.N,Net-(D1-Pad2)*
X56595000Y-83810000D03*
G04 #@! TO.P,SW1,1*
G04 #@! TO.N,col0*
X61595000Y-85910000D03*
G04 #@! TO.P,SW1,2*
G04 #@! TO.N,Net-(D1-Pad2)*
X57785000Y-77470000D03*
G04 #@! TO.P,SW1,1*
G04 #@! TO.N,col0*
X64135000Y-74930000D03*
G04 #@! TD*
G04 #@! TO.P,SW2,2*
G04 #@! TO.N,Net-(D2-Pad2)*
X94695000Y-83810000D03*
G04 #@! TO.P,SW2,1*
G04 #@! TO.N,col0*
X99695000Y-85910000D03*
G04 #@! TO.P,SW2,2*
G04 #@! TO.N,Net-(D2-Pad2)*
X95885000Y-77470000D03*
G04 #@! TO.P,SW2,1*
G04 #@! TO.N,col0*
X102235000Y-74930000D03*
G04 #@! TD*
G04 #@! TO.P,SW3,2*
G04 #@! TO.N,Net-(D3-Pad2)*
X75645000Y-83810000D03*
G04 #@! TO.P,SW3,1*
G04 #@! TO.N,col1*
X80645000Y-85910000D03*
G04 #@! TO.P,SW3,2*
G04 #@! TO.N,Net-(D3-Pad2)*
X76835000Y-77470000D03*
G04 #@! TO.P,SW3,1*
G04 #@! TO.N,col1*
X83185000Y-74930000D03*
G04 #@! TD*
G04 #@! TO.P,SW4,2*
G04 #@! TO.N,Net-(D4-Pad2)*
X113745000Y-83810000D03*
G04 #@! TO.P,SW4,1*
G04 #@! TO.N,col1*
X118745000Y-85910000D03*
G04 #@! TO.P,SW4,2*
G04 #@! TO.N,Net-(D4-Pad2)*
X114935000Y-77470000D03*
G04 #@! TO.P,SW4,1*
G04 #@! TO.N,col1*
X121285000Y-74930000D03*
G04 #@! TD*
D13*
G04 #@! TO.P,SW5,2*
G04 #@! TO.N,GND*
X85725000Y-60960000D03*
G04 #@! TO.P,SW5,1*
G04 #@! TO.N,RST*
X85725000Y-55880000D03*
G04 #@! TD*
D14*
G04 #@! TO.P,U1,24*
G04 #@! TO.N,Net-(U1-Pad24)*
X50800000Y-50800000D03*
G04 #@! TO.P,U1,23*
G04 #@! TO.N,GND*
X53340000Y-50800000D03*
G04 #@! TO.P,U1,22*
G04 #@! TO.N,RST*
X55880000Y-50800000D03*
G04 #@! TO.P,U1,21*
G04 #@! TO.N,VCC*
X58420000Y-50800000D03*
G04 #@! TO.P,U1,20*
G04 #@! TO.N,Net-(U1-Pad20)*
X60960000Y-50800000D03*
G04 #@! TO.P,U1,19*
G04 #@! TO.N,col0*
X63500000Y-50800000D03*
G04 #@! TO.P,U1,18*
G04 #@! TO.N,col1*
X66040000Y-50800000D03*
G04 #@! TO.P,U1,17*
G04 #@! TO.N,Net-(U1-Pad17)*
X68580000Y-50800000D03*
G04 #@! TO.P,U1,16*
G04 #@! TO.N,Net-(U1-Pad16)*
X71120000Y-50800000D03*
G04 #@! TO.P,U1,15*
G04 #@! TO.N,Net-(U1-Pad15)*
X73660000Y-50800000D03*
G04 #@! TO.P,U1,14*
G04 #@! TO.N,Net-(U1-Pad14)*
X76200000Y-50800000D03*
G04 #@! TO.P,U1,13*
G04 #@! TO.N,Net-(U1-Pad13)*
X78740000Y-50800000D03*
G04 #@! TO.P,U1,12*
G04 #@! TO.N,Net-(U1-Pad12)*
X78740000Y-66040000D03*
G04 #@! TO.P,U1,11*
G04 #@! TO.N,Net-(U1-Pad11)*
X76200000Y-66040000D03*
G04 #@! TO.P,U1,10*
G04 #@! TO.N,row1*
X73660000Y-66040000D03*
G04 #@! TO.P,U1,9*
G04 #@! TO.N,row0*
X71120000Y-66040000D03*
G04 #@! TO.P,U1,8*
G04 #@! TO.N,Net-(U1-Pad8)*
X68580000Y-66040000D03*
G04 #@! TO.P,U1,7*
G04 #@! TO.N,Net-(U1-Pad7)*
X66040000Y-66040000D03*
G04 #@! TO.P,U1,6*
G04 #@! TO.N,Net-(U1-Pad6)*
X63500000Y-66040000D03*
G04 #@! TO.P,U1,5*
G04 #@! TO.N,Net-(U1-Pad5)*
X60960000Y-66040000D03*
G04 #@! TO.P,U1,4*
G04 #@! TO.N,GND*
X58420000Y-66040000D03*
G04 #@! TO.P,U1,3*
X55880000Y-66040000D03*
G04 #@! TO.P,U1,2*
G04 #@! TO.N,Net-(U1-Pad2)*
X53340000Y-66040000D03*
D15*
G04 #@! TO.P,U1,1*
G04 #@! TO.N,Net-(U1-Pad1)*
X50800000Y-66040000D03*
G04 #@! TD*
D16*
G04 #@! TO.N,row0*
X69215000Y-81931000D02*
X71120000Y-83836000D01*
X71120000Y-83836000D02*
X71120000Y-85090000D01*
X71120000Y-66040000D02*
X69215000Y-67945000D01*
X69215000Y-67945000D02*
X69215000Y-81931000D01*
G04 #@! TO.N,Net-(D1-Pad2)*
X57785000Y-82620000D02*
X57785000Y-77470000D01*
X56595000Y-83810000D02*
X57785000Y-82620000D01*
G04 #@! TO.N,Net-(D2-Pad2)*
X95885000Y-82620000D02*
X94695000Y-83810000D01*
X95885000Y-77470000D02*
X95885000Y-82620000D01*
G04 #@! TO.N,row1*
X76200000Y-68580000D02*
X73660000Y-66040000D01*
X81280000Y-68580000D02*
X76200000Y-68580000D01*
X90170000Y-85090000D02*
X90170000Y-77470000D01*
X90170000Y-77470000D02*
X81280000Y-68580000D01*
G04 #@! TO.N,Net-(D3-Pad2)*
X75645000Y-83810000D02*
X76835000Y-82620000D01*
X76835000Y-82620000D02*
X76835000Y-77470000D01*
G04 #@! TO.N,Net-(D4-Pad2)*
X114935000Y-82620000D02*
X113745000Y-83810000D01*
X114935000Y-77470000D02*
X114935000Y-82620000D01*
G04 #@! TO.N,col0*
X102235000Y-83370000D02*
X99695000Y-85910000D01*
X102235000Y-74930000D02*
X102235000Y-83370000D01*
X64135000Y-83370000D02*
X61595000Y-85910000D01*
X64135000Y-74930000D02*
X64135000Y-83370000D01*
X63500000Y-50800000D02*
X67310000Y-54610000D01*
X102235000Y-60325000D02*
X102235000Y-74930000D01*
X102235000Y-59055000D02*
X102235000Y-60325000D01*
X97790000Y-54610000D02*
X102235000Y-59055000D01*
X67310000Y-54610000D02*
X97790000Y-54610000D01*
G04 #@! TO.N,col1*
X121285000Y-83370000D02*
X118745000Y-85910000D01*
X121285000Y-74930000D02*
X121285000Y-83370000D01*
X83185000Y-83370000D02*
X80645000Y-85910000D01*
X83185000Y-74930000D02*
X83185000Y-83370000D01*
X121285000Y-59055000D02*
X121285000Y-74930000D01*
X115570000Y-53340000D02*
X121285000Y-59055000D01*
X66040000Y-50800000D02*
X68580000Y-53340000D01*
X68580000Y-53340000D02*
X115570000Y-53340000D01*
G04 #@! TO.N,RST*
X60960000Y-55880000D02*
X85725000Y-55880000D01*
X55880000Y-50800000D02*
X60960000Y-55880000D01*
G04 #@! TD*
G04 #@! TO.N,GND*
G36*
X134318364Y-41404985D02*
X134624928Y-41544372D01*
X134880050Y-41764199D01*
X135063218Y-42046792D01*
X135166743Y-42392959D01*
X135180000Y-42571350D01*
X135180001Y-93294413D01*
X135125015Y-93678364D01*
X134985628Y-93984928D01*
X134765804Y-94240047D01*
X134483207Y-94423218D01*
X134137043Y-94526743D01*
X133958649Y-94540000D01*
X46405580Y-94540000D01*
X46021636Y-94485015D01*
X45715072Y-94345628D01*
X45459953Y-94125804D01*
X45276782Y-93843207D01*
X45173257Y-93497043D01*
X45160000Y-93318649D01*
X45160000Y-91104833D01*
X46575000Y-91104833D01*
X46575000Y-91775167D01*
X46831526Y-92394476D01*
X47305524Y-92868474D01*
X47924833Y-93125000D01*
X48595167Y-93125000D01*
X49214476Y-92868474D01*
X49688474Y-92394476D01*
X49945000Y-91775167D01*
X49945000Y-91104833D01*
X130395000Y-91104833D01*
X130395000Y-91775167D01*
X130651526Y-92394476D01*
X131125524Y-92868474D01*
X131744833Y-93125000D01*
X132415167Y-93125000D01*
X133034476Y-92868474D01*
X133508474Y-92394476D01*
X133765000Y-91775167D01*
X133765000Y-91104833D01*
X133508474Y-90485524D01*
X133034476Y-90011526D01*
X132415167Y-89755000D01*
X131744833Y-89755000D01*
X131125524Y-90011526D01*
X130651526Y-90485524D01*
X130395000Y-91104833D01*
X49945000Y-91104833D01*
X49688474Y-90485524D01*
X49214476Y-90011526D01*
X48595167Y-89755000D01*
X47924833Y-89755000D01*
X47305524Y-90011526D01*
X46831526Y-90485524D01*
X46575000Y-91104833D01*
X45160000Y-91104833D01*
X45160000Y-84090000D01*
X50422560Y-84090000D01*
X50422560Y-86090000D01*
X50471843Y-86337765D01*
X50612191Y-86547809D01*
X50822235Y-86688157D01*
X51070000Y-86737440D01*
X53070000Y-86737440D01*
X53317765Y-86688157D01*
X53527809Y-86547809D01*
X53668157Y-86337765D01*
X53717440Y-86090000D01*
X53717440Y-84090000D01*
X53668157Y-83842235D01*
X53527809Y-83632191D01*
X53317765Y-83491843D01*
X53070000Y-83442560D01*
X51070000Y-83442560D01*
X50822235Y-83491843D01*
X50612191Y-83632191D01*
X50471843Y-83842235D01*
X50422560Y-84090000D01*
X45160000Y-84090000D01*
X45160000Y-79694724D01*
X54510000Y-79694724D01*
X54510000Y-80325276D01*
X54751302Y-80907830D01*
X55197170Y-81353698D01*
X55779724Y-81595000D01*
X56410276Y-81595000D01*
X56651697Y-81495000D01*
X56810385Y-81495000D01*
X57023000Y-81406932D01*
X57023000Y-82109333D01*
X56940113Y-82075000D01*
X56249887Y-82075000D01*
X55612201Y-82339138D01*
X55124138Y-82827201D01*
X54860000Y-83464887D01*
X54860000Y-84155113D01*
X55124138Y-84792799D01*
X55612201Y-85280862D01*
X56249887Y-85545000D01*
X56940113Y-85545000D01*
X57577799Y-85280862D01*
X58065862Y-84792799D01*
X58330000Y-84155113D01*
X58330000Y-83464887D01*
X58238542Y-83244089D01*
X58270750Y-83211881D01*
X58334371Y-83169371D01*
X58502788Y-82917317D01*
X58547000Y-82695048D01*
X58547000Y-82695044D01*
X58561927Y-82620001D01*
X58547000Y-82544958D01*
X58547000Y-79485866D01*
X58960000Y-79485866D01*
X58960000Y-80534134D01*
X59361155Y-81502608D01*
X60102392Y-82243845D01*
X61070866Y-82645000D01*
X62119134Y-82645000D01*
X63087608Y-82243845D01*
X63373001Y-81958452D01*
X63373001Y-83054369D01*
X62160912Y-84266458D01*
X61940113Y-84175000D01*
X61249887Y-84175000D01*
X60612201Y-84439138D01*
X60124138Y-84927201D01*
X59860000Y-85564887D01*
X59860000Y-86255113D01*
X60124138Y-86892799D01*
X60612201Y-87380862D01*
X61249887Y-87645000D01*
X61940113Y-87645000D01*
X62577799Y-87380862D01*
X63065862Y-86892799D01*
X63330000Y-86255113D01*
X63330000Y-85564887D01*
X63238542Y-85344088D01*
X64620746Y-83961884D01*
X64684371Y-83919371D01*
X64852788Y-83667317D01*
X64897000Y-83445048D01*
X64897000Y-83445044D01*
X64911927Y-83370001D01*
X64897000Y-83294958D01*
X64897000Y-76492320D01*
X65117799Y-76400862D01*
X65605862Y-75912799D01*
X65870000Y-75275113D01*
X65870000Y-74584887D01*
X65605862Y-73947201D01*
X65117799Y-73459138D01*
X64480113Y-73195000D01*
X63789887Y-73195000D01*
X63152201Y-73459138D01*
X62664138Y-73947201D01*
X62400000Y-74584887D01*
X62400000Y-75275113D01*
X62664138Y-75912799D01*
X63152201Y-76400862D01*
X63373000Y-76492320D01*
X63373000Y-78061547D01*
X63087608Y-77776155D01*
X62119134Y-77375000D01*
X61070866Y-77375000D01*
X60102392Y-77776155D01*
X59361155Y-78517392D01*
X58960000Y-79485866D01*
X58547000Y-79485866D01*
X58547000Y-79032320D01*
X58767799Y-78940862D01*
X59255862Y-78452799D01*
X59520000Y-77815113D01*
X59520000Y-77124887D01*
X59255862Y-76487201D01*
X58767799Y-75999138D01*
X58130113Y-75735000D01*
X57439887Y-75735000D01*
X56802201Y-75999138D01*
X56314138Y-76487201D01*
X56050000Y-77124887D01*
X56050000Y-77815113D01*
X56302623Y-78425000D01*
X55779724Y-78425000D01*
X55197170Y-78666302D01*
X54751302Y-79112170D01*
X54510000Y-79694724D01*
X45160000Y-79694724D01*
X45160000Y-74930000D01*
X50402969Y-74930000D01*
X50529864Y-75567945D01*
X50891231Y-76108769D01*
X51432055Y-76470136D01*
X51908969Y-76565000D01*
X52231031Y-76565000D01*
X52707945Y-76470136D01*
X53248769Y-76108769D01*
X53610136Y-75567945D01*
X53737031Y-74930000D01*
X53610136Y-74292055D01*
X53248769Y-73751231D01*
X52707945Y-73389864D01*
X52231031Y-73295000D01*
X51908969Y-73295000D01*
X51432055Y-73389864D01*
X50891231Y-73751231D01*
X50529864Y-74292055D01*
X50402969Y-74930000D01*
X45160000Y-74930000D01*
X45160000Y-67349693D01*
X45225599Y-66764870D01*
X45405998Y-66246832D01*
X45706962Y-65765190D01*
X45910049Y-65537250D01*
X46153212Y-65264330D01*
X46170438Y-65240000D01*
X49352560Y-65240000D01*
X49352560Y-66840000D01*
X49401843Y-67087765D01*
X49542191Y-67297809D01*
X49752235Y-67438157D01*
X50000000Y-67487440D01*
X51600000Y-67487440D01*
X51847765Y-67438157D01*
X52057809Y-67297809D01*
X52198157Y-67087765D01*
X52224738Y-66954134D01*
X52527138Y-67256534D01*
X53054561Y-67475000D01*
X53625439Y-67475000D01*
X54152862Y-67256534D01*
X54361651Y-67047745D01*
X55051861Y-67047745D01*
X55125995Y-67293864D01*
X55663223Y-67486965D01*
X56233454Y-67459778D01*
X56634005Y-67293864D01*
X56708139Y-67047745D01*
X57591861Y-67047745D01*
X57665995Y-67293864D01*
X58203223Y-67486965D01*
X58773454Y-67459778D01*
X59174005Y-67293864D01*
X59248139Y-67047745D01*
X58420000Y-66219605D01*
X57591861Y-67047745D01*
X56708139Y-67047745D01*
X55880000Y-66219605D01*
X55051861Y-67047745D01*
X54361651Y-67047745D01*
X54556534Y-66852862D01*
X54603525Y-66739417D01*
X54626136Y-66794005D01*
X54872255Y-66868139D01*
X55700395Y-66040000D01*
X56059605Y-66040000D01*
X56887745Y-66868139D01*
X57133864Y-66794005D01*
X57148858Y-66752291D01*
X57166136Y-66794005D01*
X57412255Y-66868139D01*
X58240395Y-66040000D01*
X58599605Y-66040000D01*
X59427745Y-66868139D01*
X59673864Y-66794005D01*
X59694874Y-66735552D01*
X59743466Y-66852862D01*
X60147138Y-67256534D01*
X60674561Y-67475000D01*
X61245439Y-67475000D01*
X61772862Y-67256534D01*
X62176534Y-66852862D01*
X62230000Y-66723784D01*
X62283466Y-66852862D01*
X62687138Y-67256534D01*
X63214561Y-67475000D01*
X63785439Y-67475000D01*
X64312862Y-67256534D01*
X64716534Y-66852862D01*
X64770000Y-66723784D01*
X64823466Y-66852862D01*
X65227138Y-67256534D01*
X65754561Y-67475000D01*
X66325439Y-67475000D01*
X66852862Y-67256534D01*
X67256534Y-66852862D01*
X67310000Y-66723784D01*
X67363466Y-66852862D01*
X67767138Y-67256534D01*
X68294561Y-67475000D01*
X68612595Y-67475000D01*
X68497212Y-67647684D01*
X68453000Y-67869953D01*
X68453000Y-67869957D01*
X68438073Y-67945000D01*
X68453000Y-68020043D01*
X68453001Y-79146700D01*
X68438698Y-79112170D01*
X67992830Y-78666302D01*
X67410276Y-78425000D01*
X66779724Y-78425000D01*
X66538303Y-78525000D01*
X66379615Y-78525000D01*
X65833815Y-78751078D01*
X65416078Y-79168815D01*
X65190000Y-79714615D01*
X65190000Y-80305385D01*
X65416078Y-80851185D01*
X65833815Y-81268922D01*
X66379615Y-81495000D01*
X66538303Y-81495000D01*
X66779724Y-81595000D01*
X67410276Y-81595000D01*
X67992830Y-81353698D01*
X68438698Y-80907830D01*
X68453001Y-80873300D01*
X68453001Y-81855952D01*
X68438073Y-81931000D01*
X68453001Y-82006048D01*
X68497213Y-82228317D01*
X68665630Y-82480371D01*
X68729251Y-82522881D01*
X69767916Y-83561547D01*
X69662191Y-83632191D01*
X69521843Y-83842235D01*
X69472560Y-84090000D01*
X69472560Y-86090000D01*
X69521843Y-86337765D01*
X69662191Y-86547809D01*
X69872235Y-86688157D01*
X70120000Y-86737440D01*
X72120000Y-86737440D01*
X72367765Y-86688157D01*
X72577809Y-86547809D01*
X72718157Y-86337765D01*
X72767440Y-86090000D01*
X72767440Y-84090000D01*
X72718157Y-83842235D01*
X72577809Y-83632191D01*
X72367765Y-83491843D01*
X72120000Y-83442560D01*
X71773561Y-83442560D01*
X71669371Y-83286629D01*
X71605750Y-83244119D01*
X69977000Y-81615370D01*
X69977000Y-79694724D01*
X73560000Y-79694724D01*
X73560000Y-80325276D01*
X73801302Y-80907830D01*
X74247170Y-81353698D01*
X74829724Y-81595000D01*
X75460276Y-81595000D01*
X75701697Y-81495000D01*
X75860385Y-81495000D01*
X76073000Y-81406932D01*
X76073000Y-82109333D01*
X75990113Y-82075000D01*
X75299887Y-82075000D01*
X74662201Y-82339138D01*
X74174138Y-82827201D01*
X73910000Y-83464887D01*
X73910000Y-84155113D01*
X74174138Y-84792799D01*
X74662201Y-85280862D01*
X75299887Y-85545000D01*
X75990113Y-85545000D01*
X76627799Y-85280862D01*
X77115862Y-84792799D01*
X77380000Y-84155113D01*
X77380000Y-83464887D01*
X77288542Y-83244089D01*
X77320750Y-83211881D01*
X77384371Y-83169371D01*
X77552788Y-82917317D01*
X77597000Y-82695048D01*
X77597000Y-82695044D01*
X77611927Y-82620001D01*
X77597000Y-82544958D01*
X77597000Y-79485866D01*
X78010000Y-79485866D01*
X78010000Y-80534134D01*
X78411155Y-81502608D01*
X79152392Y-82243845D01*
X80120866Y-82645000D01*
X81169134Y-82645000D01*
X82137608Y-82243845D01*
X82423001Y-81958452D01*
X82423001Y-83054369D01*
X81210912Y-84266458D01*
X80990113Y-84175000D01*
X80299887Y-84175000D01*
X79662201Y-84439138D01*
X79174138Y-84927201D01*
X78910000Y-85564887D01*
X78910000Y-86255113D01*
X79174138Y-86892799D01*
X79662201Y-87380862D01*
X80299887Y-87645000D01*
X80990113Y-87645000D01*
X81627799Y-87380862D01*
X82115862Y-86892799D01*
X82380000Y-86255113D01*
X82380000Y-85564887D01*
X82288542Y-85344088D01*
X83670746Y-83961884D01*
X83734371Y-83919371D01*
X83902788Y-83667317D01*
X83947000Y-83445048D01*
X83947000Y-83445044D01*
X83961927Y-83370001D01*
X83947000Y-83294958D01*
X83947000Y-79714615D01*
X84240000Y-79714615D01*
X84240000Y-80305385D01*
X84466078Y-80851185D01*
X84883815Y-81268922D01*
X85429615Y-81495000D01*
X85588303Y-81495000D01*
X85829724Y-81595000D01*
X86460276Y-81595000D01*
X87042830Y-81353698D01*
X87488698Y-80907830D01*
X87730000Y-80325276D01*
X87730000Y-79694724D01*
X87488698Y-79112170D01*
X87042830Y-78666302D01*
X86460276Y-78425000D01*
X85829724Y-78425000D01*
X85588303Y-78525000D01*
X85429615Y-78525000D01*
X84883815Y-78751078D01*
X84466078Y-79168815D01*
X84240000Y-79714615D01*
X83947000Y-79714615D01*
X83947000Y-76492320D01*
X84167799Y-76400862D01*
X84655862Y-75912799D01*
X84920000Y-75275113D01*
X84920000Y-74584887D01*
X84655862Y-73947201D01*
X84167799Y-73459138D01*
X83530113Y-73195000D01*
X82839887Y-73195000D01*
X82202201Y-73459138D01*
X81714138Y-73947201D01*
X81450000Y-74584887D01*
X81450000Y-75275113D01*
X81714138Y-75912799D01*
X82202201Y-76400862D01*
X82423000Y-76492320D01*
X82423000Y-78061547D01*
X82137608Y-77776155D01*
X81169134Y-77375000D01*
X80120866Y-77375000D01*
X79152392Y-77776155D01*
X78411155Y-78517392D01*
X78010000Y-79485866D01*
X77597000Y-79485866D01*
X77597000Y-79032320D01*
X77817799Y-78940862D01*
X78305862Y-78452799D01*
X78570000Y-77815113D01*
X78570000Y-77124887D01*
X78305862Y-76487201D01*
X77817799Y-75999138D01*
X77180113Y-75735000D01*
X76489887Y-75735000D01*
X75852201Y-75999138D01*
X75364138Y-76487201D01*
X75100000Y-77124887D01*
X75100000Y-77815113D01*
X75352623Y-78425000D01*
X74829724Y-78425000D01*
X74247170Y-78666302D01*
X73801302Y-79112170D01*
X73560000Y-79694724D01*
X69977000Y-79694724D01*
X69977000Y-76132669D01*
X70482055Y-76470136D01*
X70958969Y-76565000D01*
X71281031Y-76565000D01*
X71757945Y-76470136D01*
X72298769Y-76108769D01*
X72660136Y-75567945D01*
X72787031Y-74930000D01*
X72660136Y-74292055D01*
X72298769Y-73751231D01*
X71757945Y-73389864D01*
X71281031Y-73295000D01*
X70958969Y-73295000D01*
X70482055Y-73389864D01*
X69977000Y-73727331D01*
X69977000Y-68260630D01*
X70783698Y-67453932D01*
X70834561Y-67475000D01*
X71405439Y-67475000D01*
X71932862Y-67256534D01*
X72336534Y-66852862D01*
X72390000Y-66723784D01*
X72443466Y-66852862D01*
X72847138Y-67256534D01*
X73374561Y-67475000D01*
X73945439Y-67475000D01*
X73996302Y-67453932D01*
X75608116Y-69065746D01*
X75650629Y-69129371D01*
X75848641Y-69261678D01*
X75902681Y-69297787D01*
X75902682Y-69297787D01*
X75902683Y-69297788D01*
X76124952Y-69342000D01*
X76124956Y-69342000D01*
X76199999Y-69356927D01*
X76275042Y-69342000D01*
X80964370Y-69342000D01*
X89408001Y-77785632D01*
X89408000Y-83442560D01*
X89170000Y-83442560D01*
X88922235Y-83491843D01*
X88712191Y-83632191D01*
X88571843Y-83842235D01*
X88522560Y-84090000D01*
X88522560Y-86090000D01*
X88571843Y-86337765D01*
X88712191Y-86547809D01*
X88922235Y-86688157D01*
X89170000Y-86737440D01*
X91170000Y-86737440D01*
X91417765Y-86688157D01*
X91627809Y-86547809D01*
X91768157Y-86337765D01*
X91817440Y-86090000D01*
X91817440Y-84090000D01*
X91768157Y-83842235D01*
X91627809Y-83632191D01*
X91417765Y-83491843D01*
X91170000Y-83442560D01*
X90932000Y-83442560D01*
X90932000Y-79694724D01*
X92610000Y-79694724D01*
X92610000Y-80325276D01*
X92851302Y-80907830D01*
X93297170Y-81353698D01*
X93879724Y-81595000D01*
X94510276Y-81595000D01*
X94751697Y-81495000D01*
X94910385Y-81495000D01*
X95123001Y-81406932D01*
X95123001Y-82109333D01*
X95040113Y-82075000D01*
X94349887Y-82075000D01*
X93712201Y-82339138D01*
X93224138Y-82827201D01*
X92960000Y-83464887D01*
X92960000Y-84155113D01*
X93224138Y-84792799D01*
X93712201Y-85280862D01*
X94349887Y-85545000D01*
X95040113Y-85545000D01*
X95677799Y-85280862D01*
X96165862Y-84792799D01*
X96430000Y-84155113D01*
X96430000Y-83464887D01*
X96338542Y-83244089D01*
X96370749Y-83211882D01*
X96434371Y-83169371D01*
X96602788Y-82917317D01*
X96647000Y-82695048D01*
X96647000Y-82695044D01*
X96661927Y-82620001D01*
X96647000Y-82544958D01*
X96647000Y-79032320D01*
X96867799Y-78940862D01*
X97355862Y-78452799D01*
X97620000Y-77815113D01*
X97620000Y-77124887D01*
X97355862Y-76487201D01*
X96867799Y-75999138D01*
X96230113Y-75735000D01*
X95539887Y-75735000D01*
X94902201Y-75999138D01*
X94414138Y-76487201D01*
X94150000Y-77124887D01*
X94150000Y-77815113D01*
X94402623Y-78425000D01*
X93879724Y-78425000D01*
X93297170Y-78666302D01*
X92851302Y-79112170D01*
X92610000Y-79694724D01*
X90932000Y-79694724D01*
X90932000Y-77545047D01*
X90946928Y-77470000D01*
X90928031Y-77375000D01*
X90887788Y-77172683D01*
X90719371Y-76920629D01*
X90655749Y-76878118D01*
X90340706Y-76563075D01*
X90807945Y-76470136D01*
X91348769Y-76108769D01*
X91710136Y-75567945D01*
X91837031Y-74930000D01*
X91710136Y-74292055D01*
X91348769Y-73751231D01*
X90807945Y-73389864D01*
X90331031Y-73295000D01*
X90008969Y-73295000D01*
X89532055Y-73389864D01*
X88991231Y-73751231D01*
X88629864Y-74292055D01*
X88536925Y-74759294D01*
X81871883Y-68094253D01*
X81829371Y-68030629D01*
X81577317Y-67862212D01*
X81355048Y-67818000D01*
X81355043Y-67818000D01*
X81280000Y-67803073D01*
X81204957Y-67818000D01*
X76515630Y-67818000D01*
X76172630Y-67475000D01*
X76485439Y-67475000D01*
X77012862Y-67256534D01*
X77416534Y-66852862D01*
X77470000Y-66723784D01*
X77523466Y-66852862D01*
X77927138Y-67256534D01*
X78454561Y-67475000D01*
X79025439Y-67475000D01*
X79552862Y-67256534D01*
X79956534Y-66852862D01*
X80175000Y-66325439D01*
X80175000Y-65754561D01*
X79956534Y-65227138D01*
X79552862Y-64823466D01*
X79025439Y-64605000D01*
X78454561Y-64605000D01*
X77927138Y-64823466D01*
X77523466Y-65227138D01*
X77470000Y-65356216D01*
X77416534Y-65227138D01*
X77012862Y-64823466D01*
X76485439Y-64605000D01*
X75914561Y-64605000D01*
X75387138Y-64823466D01*
X74983466Y-65227138D01*
X74930000Y-65356216D01*
X74876534Y-65227138D01*
X74472862Y-64823466D01*
X73945439Y-64605000D01*
X73374561Y-64605000D01*
X72847138Y-64823466D01*
X72443466Y-65227138D01*
X72390000Y-65356216D01*
X72336534Y-65227138D01*
X71932862Y-64823466D01*
X71405439Y-64605000D01*
X70834561Y-64605000D01*
X70307138Y-64823466D01*
X69903466Y-65227138D01*
X69850000Y-65356216D01*
X69796534Y-65227138D01*
X69392862Y-64823466D01*
X68865439Y-64605000D01*
X68294561Y-64605000D01*
X67767138Y-64823466D01*
X67363466Y-65227138D01*
X67310000Y-65356216D01*
X67256534Y-65227138D01*
X66852862Y-64823466D01*
X66325439Y-64605000D01*
X65754561Y-64605000D01*
X65227138Y-64823466D01*
X64823466Y-65227138D01*
X64770000Y-65356216D01*
X64716534Y-65227138D01*
X64312862Y-64823466D01*
X63785439Y-64605000D01*
X63214561Y-64605000D01*
X62687138Y-64823466D01*
X62283466Y-65227138D01*
X62230000Y-65356216D01*
X62176534Y-65227138D01*
X61772862Y-64823466D01*
X61245439Y-64605000D01*
X60674561Y-64605000D01*
X60147138Y-64823466D01*
X59743466Y-65227138D01*
X59696475Y-65340583D01*
X59673864Y-65285995D01*
X59427745Y-65211861D01*
X58599605Y-66040000D01*
X58240395Y-66040000D01*
X57412255Y-65211861D01*
X57166136Y-65285995D01*
X57151142Y-65327709D01*
X57133864Y-65285995D01*
X56887745Y-65211861D01*
X56059605Y-66040000D01*
X55700395Y-66040000D01*
X54872255Y-65211861D01*
X54626136Y-65285995D01*
X54605126Y-65344448D01*
X54556534Y-65227138D01*
X54361651Y-65032255D01*
X55051861Y-65032255D01*
X55880000Y-65860395D01*
X56708139Y-65032255D01*
X57591861Y-65032255D01*
X58420000Y-65860395D01*
X59248139Y-65032255D01*
X59174005Y-64786136D01*
X58636777Y-64593035D01*
X58066546Y-64620222D01*
X57665995Y-64786136D01*
X57591861Y-65032255D01*
X56708139Y-65032255D01*
X56634005Y-64786136D01*
X56096777Y-64593035D01*
X55526546Y-64620222D01*
X55125995Y-64786136D01*
X55051861Y-65032255D01*
X54361651Y-65032255D01*
X54152862Y-64823466D01*
X53625439Y-64605000D01*
X53054561Y-64605000D01*
X52527138Y-64823466D01*
X52224738Y-65125866D01*
X52198157Y-64992235D01*
X52057809Y-64782191D01*
X51847765Y-64641843D01*
X51600000Y-64592560D01*
X50000000Y-64592560D01*
X49752235Y-64641843D01*
X49542191Y-64782191D01*
X49401843Y-64992235D01*
X49352560Y-65240000D01*
X46170438Y-65240000D01*
X46185064Y-65219343D01*
X46219902Y-65176628D01*
X46225213Y-65168258D01*
X46600304Y-64567987D01*
X46632375Y-64501050D01*
X46665372Y-64434578D01*
X46668697Y-64425239D01*
X46901478Y-63756783D01*
X46917916Y-63684433D01*
X46935373Y-63612275D01*
X46936546Y-63602431D01*
X47012096Y-62928892D01*
X47019872Y-62889798D01*
X47019872Y-61931517D01*
X84933088Y-61931517D01*
X85001077Y-62172460D01*
X85520171Y-62357201D01*
X86070448Y-62329230D01*
X86448923Y-62172460D01*
X86516912Y-61931517D01*
X85725000Y-61139605D01*
X84933088Y-61931517D01*
X47019872Y-61931517D01*
X47019872Y-60755171D01*
X84327799Y-60755171D01*
X84355770Y-61305448D01*
X84512540Y-61683923D01*
X84753483Y-61751912D01*
X85545395Y-60960000D01*
X85904605Y-60960000D01*
X86696517Y-61751912D01*
X86937460Y-61683923D01*
X87122201Y-61164829D01*
X87094230Y-60614552D01*
X86937460Y-60236077D01*
X86696517Y-60168088D01*
X85904605Y-60960000D01*
X85545395Y-60960000D01*
X84753483Y-60168088D01*
X84512540Y-60236077D01*
X84327799Y-60755171D01*
X47019872Y-60755171D01*
X47019872Y-59988483D01*
X84933088Y-59988483D01*
X85725000Y-60780395D01*
X86516912Y-59988483D01*
X86448923Y-59747540D01*
X85929829Y-59562799D01*
X85379552Y-59590770D01*
X85001077Y-59747540D01*
X84933088Y-59988483D01*
X47019872Y-59988483D01*
X47019872Y-53950202D01*
X47015855Y-53930009D01*
X46997653Y-53614331D01*
X46988366Y-53560001D01*
X46982796Y-53505163D01*
X46980633Y-53495488D01*
X46821407Y-52805802D01*
X46796750Y-52735784D01*
X46773082Y-52665456D01*
X46768830Y-52656501D01*
X46460761Y-52019231D01*
X46421226Y-51956451D01*
X46382546Y-51893082D01*
X46376415Y-51885292D01*
X45934816Y-51332110D01*
X45542902Y-50841167D01*
X45385014Y-50514561D01*
X49365000Y-50514561D01*
X49365000Y-51085439D01*
X49583466Y-51612862D01*
X49987138Y-52016534D01*
X50514561Y-52235000D01*
X51085439Y-52235000D01*
X51612862Y-52016534D01*
X51821651Y-51807745D01*
X52511861Y-51807745D01*
X52585995Y-52053864D01*
X53123223Y-52246965D01*
X53693454Y-52219778D01*
X54094005Y-52053864D01*
X54168139Y-51807745D01*
X53340000Y-50979605D01*
X52511861Y-51807745D01*
X51821651Y-51807745D01*
X52016534Y-51612862D01*
X52063525Y-51499417D01*
X52086136Y-51554005D01*
X52332255Y-51628139D01*
X53160395Y-50800000D01*
X53519605Y-50800000D01*
X54347745Y-51628139D01*
X54593864Y-51554005D01*
X54614874Y-51495552D01*
X54663466Y-51612862D01*
X55067138Y-52016534D01*
X55594561Y-52235000D01*
X56165439Y-52235000D01*
X56216302Y-52213932D01*
X60368118Y-56365749D01*
X60410629Y-56429371D01*
X60662683Y-56597788D01*
X60884952Y-56642000D01*
X60884957Y-56642000D01*
X60960000Y-56656927D01*
X61035043Y-56642000D01*
X84541517Y-56642000D01*
X84550853Y-56664540D01*
X84940460Y-57054147D01*
X85449506Y-57265000D01*
X86000494Y-57265000D01*
X86509540Y-57054147D01*
X86899147Y-56664540D01*
X87110000Y-56155494D01*
X87110000Y-55604506D01*
X87013693Y-55372000D01*
X97474370Y-55372000D01*
X101473000Y-59370631D01*
X101473001Y-60249949D01*
X101473000Y-60249953D01*
X101473001Y-73367680D01*
X101252201Y-73459138D01*
X100764138Y-73947201D01*
X100500000Y-74584887D01*
X100500000Y-75275113D01*
X100764138Y-75912799D01*
X101252201Y-76400862D01*
X101473000Y-76492320D01*
X101473000Y-78061547D01*
X101187608Y-77776155D01*
X100219134Y-77375000D01*
X99170866Y-77375000D01*
X98202392Y-77776155D01*
X97461155Y-78517392D01*
X97060000Y-79485866D01*
X97060000Y-80534134D01*
X97461155Y-81502608D01*
X98202392Y-82243845D01*
X99170866Y-82645000D01*
X100219134Y-82645000D01*
X101187608Y-82243845D01*
X101473001Y-81958452D01*
X101473001Y-83054369D01*
X100260912Y-84266458D01*
X100040113Y-84175000D01*
X99349887Y-84175000D01*
X98712201Y-84439138D01*
X98224138Y-84927201D01*
X97960000Y-85564887D01*
X97960000Y-86255113D01*
X98224138Y-86892799D01*
X98712201Y-87380862D01*
X99349887Y-87645000D01*
X100040113Y-87645000D01*
X100677799Y-87380862D01*
X101165862Y-86892799D01*
X101430000Y-86255113D01*
X101430000Y-85564887D01*
X101338542Y-85344088D01*
X102592630Y-84090000D01*
X107572560Y-84090000D01*
X107572560Y-86090000D01*
X107621843Y-86337765D01*
X107762191Y-86547809D01*
X107972235Y-86688157D01*
X108220000Y-86737440D01*
X110220000Y-86737440D01*
X110467765Y-86688157D01*
X110677809Y-86547809D01*
X110818157Y-86337765D01*
X110867440Y-86090000D01*
X110867440Y-84090000D01*
X110818157Y-83842235D01*
X110677809Y-83632191D01*
X110467765Y-83491843D01*
X110220000Y-83442560D01*
X108220000Y-83442560D01*
X107972235Y-83491843D01*
X107762191Y-83632191D01*
X107621843Y-83842235D01*
X107572560Y-84090000D01*
X102592630Y-84090000D01*
X102720746Y-83961884D01*
X102784371Y-83919371D01*
X102952788Y-83667317D01*
X102997000Y-83445048D01*
X102997000Y-83445044D01*
X103011927Y-83370001D01*
X102997000Y-83294958D01*
X102997000Y-79714615D01*
X103290000Y-79714615D01*
X103290000Y-80305385D01*
X103516078Y-80851185D01*
X103933815Y-81268922D01*
X104479615Y-81495000D01*
X104638303Y-81495000D01*
X104879724Y-81595000D01*
X105510276Y-81595000D01*
X106092830Y-81353698D01*
X106538698Y-80907830D01*
X106780000Y-80325276D01*
X106780000Y-79694724D01*
X111660000Y-79694724D01*
X111660000Y-80325276D01*
X111901302Y-80907830D01*
X112347170Y-81353698D01*
X112929724Y-81595000D01*
X113560276Y-81595000D01*
X113801697Y-81495000D01*
X113960385Y-81495000D01*
X114173001Y-81406932D01*
X114173001Y-82109333D01*
X114090113Y-82075000D01*
X113399887Y-82075000D01*
X112762201Y-82339138D01*
X112274138Y-82827201D01*
X112010000Y-83464887D01*
X112010000Y-84155113D01*
X112274138Y-84792799D01*
X112762201Y-85280862D01*
X113399887Y-85545000D01*
X114090113Y-85545000D01*
X114727799Y-85280862D01*
X115215862Y-84792799D01*
X115480000Y-84155113D01*
X115480000Y-83464887D01*
X115388542Y-83244089D01*
X115420749Y-83211882D01*
X115484371Y-83169371D01*
X115652788Y-82917317D01*
X115697000Y-82695048D01*
X115697000Y-82695044D01*
X115711927Y-82620001D01*
X115697000Y-82544958D01*
X115697000Y-79032320D01*
X115917799Y-78940862D01*
X116405862Y-78452799D01*
X116670000Y-77815113D01*
X116670000Y-77124887D01*
X116405862Y-76487201D01*
X115917799Y-75999138D01*
X115280113Y-75735000D01*
X114589887Y-75735000D01*
X113952201Y-75999138D01*
X113464138Y-76487201D01*
X113200000Y-77124887D01*
X113200000Y-77815113D01*
X113452623Y-78425000D01*
X112929724Y-78425000D01*
X112347170Y-78666302D01*
X111901302Y-79112170D01*
X111660000Y-79694724D01*
X106780000Y-79694724D01*
X106538698Y-79112170D01*
X106092830Y-78666302D01*
X105510276Y-78425000D01*
X104879724Y-78425000D01*
X104638303Y-78525000D01*
X104479615Y-78525000D01*
X103933815Y-78751078D01*
X103516078Y-79168815D01*
X103290000Y-79714615D01*
X102997000Y-79714615D01*
X102997000Y-76492320D01*
X103217799Y-76400862D01*
X103705862Y-75912799D01*
X103970000Y-75275113D01*
X103970000Y-74930000D01*
X107552969Y-74930000D01*
X107679864Y-75567945D01*
X108041231Y-76108769D01*
X108582055Y-76470136D01*
X109058969Y-76565000D01*
X109381031Y-76565000D01*
X109857945Y-76470136D01*
X110398769Y-76108769D01*
X110760136Y-75567945D01*
X110887031Y-74930000D01*
X110760136Y-74292055D01*
X110398769Y-73751231D01*
X109857945Y-73389864D01*
X109381031Y-73295000D01*
X109058969Y-73295000D01*
X108582055Y-73389864D01*
X108041231Y-73751231D01*
X107679864Y-74292055D01*
X107552969Y-74930000D01*
X103970000Y-74930000D01*
X103970000Y-74584887D01*
X103705862Y-73947201D01*
X103217799Y-73459138D01*
X102997000Y-73367680D01*
X102997000Y-59130042D01*
X103011927Y-59054999D01*
X102997000Y-58979956D01*
X102997000Y-58979952D01*
X102952788Y-58757683D01*
X102784371Y-58505629D01*
X102720750Y-58463119D01*
X98381883Y-54124253D01*
X98367014Y-54102000D01*
X115254370Y-54102000D01*
X120523000Y-59370631D01*
X120523001Y-73367680D01*
X120302201Y-73459138D01*
X119814138Y-73947201D01*
X119550000Y-74584887D01*
X119550000Y-75275113D01*
X119814138Y-75912799D01*
X120302201Y-76400862D01*
X120523000Y-76492320D01*
X120523000Y-78061547D01*
X120237608Y-77776155D01*
X119269134Y-77375000D01*
X118220866Y-77375000D01*
X117252392Y-77776155D01*
X116511155Y-78517392D01*
X116110000Y-79485866D01*
X116110000Y-80534134D01*
X116511155Y-81502608D01*
X117252392Y-82243845D01*
X118220866Y-82645000D01*
X119269134Y-82645000D01*
X120237608Y-82243845D01*
X120523001Y-81958452D01*
X120523001Y-83054369D01*
X119310912Y-84266458D01*
X119090113Y-84175000D01*
X118399887Y-84175000D01*
X117762201Y-84439138D01*
X117274138Y-84927201D01*
X117010000Y-85564887D01*
X117010000Y-86255113D01*
X117274138Y-86892799D01*
X117762201Y-87380862D01*
X118399887Y-87645000D01*
X119090113Y-87645000D01*
X119727799Y-87380862D01*
X120215862Y-86892799D01*
X120480000Y-86255113D01*
X120480000Y-85564887D01*
X120388542Y-85344088D01*
X121770746Y-83961884D01*
X121834371Y-83919371D01*
X122002788Y-83667317D01*
X122047000Y-83445048D01*
X122047000Y-83445044D01*
X122061927Y-83370001D01*
X122047000Y-83294958D01*
X122047000Y-79714615D01*
X122340000Y-79714615D01*
X122340000Y-80305385D01*
X122566078Y-80851185D01*
X122983815Y-81268922D01*
X123529615Y-81495000D01*
X123688303Y-81495000D01*
X123929724Y-81595000D01*
X124560276Y-81595000D01*
X125142830Y-81353698D01*
X125588698Y-80907830D01*
X125830000Y-80325276D01*
X125830000Y-79694724D01*
X125588698Y-79112170D01*
X125142830Y-78666302D01*
X124560276Y-78425000D01*
X123929724Y-78425000D01*
X123688303Y-78525000D01*
X123529615Y-78525000D01*
X122983815Y-78751078D01*
X122566078Y-79168815D01*
X122340000Y-79714615D01*
X122047000Y-79714615D01*
X122047000Y-76492320D01*
X122267799Y-76400862D01*
X122755862Y-75912799D01*
X123020000Y-75275113D01*
X123020000Y-74584887D01*
X122755862Y-73947201D01*
X122267799Y-73459138D01*
X122047000Y-73367680D01*
X122047000Y-59130047D01*
X122061928Y-59055000D01*
X122047000Y-58979952D01*
X122002788Y-58757683D01*
X121834371Y-58505629D01*
X121770750Y-58463119D01*
X116161883Y-52854253D01*
X116119371Y-52790629D01*
X115867317Y-52622212D01*
X115645048Y-52578000D01*
X115645043Y-52578000D01*
X115570000Y-52563073D01*
X115494957Y-52578000D01*
X68895630Y-52578000D01*
X68552630Y-52235000D01*
X68865439Y-52235000D01*
X69392862Y-52016534D01*
X69796534Y-51612862D01*
X69850000Y-51483784D01*
X69903466Y-51612862D01*
X70307138Y-52016534D01*
X70834561Y-52235000D01*
X71405439Y-52235000D01*
X71932862Y-52016534D01*
X72336534Y-51612862D01*
X72390000Y-51483784D01*
X72443466Y-51612862D01*
X72847138Y-52016534D01*
X73374561Y-52235000D01*
X73945439Y-52235000D01*
X74472862Y-52016534D01*
X74876534Y-51612862D01*
X74930000Y-51483784D01*
X74983466Y-51612862D01*
X75387138Y-52016534D01*
X75914561Y-52235000D01*
X76485439Y-52235000D01*
X77012862Y-52016534D01*
X77416534Y-51612862D01*
X77470000Y-51483784D01*
X77523466Y-51612862D01*
X77927138Y-52016534D01*
X78454561Y-52235000D01*
X79025439Y-52235000D01*
X79552862Y-52016534D01*
X79956534Y-51612862D01*
X80175000Y-51085439D01*
X80175000Y-50514561D01*
X79956534Y-49987138D01*
X79552862Y-49583466D01*
X79025439Y-49365000D01*
X78454561Y-49365000D01*
X77927138Y-49583466D01*
X77523466Y-49987138D01*
X77470000Y-50116216D01*
X77416534Y-49987138D01*
X77012862Y-49583466D01*
X76485439Y-49365000D01*
X75914561Y-49365000D01*
X75387138Y-49583466D01*
X74983466Y-49987138D01*
X74930000Y-50116216D01*
X74876534Y-49987138D01*
X74472862Y-49583466D01*
X73945439Y-49365000D01*
X73374561Y-49365000D01*
X72847138Y-49583466D01*
X72443466Y-49987138D01*
X72390000Y-50116216D01*
X72336534Y-49987138D01*
X71932862Y-49583466D01*
X71405439Y-49365000D01*
X70834561Y-49365000D01*
X70307138Y-49583466D01*
X69903466Y-49987138D01*
X69850000Y-50116216D01*
X69796534Y-49987138D01*
X69392862Y-49583466D01*
X68865439Y-49365000D01*
X68294561Y-49365000D01*
X67767138Y-49583466D01*
X67363466Y-49987138D01*
X67310000Y-50116216D01*
X67256534Y-49987138D01*
X66852862Y-49583466D01*
X66325439Y-49365000D01*
X65754561Y-49365000D01*
X65227138Y-49583466D01*
X64823466Y-49987138D01*
X64770000Y-50116216D01*
X64716534Y-49987138D01*
X64312862Y-49583466D01*
X63785439Y-49365000D01*
X63214561Y-49365000D01*
X62687138Y-49583466D01*
X62283466Y-49987138D01*
X62230000Y-50116216D01*
X62176534Y-49987138D01*
X61772862Y-49583466D01*
X61245439Y-49365000D01*
X60674561Y-49365000D01*
X60147138Y-49583466D01*
X59743466Y-49987138D01*
X59690000Y-50116216D01*
X59636534Y-49987138D01*
X59232862Y-49583466D01*
X58705439Y-49365000D01*
X58134561Y-49365000D01*
X57607138Y-49583466D01*
X57203466Y-49987138D01*
X57150000Y-50116216D01*
X57096534Y-49987138D01*
X56692862Y-49583466D01*
X56165439Y-49365000D01*
X55594561Y-49365000D01*
X55067138Y-49583466D01*
X54663466Y-49987138D01*
X54616475Y-50100583D01*
X54593864Y-50045995D01*
X54347745Y-49971861D01*
X53519605Y-50800000D01*
X53160395Y-50800000D01*
X52332255Y-49971861D01*
X52086136Y-50045995D01*
X52065126Y-50104448D01*
X52016534Y-49987138D01*
X51821651Y-49792255D01*
X52511861Y-49792255D01*
X53340000Y-50620395D01*
X54168139Y-49792255D01*
X54094005Y-49546136D01*
X53556777Y-49353035D01*
X52986546Y-49380222D01*
X52585995Y-49546136D01*
X52511861Y-49792255D01*
X51821651Y-49792255D01*
X51612862Y-49583466D01*
X51085439Y-49365000D01*
X50514561Y-49365000D01*
X49987138Y-49583466D01*
X49583466Y-49987138D01*
X49365000Y-50514561D01*
X45385014Y-50514561D01*
X45304156Y-50347299D01*
X45176397Y-49793912D01*
X45160000Y-49509540D01*
X45160000Y-44114833D01*
X46575000Y-44114833D01*
X46575000Y-44785167D01*
X46831526Y-45404476D01*
X47305524Y-45878474D01*
X47924833Y-46135000D01*
X48595167Y-46135000D01*
X49214476Y-45878474D01*
X49688474Y-45404476D01*
X49945000Y-44785167D01*
X49945000Y-44114833D01*
X130395000Y-44114833D01*
X130395000Y-44785167D01*
X130651526Y-45404476D01*
X131125524Y-45878474D01*
X131744833Y-46135000D01*
X132415167Y-46135000D01*
X133034476Y-45878474D01*
X133508474Y-45404476D01*
X133765000Y-44785167D01*
X133765000Y-44114833D01*
X133508474Y-43495524D01*
X133034476Y-43021526D01*
X132415167Y-42765000D01*
X131744833Y-42765000D01*
X131125524Y-43021526D01*
X130651526Y-43495524D01*
X130395000Y-44114833D01*
X49945000Y-44114833D01*
X49688474Y-43495524D01*
X49214476Y-43021526D01*
X48595167Y-42765000D01*
X47924833Y-42765000D01*
X47305524Y-43021526D01*
X46831526Y-43495524D01*
X46575000Y-44114833D01*
X45160000Y-44114833D01*
X45160000Y-42595580D01*
X45214985Y-42211636D01*
X45354372Y-41905072D01*
X45574199Y-41649950D01*
X45856792Y-41466782D01*
X46202959Y-41363257D01*
X46381350Y-41350000D01*
X133934420Y-41350000D01*
X134318364Y-41404985D01*
X134318364Y-41404985D01*
G37*
X134318364Y-41404985D02*
X134624928Y-41544372D01*
X134880050Y-41764199D01*
X135063218Y-42046792D01*
X135166743Y-42392959D01*
X135180000Y-42571350D01*
X135180001Y-93294413D01*
X135125015Y-93678364D01*
X134985628Y-93984928D01*
X134765804Y-94240047D01*
X134483207Y-94423218D01*
X134137043Y-94526743D01*
X133958649Y-94540000D01*
X46405580Y-94540000D01*
X46021636Y-94485015D01*
X45715072Y-94345628D01*
X45459953Y-94125804D01*
X45276782Y-93843207D01*
X45173257Y-93497043D01*
X45160000Y-93318649D01*
X45160000Y-91104833D01*
X46575000Y-91104833D01*
X46575000Y-91775167D01*
X46831526Y-92394476D01*
X47305524Y-92868474D01*
X47924833Y-93125000D01*
X48595167Y-93125000D01*
X49214476Y-92868474D01*
X49688474Y-92394476D01*
X49945000Y-91775167D01*
X49945000Y-91104833D01*
X130395000Y-91104833D01*
X130395000Y-91775167D01*
X130651526Y-92394476D01*
X131125524Y-92868474D01*
X131744833Y-93125000D01*
X132415167Y-93125000D01*
X133034476Y-92868474D01*
X133508474Y-92394476D01*
X133765000Y-91775167D01*
X133765000Y-91104833D01*
X133508474Y-90485524D01*
X133034476Y-90011526D01*
X132415167Y-89755000D01*
X131744833Y-89755000D01*
X131125524Y-90011526D01*
X130651526Y-90485524D01*
X130395000Y-91104833D01*
X49945000Y-91104833D01*
X49688474Y-90485524D01*
X49214476Y-90011526D01*
X48595167Y-89755000D01*
X47924833Y-89755000D01*
X47305524Y-90011526D01*
X46831526Y-90485524D01*
X46575000Y-91104833D01*
X45160000Y-91104833D01*
X45160000Y-84090000D01*
X50422560Y-84090000D01*
X50422560Y-86090000D01*
X50471843Y-86337765D01*
X50612191Y-86547809D01*
X50822235Y-86688157D01*
X51070000Y-86737440D01*
X53070000Y-86737440D01*
X53317765Y-86688157D01*
X53527809Y-86547809D01*
X53668157Y-86337765D01*
X53717440Y-86090000D01*
X53717440Y-84090000D01*
X53668157Y-83842235D01*
X53527809Y-83632191D01*
X53317765Y-83491843D01*
X53070000Y-83442560D01*
X51070000Y-83442560D01*
X50822235Y-83491843D01*
X50612191Y-83632191D01*
X50471843Y-83842235D01*
X50422560Y-84090000D01*
X45160000Y-84090000D01*
X45160000Y-79694724D01*
X54510000Y-79694724D01*
X54510000Y-80325276D01*
X54751302Y-80907830D01*
X55197170Y-81353698D01*
X55779724Y-81595000D01*
X56410276Y-81595000D01*
X56651697Y-81495000D01*
X56810385Y-81495000D01*
X57023000Y-81406932D01*
X57023000Y-82109333D01*
X56940113Y-82075000D01*
X56249887Y-82075000D01*
X55612201Y-82339138D01*
X55124138Y-82827201D01*
X54860000Y-83464887D01*
X54860000Y-84155113D01*
X55124138Y-84792799D01*
X55612201Y-85280862D01*
X56249887Y-85545000D01*
X56940113Y-85545000D01*
X57577799Y-85280862D01*
X58065862Y-84792799D01*
X58330000Y-84155113D01*
X58330000Y-83464887D01*
X58238542Y-83244089D01*
X58270750Y-83211881D01*
X58334371Y-83169371D01*
X58502788Y-82917317D01*
X58547000Y-82695048D01*
X58547000Y-82695044D01*
X58561927Y-82620001D01*
X58547000Y-82544958D01*
X58547000Y-79485866D01*
X58960000Y-79485866D01*
X58960000Y-80534134D01*
X59361155Y-81502608D01*
X60102392Y-82243845D01*
X61070866Y-82645000D01*
X62119134Y-82645000D01*
X63087608Y-82243845D01*
X63373001Y-81958452D01*
X63373001Y-83054369D01*
X62160912Y-84266458D01*
X61940113Y-84175000D01*
X61249887Y-84175000D01*
X60612201Y-84439138D01*
X60124138Y-84927201D01*
X59860000Y-85564887D01*
X59860000Y-86255113D01*
X60124138Y-86892799D01*
X60612201Y-87380862D01*
X61249887Y-87645000D01*
X61940113Y-87645000D01*
X62577799Y-87380862D01*
X63065862Y-86892799D01*
X63330000Y-86255113D01*
X63330000Y-85564887D01*
X63238542Y-85344088D01*
X64620746Y-83961884D01*
X64684371Y-83919371D01*
X64852788Y-83667317D01*
X64897000Y-83445048D01*
X64897000Y-83445044D01*
X64911927Y-83370001D01*
X64897000Y-83294958D01*
X64897000Y-76492320D01*
X65117799Y-76400862D01*
X65605862Y-75912799D01*
X65870000Y-75275113D01*
X65870000Y-74584887D01*
X65605862Y-73947201D01*
X65117799Y-73459138D01*
X64480113Y-73195000D01*
X63789887Y-73195000D01*
X63152201Y-73459138D01*
X62664138Y-73947201D01*
X62400000Y-74584887D01*
X62400000Y-75275113D01*
X62664138Y-75912799D01*
X63152201Y-76400862D01*
X63373000Y-76492320D01*
X63373000Y-78061547D01*
X63087608Y-77776155D01*
X62119134Y-77375000D01*
X61070866Y-77375000D01*
X60102392Y-77776155D01*
X59361155Y-78517392D01*
X58960000Y-79485866D01*
X58547000Y-79485866D01*
X58547000Y-79032320D01*
X58767799Y-78940862D01*
X59255862Y-78452799D01*
X59520000Y-77815113D01*
X59520000Y-77124887D01*
X59255862Y-76487201D01*
X58767799Y-75999138D01*
X58130113Y-75735000D01*
X57439887Y-75735000D01*
X56802201Y-75999138D01*
X56314138Y-76487201D01*
X56050000Y-77124887D01*
X56050000Y-77815113D01*
X56302623Y-78425000D01*
X55779724Y-78425000D01*
X55197170Y-78666302D01*
X54751302Y-79112170D01*
X54510000Y-79694724D01*
X45160000Y-79694724D01*
X45160000Y-74930000D01*
X50402969Y-74930000D01*
X50529864Y-75567945D01*
X50891231Y-76108769D01*
X51432055Y-76470136D01*
X51908969Y-76565000D01*
X52231031Y-76565000D01*
X52707945Y-76470136D01*
X53248769Y-76108769D01*
X53610136Y-75567945D01*
X53737031Y-74930000D01*
X53610136Y-74292055D01*
X53248769Y-73751231D01*
X52707945Y-73389864D01*
X52231031Y-73295000D01*
X51908969Y-73295000D01*
X51432055Y-73389864D01*
X50891231Y-73751231D01*
X50529864Y-74292055D01*
X50402969Y-74930000D01*
X45160000Y-74930000D01*
X45160000Y-67349693D01*
X45225599Y-66764870D01*
X45405998Y-66246832D01*
X45706962Y-65765190D01*
X45910049Y-65537250D01*
X46153212Y-65264330D01*
X46170438Y-65240000D01*
X49352560Y-65240000D01*
X49352560Y-66840000D01*
X49401843Y-67087765D01*
X49542191Y-67297809D01*
X49752235Y-67438157D01*
X50000000Y-67487440D01*
X51600000Y-67487440D01*
X51847765Y-67438157D01*
X52057809Y-67297809D01*
X52198157Y-67087765D01*
X52224738Y-66954134D01*
X52527138Y-67256534D01*
X53054561Y-67475000D01*
X53625439Y-67475000D01*
X54152862Y-67256534D01*
X54361651Y-67047745D01*
X55051861Y-67047745D01*
X55125995Y-67293864D01*
X55663223Y-67486965D01*
X56233454Y-67459778D01*
X56634005Y-67293864D01*
X56708139Y-67047745D01*
X57591861Y-67047745D01*
X57665995Y-67293864D01*
X58203223Y-67486965D01*
X58773454Y-67459778D01*
X59174005Y-67293864D01*
X59248139Y-67047745D01*
X58420000Y-66219605D01*
X57591861Y-67047745D01*
X56708139Y-67047745D01*
X55880000Y-66219605D01*
X55051861Y-67047745D01*
X54361651Y-67047745D01*
X54556534Y-66852862D01*
X54603525Y-66739417D01*
X54626136Y-66794005D01*
X54872255Y-66868139D01*
X55700395Y-66040000D01*
X56059605Y-66040000D01*
X56887745Y-66868139D01*
X57133864Y-66794005D01*
X57148858Y-66752291D01*
X57166136Y-66794005D01*
X57412255Y-66868139D01*
X58240395Y-66040000D01*
X58599605Y-66040000D01*
X59427745Y-66868139D01*
X59673864Y-66794005D01*
X59694874Y-66735552D01*
X59743466Y-66852862D01*
X60147138Y-67256534D01*
X60674561Y-67475000D01*
X61245439Y-67475000D01*
X61772862Y-67256534D01*
X62176534Y-66852862D01*
X62230000Y-66723784D01*
X62283466Y-66852862D01*
X62687138Y-67256534D01*
X63214561Y-67475000D01*
X63785439Y-67475000D01*
X64312862Y-67256534D01*
X64716534Y-66852862D01*
X64770000Y-66723784D01*
X64823466Y-66852862D01*
X65227138Y-67256534D01*
X65754561Y-67475000D01*
X66325439Y-67475000D01*
X66852862Y-67256534D01*
X67256534Y-66852862D01*
X67310000Y-66723784D01*
X67363466Y-66852862D01*
X67767138Y-67256534D01*
X68294561Y-67475000D01*
X68612595Y-67475000D01*
X68497212Y-67647684D01*
X68453000Y-67869953D01*
X68453000Y-67869957D01*
X68438073Y-67945000D01*
X68453000Y-68020043D01*
X68453001Y-79146700D01*
X68438698Y-79112170D01*
X67992830Y-78666302D01*
X67410276Y-78425000D01*
X66779724Y-78425000D01*
X66538303Y-78525000D01*
X66379615Y-78525000D01*
X65833815Y-78751078D01*
X65416078Y-79168815D01*
X65190000Y-79714615D01*
X65190000Y-80305385D01*
X65416078Y-80851185D01*
X65833815Y-81268922D01*
X66379615Y-81495000D01*
X66538303Y-81495000D01*
X66779724Y-81595000D01*
X67410276Y-81595000D01*
X67992830Y-81353698D01*
X68438698Y-80907830D01*
X68453001Y-80873300D01*
X68453001Y-81855952D01*
X68438073Y-81931000D01*
X68453001Y-82006048D01*
X68497213Y-82228317D01*
X68665630Y-82480371D01*
X68729251Y-82522881D01*
X69767916Y-83561547D01*
X69662191Y-83632191D01*
X69521843Y-83842235D01*
X69472560Y-84090000D01*
X69472560Y-86090000D01*
X69521843Y-86337765D01*
X69662191Y-86547809D01*
X69872235Y-86688157D01*
X70120000Y-86737440D01*
X72120000Y-86737440D01*
X72367765Y-86688157D01*
X72577809Y-86547809D01*
X72718157Y-86337765D01*
X72767440Y-86090000D01*
X72767440Y-84090000D01*
X72718157Y-83842235D01*
X72577809Y-83632191D01*
X72367765Y-83491843D01*
X72120000Y-83442560D01*
X71773561Y-83442560D01*
X71669371Y-83286629D01*
X71605750Y-83244119D01*
X69977000Y-81615370D01*
X69977000Y-79694724D01*
X73560000Y-79694724D01*
X73560000Y-80325276D01*
X73801302Y-80907830D01*
X74247170Y-81353698D01*
X74829724Y-81595000D01*
X75460276Y-81595000D01*
X75701697Y-81495000D01*
X75860385Y-81495000D01*
X76073000Y-81406932D01*
X76073000Y-82109333D01*
X75990113Y-82075000D01*
X75299887Y-82075000D01*
X74662201Y-82339138D01*
X74174138Y-82827201D01*
X73910000Y-83464887D01*
X73910000Y-84155113D01*
X74174138Y-84792799D01*
X74662201Y-85280862D01*
X75299887Y-85545000D01*
X75990113Y-85545000D01*
X76627799Y-85280862D01*
X77115862Y-84792799D01*
X77380000Y-84155113D01*
X77380000Y-83464887D01*
X77288542Y-83244089D01*
X77320750Y-83211881D01*
X77384371Y-83169371D01*
X77552788Y-82917317D01*
X77597000Y-82695048D01*
X77597000Y-82695044D01*
X77611927Y-82620001D01*
X77597000Y-82544958D01*
X77597000Y-79485866D01*
X78010000Y-79485866D01*
X78010000Y-80534134D01*
X78411155Y-81502608D01*
X79152392Y-82243845D01*
X80120866Y-82645000D01*
X81169134Y-82645000D01*
X82137608Y-82243845D01*
X82423001Y-81958452D01*
X82423001Y-83054369D01*
X81210912Y-84266458D01*
X80990113Y-84175000D01*
X80299887Y-84175000D01*
X79662201Y-84439138D01*
X79174138Y-84927201D01*
X78910000Y-85564887D01*
X78910000Y-86255113D01*
X79174138Y-86892799D01*
X79662201Y-87380862D01*
X80299887Y-87645000D01*
X80990113Y-87645000D01*
X81627799Y-87380862D01*
X82115862Y-86892799D01*
X82380000Y-86255113D01*
X82380000Y-85564887D01*
X82288542Y-85344088D01*
X83670746Y-83961884D01*
X83734371Y-83919371D01*
X83902788Y-83667317D01*
X83947000Y-83445048D01*
X83947000Y-83445044D01*
X83961927Y-83370001D01*
X83947000Y-83294958D01*
X83947000Y-79714615D01*
X84240000Y-79714615D01*
X84240000Y-80305385D01*
X84466078Y-80851185D01*
X84883815Y-81268922D01*
X85429615Y-81495000D01*
X85588303Y-81495000D01*
X85829724Y-81595000D01*
X86460276Y-81595000D01*
X87042830Y-81353698D01*
X87488698Y-80907830D01*
X87730000Y-80325276D01*
X87730000Y-79694724D01*
X87488698Y-79112170D01*
X87042830Y-78666302D01*
X86460276Y-78425000D01*
X85829724Y-78425000D01*
X85588303Y-78525000D01*
X85429615Y-78525000D01*
X84883815Y-78751078D01*
X84466078Y-79168815D01*
X84240000Y-79714615D01*
X83947000Y-79714615D01*
X83947000Y-76492320D01*
X84167799Y-76400862D01*
X84655862Y-75912799D01*
X84920000Y-75275113D01*
X84920000Y-74584887D01*
X84655862Y-73947201D01*
X84167799Y-73459138D01*
X83530113Y-73195000D01*
X82839887Y-73195000D01*
X82202201Y-73459138D01*
X81714138Y-73947201D01*
X81450000Y-74584887D01*
X81450000Y-75275113D01*
X81714138Y-75912799D01*
X82202201Y-76400862D01*
X82423000Y-76492320D01*
X82423000Y-78061547D01*
X82137608Y-77776155D01*
X81169134Y-77375000D01*
X80120866Y-77375000D01*
X79152392Y-77776155D01*
X78411155Y-78517392D01*
X78010000Y-79485866D01*
X77597000Y-79485866D01*
X77597000Y-79032320D01*
X77817799Y-78940862D01*
X78305862Y-78452799D01*
X78570000Y-77815113D01*
X78570000Y-77124887D01*
X78305862Y-76487201D01*
X77817799Y-75999138D01*
X77180113Y-75735000D01*
X76489887Y-75735000D01*
X75852201Y-75999138D01*
X75364138Y-76487201D01*
X75100000Y-77124887D01*
X75100000Y-77815113D01*
X75352623Y-78425000D01*
X74829724Y-78425000D01*
X74247170Y-78666302D01*
X73801302Y-79112170D01*
X73560000Y-79694724D01*
X69977000Y-79694724D01*
X69977000Y-76132669D01*
X70482055Y-76470136D01*
X70958969Y-76565000D01*
X71281031Y-76565000D01*
X71757945Y-76470136D01*
X72298769Y-76108769D01*
X72660136Y-75567945D01*
X72787031Y-74930000D01*
X72660136Y-74292055D01*
X72298769Y-73751231D01*
X71757945Y-73389864D01*
X71281031Y-73295000D01*
X70958969Y-73295000D01*
X70482055Y-73389864D01*
X69977000Y-73727331D01*
X69977000Y-68260630D01*
X70783698Y-67453932D01*
X70834561Y-67475000D01*
X71405439Y-67475000D01*
X71932862Y-67256534D01*
X72336534Y-66852862D01*
X72390000Y-66723784D01*
X72443466Y-66852862D01*
X72847138Y-67256534D01*
X73374561Y-67475000D01*
X73945439Y-67475000D01*
X73996302Y-67453932D01*
X75608116Y-69065746D01*
X75650629Y-69129371D01*
X75848641Y-69261678D01*
X75902681Y-69297787D01*
X75902682Y-69297787D01*
X75902683Y-69297788D01*
X76124952Y-69342000D01*
X76124956Y-69342000D01*
X76199999Y-69356927D01*
X76275042Y-69342000D01*
X80964370Y-69342000D01*
X89408001Y-77785632D01*
X89408000Y-83442560D01*
X89170000Y-83442560D01*
X88922235Y-83491843D01*
X88712191Y-83632191D01*
X88571843Y-83842235D01*
X88522560Y-84090000D01*
X88522560Y-86090000D01*
X88571843Y-86337765D01*
X88712191Y-86547809D01*
X88922235Y-86688157D01*
X89170000Y-86737440D01*
X91170000Y-86737440D01*
X91417765Y-86688157D01*
X91627809Y-86547809D01*
X91768157Y-86337765D01*
X91817440Y-86090000D01*
X91817440Y-84090000D01*
X91768157Y-83842235D01*
X91627809Y-83632191D01*
X91417765Y-83491843D01*
X91170000Y-83442560D01*
X90932000Y-83442560D01*
X90932000Y-79694724D01*
X92610000Y-79694724D01*
X92610000Y-80325276D01*
X92851302Y-80907830D01*
X93297170Y-81353698D01*
X93879724Y-81595000D01*
X94510276Y-81595000D01*
X94751697Y-81495000D01*
X94910385Y-81495000D01*
X95123001Y-81406932D01*
X95123001Y-82109333D01*
X95040113Y-82075000D01*
X94349887Y-82075000D01*
X93712201Y-82339138D01*
X93224138Y-82827201D01*
X92960000Y-83464887D01*
X92960000Y-84155113D01*
X93224138Y-84792799D01*
X93712201Y-85280862D01*
X94349887Y-85545000D01*
X95040113Y-85545000D01*
X95677799Y-85280862D01*
X96165862Y-84792799D01*
X96430000Y-84155113D01*
X96430000Y-83464887D01*
X96338542Y-83244089D01*
X96370749Y-83211882D01*
X96434371Y-83169371D01*
X96602788Y-82917317D01*
X96647000Y-82695048D01*
X96647000Y-82695044D01*
X96661927Y-82620001D01*
X96647000Y-82544958D01*
X96647000Y-79032320D01*
X96867799Y-78940862D01*
X97355862Y-78452799D01*
X97620000Y-77815113D01*
X97620000Y-77124887D01*
X97355862Y-76487201D01*
X96867799Y-75999138D01*
X96230113Y-75735000D01*
X95539887Y-75735000D01*
X94902201Y-75999138D01*
X94414138Y-76487201D01*
X94150000Y-77124887D01*
X94150000Y-77815113D01*
X94402623Y-78425000D01*
X93879724Y-78425000D01*
X93297170Y-78666302D01*
X92851302Y-79112170D01*
X92610000Y-79694724D01*
X90932000Y-79694724D01*
X90932000Y-77545047D01*
X90946928Y-77470000D01*
X90928031Y-77375000D01*
X90887788Y-77172683D01*
X90719371Y-76920629D01*
X90655749Y-76878118D01*
X90340706Y-76563075D01*
X90807945Y-76470136D01*
X91348769Y-76108769D01*
X91710136Y-75567945D01*
X91837031Y-74930000D01*
X91710136Y-74292055D01*
X91348769Y-73751231D01*
X90807945Y-73389864D01*
X90331031Y-73295000D01*
X90008969Y-73295000D01*
X89532055Y-73389864D01*
X88991231Y-73751231D01*
X88629864Y-74292055D01*
X88536925Y-74759294D01*
X81871883Y-68094253D01*
X81829371Y-68030629D01*
X81577317Y-67862212D01*
X81355048Y-67818000D01*
X81355043Y-67818000D01*
X81280000Y-67803073D01*
X81204957Y-67818000D01*
X76515630Y-67818000D01*
X76172630Y-67475000D01*
X76485439Y-67475000D01*
X77012862Y-67256534D01*
X77416534Y-66852862D01*
X77470000Y-66723784D01*
X77523466Y-66852862D01*
X77927138Y-67256534D01*
X78454561Y-67475000D01*
X79025439Y-67475000D01*
X79552862Y-67256534D01*
X79956534Y-66852862D01*
X80175000Y-66325439D01*
X80175000Y-65754561D01*
X79956534Y-65227138D01*
X79552862Y-64823466D01*
X79025439Y-64605000D01*
X78454561Y-64605000D01*
X77927138Y-64823466D01*
X77523466Y-65227138D01*
X77470000Y-65356216D01*
X77416534Y-65227138D01*
X77012862Y-64823466D01*
X76485439Y-64605000D01*
X75914561Y-64605000D01*
X75387138Y-64823466D01*
X74983466Y-65227138D01*
X74930000Y-65356216D01*
X74876534Y-65227138D01*
X74472862Y-64823466D01*
X73945439Y-64605000D01*
X73374561Y-64605000D01*
X72847138Y-64823466D01*
X72443466Y-65227138D01*
X72390000Y-65356216D01*
X72336534Y-65227138D01*
X71932862Y-64823466D01*
X71405439Y-64605000D01*
X70834561Y-64605000D01*
X70307138Y-64823466D01*
X69903466Y-65227138D01*
X69850000Y-65356216D01*
X69796534Y-65227138D01*
X69392862Y-64823466D01*
X68865439Y-64605000D01*
X68294561Y-64605000D01*
X67767138Y-64823466D01*
X67363466Y-65227138D01*
X67310000Y-65356216D01*
X67256534Y-65227138D01*
X66852862Y-64823466D01*
X66325439Y-64605000D01*
X65754561Y-64605000D01*
X65227138Y-64823466D01*
X64823466Y-65227138D01*
X64770000Y-65356216D01*
X64716534Y-65227138D01*
X64312862Y-64823466D01*
X63785439Y-64605000D01*
X63214561Y-64605000D01*
X62687138Y-64823466D01*
X62283466Y-65227138D01*
X62230000Y-65356216D01*
X62176534Y-65227138D01*
X61772862Y-64823466D01*
X61245439Y-64605000D01*
X60674561Y-64605000D01*
X60147138Y-64823466D01*
X59743466Y-65227138D01*
X59696475Y-65340583D01*
X59673864Y-65285995D01*
X59427745Y-65211861D01*
X58599605Y-66040000D01*
X58240395Y-66040000D01*
X57412255Y-65211861D01*
X57166136Y-65285995D01*
X57151142Y-65327709D01*
X57133864Y-65285995D01*
X56887745Y-65211861D01*
X56059605Y-66040000D01*
X55700395Y-66040000D01*
X54872255Y-65211861D01*
X54626136Y-65285995D01*
X54605126Y-65344448D01*
X54556534Y-65227138D01*
X54361651Y-65032255D01*
X55051861Y-65032255D01*
X55880000Y-65860395D01*
X56708139Y-65032255D01*
X57591861Y-65032255D01*
X58420000Y-65860395D01*
X59248139Y-65032255D01*
X59174005Y-64786136D01*
X58636777Y-64593035D01*
X58066546Y-64620222D01*
X57665995Y-64786136D01*
X57591861Y-65032255D01*
X56708139Y-65032255D01*
X56634005Y-64786136D01*
X56096777Y-64593035D01*
X55526546Y-64620222D01*
X55125995Y-64786136D01*
X55051861Y-65032255D01*
X54361651Y-65032255D01*
X54152862Y-64823466D01*
X53625439Y-64605000D01*
X53054561Y-64605000D01*
X52527138Y-64823466D01*
X52224738Y-65125866D01*
X52198157Y-64992235D01*
X52057809Y-64782191D01*
X51847765Y-64641843D01*
X51600000Y-64592560D01*
X50000000Y-64592560D01*
X49752235Y-64641843D01*
X49542191Y-64782191D01*
X49401843Y-64992235D01*
X49352560Y-65240000D01*
X46170438Y-65240000D01*
X46185064Y-65219343D01*
X46219902Y-65176628D01*
X46225213Y-65168258D01*
X46600304Y-64567987D01*
X46632375Y-64501050D01*
X46665372Y-64434578D01*
X46668697Y-64425239D01*
X46901478Y-63756783D01*
X46917916Y-63684433D01*
X46935373Y-63612275D01*
X46936546Y-63602431D01*
X47012096Y-62928892D01*
X47019872Y-62889798D01*
X47019872Y-61931517D01*
X84933088Y-61931517D01*
X85001077Y-62172460D01*
X85520171Y-62357201D01*
X86070448Y-62329230D01*
X86448923Y-62172460D01*
X86516912Y-61931517D01*
X85725000Y-61139605D01*
X84933088Y-61931517D01*
X47019872Y-61931517D01*
X47019872Y-60755171D01*
X84327799Y-60755171D01*
X84355770Y-61305448D01*
X84512540Y-61683923D01*
X84753483Y-61751912D01*
X85545395Y-60960000D01*
X85904605Y-60960000D01*
X86696517Y-61751912D01*
X86937460Y-61683923D01*
X87122201Y-61164829D01*
X87094230Y-60614552D01*
X86937460Y-60236077D01*
X86696517Y-60168088D01*
X85904605Y-60960000D01*
X85545395Y-60960000D01*
X84753483Y-60168088D01*
X84512540Y-60236077D01*
X84327799Y-60755171D01*
X47019872Y-60755171D01*
X47019872Y-59988483D01*
X84933088Y-59988483D01*
X85725000Y-60780395D01*
X86516912Y-59988483D01*
X86448923Y-59747540D01*
X85929829Y-59562799D01*
X85379552Y-59590770D01*
X85001077Y-59747540D01*
X84933088Y-59988483D01*
X47019872Y-59988483D01*
X47019872Y-53950202D01*
X47015855Y-53930009D01*
X46997653Y-53614331D01*
X46988366Y-53560001D01*
X46982796Y-53505163D01*
X46980633Y-53495488D01*
X46821407Y-52805802D01*
X46796750Y-52735784D01*
X46773082Y-52665456D01*
X46768830Y-52656501D01*
X46460761Y-52019231D01*
X46421226Y-51956451D01*
X46382546Y-51893082D01*
X46376415Y-51885292D01*
X45934816Y-51332110D01*
X45542902Y-50841167D01*
X45385014Y-50514561D01*
X49365000Y-50514561D01*
X49365000Y-51085439D01*
X49583466Y-51612862D01*
X49987138Y-52016534D01*
X50514561Y-52235000D01*
X51085439Y-52235000D01*
X51612862Y-52016534D01*
X51821651Y-51807745D01*
X52511861Y-51807745D01*
X52585995Y-52053864D01*
X53123223Y-52246965D01*
X53693454Y-52219778D01*
X54094005Y-52053864D01*
X54168139Y-51807745D01*
X53340000Y-50979605D01*
X52511861Y-51807745D01*
X51821651Y-51807745D01*
X52016534Y-51612862D01*
X52063525Y-51499417D01*
X52086136Y-51554005D01*
X52332255Y-51628139D01*
X53160395Y-50800000D01*
X53519605Y-50800000D01*
X54347745Y-51628139D01*
X54593864Y-51554005D01*
X54614874Y-51495552D01*
X54663466Y-51612862D01*
X55067138Y-52016534D01*
X55594561Y-52235000D01*
X56165439Y-52235000D01*
X56216302Y-52213932D01*
X60368118Y-56365749D01*
X60410629Y-56429371D01*
X60662683Y-56597788D01*
X60884952Y-56642000D01*
X60884957Y-56642000D01*
X60960000Y-56656927D01*
X61035043Y-56642000D01*
X84541517Y-56642000D01*
X84550853Y-56664540D01*
X84940460Y-57054147D01*
X85449506Y-57265000D01*
X86000494Y-57265000D01*
X86509540Y-57054147D01*
X86899147Y-56664540D01*
X87110000Y-56155494D01*
X87110000Y-55604506D01*
X87013693Y-55372000D01*
X97474370Y-55372000D01*
X101473000Y-59370631D01*
X101473001Y-60249949D01*
X101473000Y-60249953D01*
X101473001Y-73367680D01*
X101252201Y-73459138D01*
X100764138Y-73947201D01*
X100500000Y-74584887D01*
X100500000Y-75275113D01*
X100764138Y-75912799D01*
X101252201Y-76400862D01*
X101473000Y-76492320D01*
X101473000Y-78061547D01*
X101187608Y-77776155D01*
X100219134Y-77375000D01*
X99170866Y-77375000D01*
X98202392Y-77776155D01*
X97461155Y-78517392D01*
X97060000Y-79485866D01*
X97060000Y-80534134D01*
X97461155Y-81502608D01*
X98202392Y-82243845D01*
X99170866Y-82645000D01*
X100219134Y-82645000D01*
X101187608Y-82243845D01*
X101473001Y-81958452D01*
X101473001Y-83054369D01*
X100260912Y-84266458D01*
X100040113Y-84175000D01*
X99349887Y-84175000D01*
X98712201Y-84439138D01*
X98224138Y-84927201D01*
X97960000Y-85564887D01*
X97960000Y-86255113D01*
X98224138Y-86892799D01*
X98712201Y-87380862D01*
X99349887Y-87645000D01*
X100040113Y-87645000D01*
X100677799Y-87380862D01*
X101165862Y-86892799D01*
X101430000Y-86255113D01*
X101430000Y-85564887D01*
X101338542Y-85344088D01*
X102592630Y-84090000D01*
X107572560Y-84090000D01*
X107572560Y-86090000D01*
X107621843Y-86337765D01*
X107762191Y-86547809D01*
X107972235Y-86688157D01*
X108220000Y-86737440D01*
X110220000Y-86737440D01*
X110467765Y-86688157D01*
X110677809Y-86547809D01*
X110818157Y-86337765D01*
X110867440Y-86090000D01*
X110867440Y-84090000D01*
X110818157Y-83842235D01*
X110677809Y-83632191D01*
X110467765Y-83491843D01*
X110220000Y-83442560D01*
X108220000Y-83442560D01*
X107972235Y-83491843D01*
X107762191Y-83632191D01*
X107621843Y-83842235D01*
X107572560Y-84090000D01*
X102592630Y-84090000D01*
X102720746Y-83961884D01*
X102784371Y-83919371D01*
X102952788Y-83667317D01*
X102997000Y-83445048D01*
X102997000Y-83445044D01*
X103011927Y-83370001D01*
X102997000Y-83294958D01*
X102997000Y-79714615D01*
X103290000Y-79714615D01*
X103290000Y-80305385D01*
X103516078Y-80851185D01*
X103933815Y-81268922D01*
X104479615Y-81495000D01*
X104638303Y-81495000D01*
X104879724Y-81595000D01*
X105510276Y-81595000D01*
X106092830Y-81353698D01*
X106538698Y-80907830D01*
X106780000Y-80325276D01*
X106780000Y-79694724D01*
X111660000Y-79694724D01*
X111660000Y-80325276D01*
X111901302Y-80907830D01*
X112347170Y-81353698D01*
X112929724Y-81595000D01*
X113560276Y-81595000D01*
X113801697Y-81495000D01*
X113960385Y-81495000D01*
X114173001Y-81406932D01*
X114173001Y-82109333D01*
X114090113Y-82075000D01*
X113399887Y-82075000D01*
X112762201Y-82339138D01*
X112274138Y-82827201D01*
X112010000Y-83464887D01*
X112010000Y-84155113D01*
X112274138Y-84792799D01*
X112762201Y-85280862D01*
X113399887Y-85545000D01*
X114090113Y-85545000D01*
X114727799Y-85280862D01*
X115215862Y-84792799D01*
X115480000Y-84155113D01*
X115480000Y-83464887D01*
X115388542Y-83244089D01*
X115420749Y-83211882D01*
X115484371Y-83169371D01*
X115652788Y-82917317D01*
X115697000Y-82695048D01*
X115697000Y-82695044D01*
X115711927Y-82620001D01*
X115697000Y-82544958D01*
X115697000Y-79032320D01*
X115917799Y-78940862D01*
X116405862Y-78452799D01*
X116670000Y-77815113D01*
X116670000Y-77124887D01*
X116405862Y-76487201D01*
X115917799Y-75999138D01*
X115280113Y-75735000D01*
X114589887Y-75735000D01*
X113952201Y-75999138D01*
X113464138Y-76487201D01*
X113200000Y-77124887D01*
X113200000Y-77815113D01*
X113452623Y-78425000D01*
X112929724Y-78425000D01*
X112347170Y-78666302D01*
X111901302Y-79112170D01*
X111660000Y-79694724D01*
X106780000Y-79694724D01*
X106538698Y-79112170D01*
X106092830Y-78666302D01*
X105510276Y-78425000D01*
X104879724Y-78425000D01*
X104638303Y-78525000D01*
X104479615Y-78525000D01*
X103933815Y-78751078D01*
X103516078Y-79168815D01*
X103290000Y-79714615D01*
X102997000Y-79714615D01*
X102997000Y-76492320D01*
X103217799Y-76400862D01*
X103705862Y-75912799D01*
X103970000Y-75275113D01*
X103970000Y-74930000D01*
X107552969Y-74930000D01*
X107679864Y-75567945D01*
X108041231Y-76108769D01*
X108582055Y-76470136D01*
X109058969Y-76565000D01*
X109381031Y-76565000D01*
X109857945Y-76470136D01*
X110398769Y-76108769D01*
X110760136Y-75567945D01*
X110887031Y-74930000D01*
X110760136Y-74292055D01*
X110398769Y-73751231D01*
X109857945Y-73389864D01*
X109381031Y-73295000D01*
X109058969Y-73295000D01*
X108582055Y-73389864D01*
X108041231Y-73751231D01*
X107679864Y-74292055D01*
X107552969Y-74930000D01*
X103970000Y-74930000D01*
X103970000Y-74584887D01*
X103705862Y-73947201D01*
X103217799Y-73459138D01*
X102997000Y-73367680D01*
X102997000Y-59130042D01*
X103011927Y-59054999D01*
X102997000Y-58979956D01*
X102997000Y-58979952D01*
X102952788Y-58757683D01*
X102784371Y-58505629D01*
X102720750Y-58463119D01*
X98381883Y-54124253D01*
X98367014Y-54102000D01*
X115254370Y-54102000D01*
X120523000Y-59370631D01*
X120523001Y-73367680D01*
X120302201Y-73459138D01*
X119814138Y-73947201D01*
X119550000Y-74584887D01*
X119550000Y-75275113D01*
X119814138Y-75912799D01*
X120302201Y-76400862D01*
X120523000Y-76492320D01*
X120523000Y-78061547D01*
X120237608Y-77776155D01*
X119269134Y-77375000D01*
X118220866Y-77375000D01*
X117252392Y-77776155D01*
X116511155Y-78517392D01*
X116110000Y-79485866D01*
X116110000Y-80534134D01*
X116511155Y-81502608D01*
X117252392Y-82243845D01*
X118220866Y-82645000D01*
X119269134Y-82645000D01*
X120237608Y-82243845D01*
X120523001Y-81958452D01*
X120523001Y-83054369D01*
X119310912Y-84266458D01*
X119090113Y-84175000D01*
X118399887Y-84175000D01*
X117762201Y-84439138D01*
X117274138Y-84927201D01*
X117010000Y-85564887D01*
X117010000Y-86255113D01*
X117274138Y-86892799D01*
X117762201Y-87380862D01*
X118399887Y-87645000D01*
X119090113Y-87645000D01*
X119727799Y-87380862D01*
X120215862Y-86892799D01*
X120480000Y-86255113D01*
X120480000Y-85564887D01*
X120388542Y-85344088D01*
X121770746Y-83961884D01*
X121834371Y-83919371D01*
X122002788Y-83667317D01*
X122047000Y-83445048D01*
X122047000Y-83445044D01*
X122061927Y-83370001D01*
X122047000Y-83294958D01*
X122047000Y-79714615D01*
X122340000Y-79714615D01*
X122340000Y-80305385D01*
X122566078Y-80851185D01*
X122983815Y-81268922D01*
X123529615Y-81495000D01*
X123688303Y-81495000D01*
X123929724Y-81595000D01*
X124560276Y-81595000D01*
X125142830Y-81353698D01*
X125588698Y-80907830D01*
X125830000Y-80325276D01*
X125830000Y-79694724D01*
X125588698Y-79112170D01*
X125142830Y-78666302D01*
X124560276Y-78425000D01*
X123929724Y-78425000D01*
X123688303Y-78525000D01*
X123529615Y-78525000D01*
X122983815Y-78751078D01*
X122566078Y-79168815D01*
X122340000Y-79714615D01*
X122047000Y-79714615D01*
X122047000Y-76492320D01*
X122267799Y-76400862D01*
X122755862Y-75912799D01*
X123020000Y-75275113D01*
X123020000Y-74584887D01*
X122755862Y-73947201D01*
X122267799Y-73459138D01*
X122047000Y-73367680D01*
X122047000Y-59130047D01*
X122061928Y-59055000D01*
X122047000Y-58979952D01*
X122002788Y-58757683D01*
X121834371Y-58505629D01*
X121770750Y-58463119D01*
X116161883Y-52854253D01*
X116119371Y-52790629D01*
X115867317Y-52622212D01*
X115645048Y-52578000D01*
X115645043Y-52578000D01*
X115570000Y-52563073D01*
X115494957Y-52578000D01*
X68895630Y-52578000D01*
X68552630Y-52235000D01*
X68865439Y-52235000D01*
X69392862Y-52016534D01*
X69796534Y-51612862D01*
X69850000Y-51483784D01*
X69903466Y-51612862D01*
X70307138Y-52016534D01*
X70834561Y-52235000D01*
X71405439Y-52235000D01*
X71932862Y-52016534D01*
X72336534Y-51612862D01*
X72390000Y-51483784D01*
X72443466Y-51612862D01*
X72847138Y-52016534D01*
X73374561Y-52235000D01*
X73945439Y-52235000D01*
X74472862Y-52016534D01*
X74876534Y-51612862D01*
X74930000Y-51483784D01*
X74983466Y-51612862D01*
X75387138Y-52016534D01*
X75914561Y-52235000D01*
X76485439Y-52235000D01*
X77012862Y-52016534D01*
X77416534Y-51612862D01*
X77470000Y-51483784D01*
X77523466Y-51612862D01*
X77927138Y-52016534D01*
X78454561Y-52235000D01*
X79025439Y-52235000D01*
X79552862Y-52016534D01*
X79956534Y-51612862D01*
X80175000Y-51085439D01*
X80175000Y-50514561D01*
X79956534Y-49987138D01*
X79552862Y-49583466D01*
X79025439Y-49365000D01*
X78454561Y-49365000D01*
X77927138Y-49583466D01*
X77523466Y-49987138D01*
X77470000Y-50116216D01*
X77416534Y-49987138D01*
X77012862Y-49583466D01*
X76485439Y-49365000D01*
X75914561Y-49365000D01*
X75387138Y-49583466D01*
X74983466Y-49987138D01*
X74930000Y-50116216D01*
X74876534Y-49987138D01*
X74472862Y-49583466D01*
X73945439Y-49365000D01*
X73374561Y-49365000D01*
X72847138Y-49583466D01*
X72443466Y-49987138D01*
X72390000Y-50116216D01*
X72336534Y-49987138D01*
X71932862Y-49583466D01*
X71405439Y-49365000D01*
X70834561Y-49365000D01*
X70307138Y-49583466D01*
X69903466Y-49987138D01*
X69850000Y-50116216D01*
X69796534Y-49987138D01*
X69392862Y-49583466D01*
X68865439Y-49365000D01*
X68294561Y-49365000D01*
X67767138Y-49583466D01*
X67363466Y-49987138D01*
X67310000Y-50116216D01*
X67256534Y-49987138D01*
X66852862Y-49583466D01*
X66325439Y-49365000D01*
X65754561Y-49365000D01*
X65227138Y-49583466D01*
X64823466Y-49987138D01*
X64770000Y-50116216D01*
X64716534Y-49987138D01*
X64312862Y-49583466D01*
X63785439Y-49365000D01*
X63214561Y-49365000D01*
X62687138Y-49583466D01*
X62283466Y-49987138D01*
X62230000Y-50116216D01*
X62176534Y-49987138D01*
X61772862Y-49583466D01*
X61245439Y-49365000D01*
X60674561Y-49365000D01*
X60147138Y-49583466D01*
X59743466Y-49987138D01*
X59690000Y-50116216D01*
X59636534Y-49987138D01*
X59232862Y-49583466D01*
X58705439Y-49365000D01*
X58134561Y-49365000D01*
X57607138Y-49583466D01*
X57203466Y-49987138D01*
X57150000Y-50116216D01*
X57096534Y-49987138D01*
X56692862Y-49583466D01*
X56165439Y-49365000D01*
X55594561Y-49365000D01*
X55067138Y-49583466D01*
X54663466Y-49987138D01*
X54616475Y-50100583D01*
X54593864Y-50045995D01*
X54347745Y-49971861D01*
X53519605Y-50800000D01*
X53160395Y-50800000D01*
X52332255Y-49971861D01*
X52086136Y-50045995D01*
X52065126Y-50104448D01*
X52016534Y-49987138D01*
X51821651Y-49792255D01*
X52511861Y-49792255D01*
X53340000Y-50620395D01*
X54168139Y-49792255D01*
X54094005Y-49546136D01*
X53556777Y-49353035D01*
X52986546Y-49380222D01*
X52585995Y-49546136D01*
X52511861Y-49792255D01*
X51821651Y-49792255D01*
X51612862Y-49583466D01*
X51085439Y-49365000D01*
X50514561Y-49365000D01*
X49987138Y-49583466D01*
X49583466Y-49987138D01*
X49365000Y-50514561D01*
X45385014Y-50514561D01*
X45304156Y-50347299D01*
X45176397Y-49793912D01*
X45160000Y-49509540D01*
X45160000Y-44114833D01*
X46575000Y-44114833D01*
X46575000Y-44785167D01*
X46831526Y-45404476D01*
X47305524Y-45878474D01*
X47924833Y-46135000D01*
X48595167Y-46135000D01*
X49214476Y-45878474D01*
X49688474Y-45404476D01*
X49945000Y-44785167D01*
X49945000Y-44114833D01*
X130395000Y-44114833D01*
X130395000Y-44785167D01*
X130651526Y-45404476D01*
X131125524Y-45878474D01*
X131744833Y-46135000D01*
X132415167Y-46135000D01*
X133034476Y-45878474D01*
X133508474Y-45404476D01*
X133765000Y-44785167D01*
X133765000Y-44114833D01*
X133508474Y-43495524D01*
X133034476Y-43021526D01*
X132415167Y-42765000D01*
X131744833Y-42765000D01*
X131125524Y-43021526D01*
X130651526Y-43495524D01*
X130395000Y-44114833D01*
X49945000Y-44114833D01*
X49688474Y-43495524D01*
X49214476Y-43021526D01*
X48595167Y-42765000D01*
X47924833Y-42765000D01*
X47305524Y-43021526D01*
X46831526Y-43495524D01*
X46575000Y-44114833D01*
X45160000Y-44114833D01*
X45160000Y-42595580D01*
X45214985Y-42211636D01*
X45354372Y-41905072D01*
X45574199Y-41649950D01*
X45856792Y-41466782D01*
X46202959Y-41363257D01*
X46381350Y-41350000D01*
X133934420Y-41350000D01*
X134318364Y-41404985D01*
G04 #@! TD*
M02*
